<svg width="502" height="985" viewBox="0 0 502 985" fill="none" xmlns="http://www.w3.org/2000/svg">
<rect y="47" width="502" height="112" fill="#7F7F7F"/>
<rect y="216" width="502" height="769" fill="url(#paint0_linear_2004_465)"/>
<rect y="159" width="502" height="57" fill="#021D28"/>
<path d="M64 187H100M64 175H100M64 199H100" stroke="#C0E1F4" stroke-width="4" stroke-linecap="round" stroke-linejoin="round"/>
<g clip-path="url(#clip0_2004_465)">
<path d="M71.0781 82.7012H71.2148C71.8438 82.7012 72.3678 82.6191 72.7871 82.4551C73.2109 82.2865 73.5482 82.054 73.7988 81.7578C74.0495 81.4616 74.2295 81.113 74.3389 80.7119C74.4482 80.3109 74.5029 79.8757 74.5029 79.4062V77.6904C74.5029 77.2848 74.4596 76.9294 74.373 76.624C74.291 76.3141 74.1725 76.0566 74.0176 75.8516C73.8672 75.6419 73.6917 75.4847 73.4912 75.3799C73.2952 75.2751 73.0833 75.2227 72.8555 75.2227C72.6048 75.2227 72.3792 75.2796 72.1787 75.3936C71.9827 75.5029 71.8164 75.6556 71.6797 75.8516C71.5475 76.043 71.445 76.2686 71.3721 76.5283C71.3037 76.7835 71.2695 77.057 71.2695 77.3486C71.2695 77.6221 71.3014 77.8864 71.3652 78.1416C71.4336 78.3923 71.5339 78.6156 71.666 78.8115C71.7982 79.0075 71.9645 79.1624 72.165 79.2764C72.3656 79.3903 72.6003 79.4473 72.8691 79.4473C73.1243 79.4473 73.359 79.3994 73.5732 79.3037C73.7874 79.2035 73.9743 79.069 74.1338 78.9004C74.2933 78.7318 74.4186 78.5426 74.5098 78.333C74.6009 78.1234 74.651 77.9092 74.6602 77.6904L75.2891 77.8818C75.2891 78.2282 75.2161 78.57 75.0703 78.9072C74.929 79.2399 74.7308 79.5452 74.4756 79.8232C74.2249 80.0967 73.931 80.3154 73.5938 80.4795C73.2611 80.6436 72.8988 80.7256 72.5068 80.7256C72.0329 80.7256 71.6136 80.6367 71.249 80.459C70.889 80.2767 70.5882 80.0306 70.3467 79.7207C70.1097 79.4108 69.932 79.0553 69.8135 78.6543C69.695 78.2533 69.6357 77.8317 69.6357 77.3896C69.6357 76.9111 69.7087 76.4622 69.8545 76.043C70.0003 75.6237 70.2122 75.2546 70.4902 74.9355C70.7682 74.612 71.1055 74.3613 71.502 74.1836C71.903 74.0013 72.3564 73.9102 72.8623 73.9102C73.4001 73.9102 73.8717 74.015 74.2773 74.2246C74.6829 74.4342 75.0247 74.7236 75.3027 75.0928C75.5807 75.4619 75.7904 75.8903 75.9316 76.3779C76.0729 76.8656 76.1436 77.3896 76.1436 77.9502V78.5312C76.1436 79.1191 76.0911 79.6865 75.9863 80.2334C75.8815 80.7757 75.7106 81.2793 75.4736 81.7441C75.2412 82.2044 74.9336 82.61 74.5508 82.9609C74.1725 83.3073 73.7077 83.5785 73.1562 83.7744C72.6094 83.9658 71.9668 84.0615 71.2285 84.0615H71.0781V82.7012ZM78.1019 83.1797C78.1019 82.9245 78.1885 82.7103 78.3617 82.5371C78.5349 82.3594 78.7696 82.2705 79.0658 82.2705C79.3666 82.2705 79.6013 82.3594 79.7699 82.5371C79.9431 82.7103 80.0296 82.9245 80.0296 83.1797C80.0296 83.4349 79.9431 83.6491 79.7699 83.8223C79.6013 83.9954 79.3666 84.082 79.0658 84.082C78.7696 84.082 78.5349 83.9954 78.3617 83.8223C78.1885 83.6491 78.1019 83.4349 78.1019 83.1797ZM78.1088 77.3555C78.1088 77.1003 78.1953 76.8861 78.3685 76.7129C78.5417 76.5352 78.7764 76.4463 79.0726 76.4463C79.3734 76.4463 79.6081 76.5352 79.7767 76.7129C79.9499 76.8861 80.0365 77.1003 80.0365 77.3555C80.0365 77.6107 79.9499 77.8249 79.7767 77.998C79.6081 78.1712 79.3734 78.2578 79.0726 78.2578C78.7764 78.2578 78.5417 78.1712 78.3685 77.998C78.1953 77.8249 78.1088 77.6107 78.1088 77.3555ZM83.7517 78.2783H84.7361C85.1189 78.2783 85.4356 78.2122 85.6862 78.0801C85.9415 77.9479 86.1306 77.7656 86.2536 77.5332C86.3767 77.3008 86.4382 77.0342 86.4382 76.7334C86.4382 76.4189 86.3812 76.1501 86.2673 75.9268C86.1579 75.6989 85.9893 75.5234 85.7614 75.4004C85.5381 75.2773 85.2533 75.2158 84.907 75.2158C84.6153 75.2158 84.351 75.2751 84.114 75.3936C83.8816 75.5075 83.697 75.6715 83.5603 75.8857C83.4236 76.0954 83.3552 76.346 83.3552 76.6377H81.7009C81.7009 76.109 81.8399 75.6396 82.1179 75.2295C82.3959 74.8193 82.7741 74.498 83.2527 74.2656C83.7357 74.0286 84.278 73.9102 84.8796 73.9102C85.5222 73.9102 86.0827 74.0173 86.5612 74.2314C87.0443 74.4411 87.4203 74.7555 87.6892 75.1748C87.9581 75.5941 88.0925 76.1136 88.0925 76.7334C88.0925 77.016 88.0264 77.3031 87.8943 77.5947C87.7621 77.8864 87.5661 78.153 87.3064 78.3945C87.0466 78.6315 86.723 78.8252 86.3357 78.9756C85.9483 79.1214 85.4994 79.1943 84.989 79.1943H83.7517V78.2783ZM83.7517 79.5635V78.6611H84.989C85.5723 78.6611 86.0691 78.7295 86.4792 78.8662C86.8939 79.0029 87.2312 79.1921 87.4909 79.4336C87.7507 79.6706 87.9398 79.9417 88.0583 80.2471C88.1814 80.5524 88.2429 80.876 88.2429 81.2178C88.2429 81.6826 88.1586 82.0973 87.99 82.4619C87.8259 82.8219 87.5912 83.1273 87.2859 83.3779C86.9805 83.6286 86.6228 83.8177 86.2126 83.9453C85.807 84.0729 85.365 84.1367 84.8864 84.1367C84.4581 84.1367 84.0479 84.0775 83.656 83.959C83.264 83.8405 82.9131 83.665 82.6032 83.4326C82.2933 83.1956 82.0473 82.9017 81.865 82.5508C81.6872 82.1953 81.5984 81.7852 81.5984 81.3203H83.2458C83.2458 81.6165 83.3142 81.8786 83.4509 82.1064C83.5922 82.3298 83.7881 82.5052 84.0388 82.6328C84.294 82.7604 84.5857 82.8242 84.9138 82.8242C85.2601 82.8242 85.5586 82.7627 85.8093 82.6396C86.0599 82.5166 86.2514 82.3343 86.3835 82.0928C86.5202 81.8512 86.5886 81.5596 86.5886 81.2178C86.5886 80.8304 86.5134 80.516 86.363 80.2744C86.2126 80.0329 85.9984 79.8551 85.7204 79.7412C85.4424 79.6227 85.1143 79.5635 84.7361 79.5635H83.7517ZM96.5382 78.1895V79.8164C96.5382 80.5957 96.4607 81.2611 96.3057 81.8125C96.1554 82.3594 95.9366 82.8037 95.6495 83.1455C95.3624 83.4873 95.0183 83.738 94.6173 83.8975C94.2208 84.057 93.7764 84.1367 93.2843 84.1367C92.8923 84.1367 92.5277 84.0866 92.1905 83.9863C91.8578 83.8861 91.557 83.7288 91.2882 83.5146C91.0193 83.3005 90.7891 83.0247 90.5977 82.6875C90.4109 82.3457 90.2651 81.9378 90.1602 81.4639C90.06 80.9899 90.0098 80.4408 90.0098 79.8164V78.1895C90.0098 77.4056 90.0873 76.7448 90.2423 76.207C90.3972 75.6647 90.6182 75.2249 90.9054 74.8877C91.1925 74.5459 91.5343 74.2975 91.9307 74.1426C92.3318 73.9876 92.7784 73.9102 93.2706 73.9102C93.6671 73.9102 94.0317 73.9603 94.3643 74.0605C94.7016 74.1562 95.0024 74.3089 95.2667 74.5186C95.5356 74.7282 95.7634 75.0016 95.9503 75.3389C96.1417 75.6715 96.2875 76.0749 96.3878 76.5488C96.488 77.0182 96.5382 77.5651 96.5382 78.1895ZM94.8907 80.0488V77.9434C94.8907 77.5469 94.8679 77.1982 94.8223 76.8975C94.7768 76.5921 94.7084 76.3346 94.6173 76.125C94.5307 75.9108 94.4213 75.7376 94.2891 75.6055C94.157 75.4688 94.0066 75.3708 93.838 75.3115C93.6693 75.2477 93.4802 75.2158 93.2706 75.2158C93.0154 75.2158 92.7875 75.266 92.587 75.3662C92.3865 75.4619 92.2179 75.6169 92.0811 75.8311C91.9444 76.0452 91.8396 76.3278 91.7667 76.6787C91.6983 77.0251 91.6641 77.4466 91.6641 77.9434V80.0488C91.6641 80.4499 91.6869 80.8031 91.7325 81.1084C91.7781 81.4137 91.8464 81.6758 91.9376 81.8945C92.0287 82.1087 92.1381 82.2865 92.2657 82.4277C92.3979 82.5645 92.5483 82.6647 92.7169 82.7285C92.8901 82.7923 93.0792 82.8242 93.2843 82.8242C93.544 82.8242 93.7742 82.7741 93.9747 82.6738C94.1752 82.5736 94.3438 82.4141 94.4805 82.1953C94.6173 81.972 94.7198 81.6826 94.7882 81.3271C94.8565 80.9717 94.8907 80.5456 94.8907 80.0488Z" fill="#1D1B20"/>
<path opacity="0.1" d="M395.5 73.4167C392.1 73.4167 389.125 74.9042 387 77.2417L395.5 87.5833L404 77.2417C401.875 74.9042 398.9 73.4167 395.5 73.4167Z" fill="#1D1B20"/>
<path d="M418.583 73.4167L404.417 87.5833H418.583V73.4167Z" fill="#1D1B20"/>
<path opacity="0.3" d="M430.5 73H427.5V74.5H426C425.448 74.5 425 75.0037 425 75.625V86.875C425 87.4963 425.448 88 426 88H432C432.552 88 433 87.4963 433 86.875V75.625C433 75.0037 432.552 74.5 432 74.5H430.5V73Z" fill="#1D1B20"/>
<path d="M425 81C425 81.5833 425 86.3667 425 86.95C425 87.5299 425.448 88 426 88H432C432.552 88 433 87.5299 433 86.95C433 86.3667 433 81.5833 433 81H425Z" fill="#1D1B20"/>
<path fill-rule="evenodd" clip-rule="evenodd" d="M251 65C244.373 65 239 70.3731 239 77C239 83.6269 244.373 89 251 89C257.627 89 263 83.6269 263 77C263 70.3731 257.627 65 251 65Z" fill="#1D1B20"/>
<rect x="197" y="925" width="108" height="4" rx="2" fill="#1D1B20"/>
</g>
<rect x="41" y="43" width="420" height="900" rx="22" stroke="#CAC4D0" stroke-width="8"/>
<path d="M502 985H0V0H502V985ZM45 47V939H457V47H45Z" fill="#D9D9D9"/>
<circle cx="381.5" cy="196.5" r="19.5" fill="#C0E1F4"/>
<path d="M369.38 180.51C375.137 180.51 380.199 186.946 383.12 196.678C383.983 196.561 384.864 196.5 385.76 196.5C396.529 196.5 405.26 205.231 405.26 216H353C353 196.4 360.334 180.51 369.38 180.51Z" fill="#9898AD"/>
<rect x="63.5" y="493.5" width="375" height="349" rx="22.5" fill="url(#paint1_linear_2004_465)" stroke="#8DB9D6" stroke-width="5"/>
<path d="M254.68 891.38C252.833 892.902 250.167 892.902 248.32 891.38L217.651 866.109C214.031 863.126 216.14 857.25 220.83 857.25H282.17C286.86 857.25 288.969 863.126 285.349 866.109L254.68 891.38Z" fill="#FAFAFF"/>
<path d="M187.512 273.094V276.592H173.924V273.094H187.512ZM175.014 262.406V288H170.602V262.406H175.014ZM190.904 262.406V288H186.51V262.406H190.904ZM204.483 288.352C203.077 288.352 201.805 288.123 200.669 287.666C199.544 287.197 198.583 286.547 197.786 285.715C197.001 284.883 196.397 283.904 195.975 282.779C195.553 281.654 195.342 280.441 195.342 279.141V278.438C195.342 276.949 195.559 275.602 195.993 274.395C196.426 273.188 197.03 272.156 197.803 271.301C198.577 270.434 199.491 269.771 200.546 269.314C201.6 268.857 202.743 268.629 203.973 268.629C205.333 268.629 206.522 268.857 207.542 269.314C208.561 269.771 209.405 270.416 210.073 271.248C210.753 272.068 211.256 273.047 211.585 274.184C211.924 275.32 212.094 276.574 212.094 277.945V279.756H197.399V276.715H207.911V276.381C207.887 275.619 207.735 274.904 207.454 274.236C207.184 273.568 206.768 273.029 206.206 272.619C205.643 272.209 204.893 272.004 203.956 272.004C203.253 272.004 202.626 272.156 202.075 272.461C201.536 272.754 201.085 273.182 200.721 273.744C200.358 274.307 200.077 274.986 199.878 275.783C199.69 276.568 199.596 277.453 199.596 278.438V279.141C199.596 279.973 199.708 280.746 199.93 281.461C200.165 282.164 200.505 282.779 200.95 283.307C201.395 283.834 201.934 284.25 202.567 284.555C203.2 284.848 203.921 284.994 204.729 284.994C205.749 284.994 206.657 284.789 207.454 284.379C208.251 283.969 208.942 283.389 209.528 282.639L211.76 284.801C211.35 285.398 210.817 285.973 210.161 286.523C209.505 287.062 208.702 287.502 207.753 287.842C206.815 288.182 205.725 288.352 204.483 288.352ZM221.033 285.926L226.2 268.98H230.736L223.107 290.9C222.931 291.369 222.702 291.879 222.421 292.43C222.14 292.98 221.771 293.502 221.314 293.994C220.868 294.498 220.312 294.902 219.644 295.207C218.976 295.523 218.167 295.682 217.218 295.682C216.843 295.682 216.48 295.646 216.128 295.576C215.788 295.518 215.466 295.453 215.161 295.383L215.144 292.148C215.261 292.16 215.402 292.172 215.566 292.184C215.741 292.195 215.882 292.201 215.988 292.201C216.691 292.201 217.277 292.113 217.745 291.938C218.214 291.773 218.595 291.504 218.888 291.129C219.193 290.754 219.45 290.25 219.661 289.617L221.033 285.926ZM218.115 268.98L222.632 283.219L223.388 287.684L220.452 288.439L213.544 268.98H218.115ZM251.565 268.98V272.074H240.842V268.98H251.565ZM243.936 264.322H248.172V282.744C248.172 283.33 248.254 283.781 248.419 284.098C248.594 284.402 248.835 284.607 249.139 284.713C249.444 284.818 249.801 284.871 250.211 284.871C250.504 284.871 250.786 284.854 251.055 284.818C251.325 284.783 251.542 284.748 251.706 284.713L251.723 287.947C251.372 288.053 250.961 288.146 250.493 288.229C250.036 288.311 249.508 288.352 248.911 288.352C247.938 288.352 247.077 288.182 246.327 287.842C245.577 287.49 244.991 286.922 244.569 286.137C244.147 285.352 243.936 284.309 243.936 283.008V264.322ZM259.378 261V288H255.159V261H259.378ZM258.64 277.787L257.269 277.77C257.28 276.457 257.462 275.244 257.814 274.131C258.177 273.018 258.681 272.051 259.325 271.23C259.982 270.398 260.767 269.76 261.681 269.314C262.595 268.857 263.609 268.629 264.722 268.629C265.659 268.629 266.503 268.758 267.253 269.016C268.015 269.273 268.671 269.689 269.222 270.264C269.773 270.826 270.189 271.564 270.47 272.479C270.763 273.381 270.909 274.482 270.909 275.783V288H266.655V275.748C266.655 274.834 266.521 274.107 266.251 273.568C265.993 273.029 265.613 272.643 265.109 272.408C264.605 272.162 263.989 272.039 263.263 272.039C262.501 272.039 261.827 272.191 261.241 272.496C260.667 272.801 260.187 273.217 259.8 273.744C259.413 274.271 259.12 274.881 258.921 275.572C258.734 276.264 258.64 277.002 258.64 277.787ZM283.943 288.352C282.537 288.352 281.265 288.123 280.129 287.666C279.004 287.197 278.043 286.547 277.246 285.715C276.461 284.883 275.857 283.904 275.435 282.779C275.014 281.654 274.803 280.441 274.803 279.141V278.438C274.803 276.949 275.019 275.602 275.453 274.395C275.887 273.188 276.49 272.156 277.264 271.301C278.037 270.434 278.951 269.771 280.006 269.314C281.06 268.857 282.203 268.629 283.433 268.629C284.793 268.629 285.982 268.857 287.002 269.314C288.021 269.771 288.865 270.416 289.533 271.248C290.213 272.068 290.717 273.047 291.045 274.184C291.385 275.32 291.555 276.574 291.555 277.945V279.756H276.859V276.715H287.371V276.381C287.348 275.619 287.195 274.904 286.914 274.236C286.644 273.568 286.228 273.029 285.666 272.619C285.103 272.209 284.353 272.004 283.416 272.004C282.713 272.004 282.086 272.156 281.535 272.461C280.996 272.754 280.545 273.182 280.181 273.744C279.818 274.307 279.537 274.986 279.338 275.783C279.15 276.568 279.056 277.453 279.056 278.438V279.141C279.056 279.973 279.168 280.746 279.39 281.461C279.625 282.164 279.965 282.779 280.41 283.307C280.855 283.834 281.394 284.25 282.027 284.555C282.66 284.848 283.381 284.994 284.189 284.994C285.209 284.994 286.117 284.789 286.914 284.379C287.711 283.969 288.402 283.389 288.988 282.639L291.221 284.801C290.81 285.398 290.277 285.973 289.621 286.523C288.965 287.062 288.162 287.502 287.213 287.842C286.275 288.182 285.185 288.352 283.943 288.352ZM299.473 272.602V288H295.237V268.98H299.28L299.473 272.602ZM305.291 268.857L305.256 272.795C304.999 272.748 304.717 272.713 304.413 272.689C304.12 272.666 303.827 272.654 303.534 272.654C302.807 272.654 302.168 272.76 301.618 272.971C301.067 273.17 300.604 273.463 300.229 273.85C299.866 274.225 299.584 274.682 299.385 275.221C299.186 275.76 299.069 276.363 299.034 277.031L298.067 277.102C298.067 275.906 298.184 274.799 298.418 273.779C298.653 272.76 299.004 271.863 299.473 271.09C299.954 270.316 300.551 269.713 301.266 269.279C301.993 268.846 302.831 268.629 303.78 268.629C304.038 268.629 304.313 268.652 304.606 268.699C304.911 268.746 305.139 268.799 305.291 268.857ZM316.339 288.352C314.933 288.352 313.661 288.123 312.525 287.666C311.4 287.197 310.439 286.547 309.642 285.715C308.857 284.883 308.253 283.904 307.831 282.779C307.409 281.654 307.198 280.441 307.198 279.141V278.438C307.198 276.949 307.415 275.602 307.849 274.395C308.282 273.188 308.886 272.156 309.659 271.301C310.433 270.434 311.347 269.771 312.401 269.314C313.456 268.857 314.599 268.629 315.829 268.629C317.189 268.629 318.378 268.857 319.398 269.314C320.417 269.771 321.261 270.416 321.929 271.248C322.609 272.068 323.112 273.047 323.441 274.184C323.78 275.32 323.95 276.574 323.95 277.945V279.756H309.255V276.715H319.767V276.381C319.743 275.619 319.591 274.904 319.31 274.236C319.04 273.568 318.624 273.029 318.062 272.619C317.499 272.209 316.749 272.004 315.812 272.004C315.109 272.004 314.482 272.156 313.931 272.461C313.392 272.754 312.941 273.182 312.577 273.744C312.214 274.307 311.933 274.986 311.734 275.783C311.546 276.568 311.452 277.453 311.452 278.438V279.141C311.452 279.973 311.564 280.746 311.786 281.461C312.021 282.164 312.36 282.779 312.806 283.307C313.251 283.834 313.79 284.25 314.423 284.555C315.056 284.848 315.776 284.994 316.585 284.994C317.605 284.994 318.513 284.789 319.31 284.379C320.107 283.969 320.798 283.389 321.384 282.639L323.616 284.801C323.206 285.398 322.673 285.973 322.017 286.523C321.36 287.062 320.558 287.502 319.609 287.842C318.671 288.182 317.581 288.352 316.339 288.352ZM332.502 262.406L332.08 280.459H328.459L328.019 262.406H332.502ZM327.896 285.996C327.896 285.352 328.107 284.812 328.529 284.379C328.963 283.934 329.56 283.711 330.322 283.711C331.072 283.711 331.664 283.934 332.097 284.379C332.531 284.812 332.748 285.352 332.748 285.996C332.748 286.617 332.531 287.15 332.097 287.596C331.664 288.029 331.072 288.246 330.322 288.246C329.56 288.246 328.963 288.029 328.529 287.596C328.107 287.15 327.896 286.617 327.896 285.996Z" fill="#FAFAFF"/>
<path d="M196.646 541.502V545H183.796V541.502H196.646ZM185.026 519.406V545H180.614V519.406H185.026ZM208.379 545.352C206.972 545.352 205.701 545.123 204.564 544.666C203.439 544.197 202.478 543.547 201.681 542.715C200.896 541.883 200.293 540.904 199.871 539.779C199.449 538.654 199.238 537.441 199.238 536.141V535.438C199.238 533.949 199.455 532.602 199.888 531.395C200.322 530.188 200.926 529.156 201.699 528.301C202.472 527.434 203.386 526.771 204.441 526.314C205.496 525.857 206.638 525.629 207.869 525.629C209.228 525.629 210.418 525.857 211.437 526.314C212.457 526.771 213.301 527.416 213.969 528.248C214.648 529.068 215.152 530.047 215.48 531.184C215.82 532.32 215.99 533.574 215.99 534.945V536.756H201.295V533.715H211.806V533.381C211.783 532.619 211.631 531.904 211.349 531.236C211.08 530.568 210.664 530.029 210.101 529.619C209.539 529.209 208.789 529.004 207.851 529.004C207.148 529.004 206.521 529.156 205.97 529.461C205.431 529.754 204.98 530.182 204.617 530.744C204.254 531.307 203.972 531.986 203.773 532.783C203.586 533.568 203.492 534.453 203.492 535.438V536.141C203.492 536.973 203.603 537.746 203.826 538.461C204.06 539.164 204.4 539.779 204.845 540.307C205.291 540.834 205.83 541.25 206.463 541.555C207.095 541.848 207.816 541.994 208.625 541.994C209.644 541.994 210.552 541.789 211.349 541.379C212.146 540.969 212.838 540.389 213.424 539.639L215.656 541.801C215.246 542.398 214.713 542.973 214.056 543.523C213.4 544.062 212.597 544.502 211.648 544.842C210.711 545.182 209.621 545.352 208.379 545.352ZM228.373 525.98V529.074H217.651V525.98H228.373ZM220.745 521.322H224.981V539.744C224.981 540.33 225.063 540.781 225.227 541.098C225.403 541.402 225.643 541.607 225.948 541.713C226.252 541.818 226.61 541.871 227.02 541.871C227.313 541.871 227.594 541.854 227.864 541.818C228.133 541.783 228.35 541.748 228.514 541.713L228.532 544.947C228.18 545.053 227.77 545.146 227.301 545.229C226.844 545.311 226.317 545.352 225.719 545.352C224.746 545.352 223.885 545.182 223.135 544.842C222.385 544.49 221.799 543.922 221.377 543.137C220.955 542.352 220.745 541.309 220.745 540.008V521.322ZM236.169 518V520.479C236.169 521.217 236.034 521.984 235.765 522.781C235.507 523.566 235.144 524.322 234.675 525.049C234.206 525.764 233.667 526.385 233.058 526.912L230.931 525.576C231.411 524.85 231.798 524.082 232.091 523.273C232.396 522.453 232.548 521.533 232.548 520.514V518H236.169ZM248.201 539.85C248.201 539.428 248.095 539.047 247.884 538.707C247.674 538.355 247.269 538.039 246.672 537.758C246.086 537.477 245.218 537.219 244.07 536.984C243.062 536.762 242.136 536.498 241.293 536.193C240.461 535.877 239.746 535.496 239.148 535.051C238.55 534.605 238.088 534.078 237.759 533.469C237.431 532.859 237.267 532.156 237.267 531.359C237.267 530.586 237.437 529.854 237.777 529.162C238.117 528.471 238.603 527.861 239.236 527.334C239.869 526.807 240.636 526.391 241.539 526.086C242.453 525.781 243.472 525.629 244.597 525.629C246.191 525.629 247.556 525.898 248.693 526.438C249.841 526.965 250.72 527.686 251.33 528.6C251.939 529.502 252.244 530.521 252.244 531.658H248.007C248.007 531.154 247.879 530.686 247.621 530.252C247.375 529.807 247 529.449 246.496 529.18C245.992 528.898 245.359 528.758 244.597 528.758C243.871 528.758 243.267 528.875 242.787 529.109C242.318 529.332 241.966 529.625 241.732 529.988C241.509 530.352 241.398 530.75 241.398 531.184C241.398 531.5 241.457 531.787 241.574 532.045C241.703 532.291 241.914 532.52 242.207 532.73C242.5 532.93 242.898 533.117 243.402 533.293C243.918 533.469 244.562 533.639 245.336 533.803C246.789 534.107 248.037 534.5 249.08 534.98C250.134 535.449 250.943 536.059 251.506 536.809C252.068 537.547 252.349 538.484 252.349 539.621C252.349 540.465 252.168 541.238 251.804 541.941C251.453 542.633 250.937 543.236 250.257 543.752C249.578 544.256 248.763 544.648 247.814 544.93C246.877 545.211 245.822 545.352 244.65 545.352C242.927 545.352 241.468 545.047 240.273 544.438C239.078 543.816 238.17 543.025 237.549 542.064C236.939 541.092 236.634 540.084 236.634 539.041H240.73C240.777 539.826 240.994 540.453 241.381 540.922C241.779 541.379 242.271 541.713 242.857 541.924C243.455 542.123 244.07 542.223 244.703 542.223C245.465 542.223 246.103 542.123 246.619 541.924C247.134 541.713 247.527 541.432 247.797 541.08C248.066 540.717 248.201 540.307 248.201 539.85ZM274.462 525.98V529.074H263.739V525.98H274.462ZM266.833 521.322H271.069V539.744C271.069 540.33 271.151 540.781 271.315 541.098C271.491 541.402 271.731 541.607 272.036 541.713C272.341 541.818 272.698 541.871 273.108 541.871C273.401 541.871 273.683 541.854 273.952 541.818C274.222 541.783 274.438 541.748 274.603 541.713L274.62 544.947C274.269 545.053 273.858 545.146 273.39 545.229C272.933 545.311 272.405 545.352 271.808 545.352C270.835 545.352 269.974 545.182 269.224 544.842C268.474 544.49 267.888 543.922 267.466 543.137C267.044 542.352 266.833 541.309 266.833 540.008V521.322ZM288.814 541.186V532.115C288.814 531.436 288.691 530.85 288.445 530.357C288.199 529.865 287.824 529.484 287.32 529.215C286.828 528.945 286.207 528.811 285.457 528.811C284.765 528.811 284.168 528.928 283.664 529.162C283.16 529.396 282.767 529.713 282.486 530.111C282.205 530.51 282.064 530.961 282.064 531.465H277.845C277.845 530.715 278.027 529.988 278.39 529.285C278.754 528.582 279.281 527.955 279.972 527.404C280.664 526.854 281.49 526.42 282.451 526.104C283.412 525.787 284.49 525.629 285.685 525.629C287.115 525.629 288.38 525.869 289.482 526.35C290.595 526.83 291.468 527.557 292.101 528.529C292.746 529.49 293.068 530.697 293.068 532.15V540.605C293.068 541.473 293.127 542.252 293.244 542.943C293.373 543.623 293.554 544.215 293.789 544.719V545H289.447C289.248 544.543 289.089 543.963 288.972 543.26C288.867 542.545 288.814 541.854 288.814 541.186ZM289.429 533.434L289.464 536.053H286.423C285.638 536.053 284.947 536.129 284.349 536.281C283.752 536.422 283.254 536.633 282.855 536.914C282.457 537.195 282.158 537.535 281.959 537.934C281.759 538.332 281.66 538.783 281.66 539.287C281.66 539.791 281.777 540.254 282.011 540.676C282.246 541.086 282.586 541.408 283.031 541.643C283.488 541.877 284.039 541.994 284.683 541.994C285.55 541.994 286.306 541.818 286.951 541.467C287.607 541.104 288.123 540.664 288.498 540.148C288.873 539.621 289.072 539.123 289.095 538.654L290.466 540.535C290.326 541.016 290.086 541.531 289.746 542.082C289.406 542.633 288.961 543.16 288.41 543.664C287.871 544.156 287.22 544.561 286.459 544.877C285.709 545.193 284.841 545.352 283.857 545.352C282.615 545.352 281.507 545.105 280.535 544.613C279.562 544.109 278.8 543.436 278.25 542.592C277.699 541.736 277.423 540.77 277.423 539.691C277.423 538.684 277.611 537.793 277.986 537.02C278.373 536.234 278.935 535.578 279.673 535.051C280.423 534.523 281.337 534.125 282.416 533.855C283.494 533.574 284.724 533.434 286.107 533.434H289.429ZM302.393 518V545H298.139V518H302.393ZM311.665 518V545H307.411V518H311.665ZM323.477 525.98L315.198 535.156L310.663 539.797L309.556 536.211L312.983 531.975L318.362 525.98H323.477ZM319.276 545L313.106 536.07L315.778 533.1L324.181 545H319.276ZM198.574 581.977C199.266 581.977 199.887 581.842 200.438 581.572C201 581.291 201.451 580.904 201.791 580.412C202.143 579.92 202.336 579.352 202.371 578.707H206.361C206.338 579.938 205.975 581.057 205.272 582.064C204.568 583.072 203.637 583.875 202.477 584.473C201.316 585.059 200.033 585.352 198.627 585.352C197.174 585.352 195.908 585.105 194.83 584.613C193.752 584.109 192.856 583.418 192.141 582.539C191.426 581.66 190.887 580.646 190.524 579.498C190.172 578.35 189.996 577.119 189.996 575.807V575.191C189.996 573.879 190.172 572.648 190.524 571.5C190.887 570.34 191.426 569.32 192.141 568.441C192.856 567.562 193.752 566.877 194.83 566.385C195.908 565.881 197.168 565.629 198.609 565.629C200.133 565.629 201.469 565.934 202.617 566.543C203.766 567.141 204.668 567.979 205.324 569.057C205.992 570.123 206.338 571.365 206.361 572.783H202.371C202.336 572.08 202.16 571.447 201.844 570.885C201.539 570.311 201.106 569.854 200.543 569.514C199.992 569.174 199.33 569.004 198.557 569.004C197.701 569.004 196.992 569.18 196.43 569.531C195.867 569.871 195.428 570.34 195.111 570.938C194.795 571.523 194.566 572.186 194.426 572.924C194.297 573.65 194.232 574.406 194.232 575.191V575.807C194.232 576.592 194.297 577.354 194.426 578.092C194.555 578.83 194.777 579.492 195.094 580.078C195.422 580.652 195.867 581.115 196.43 581.467C196.992 581.807 197.707 581.977 198.574 581.977ZM209.165 575.701V575.297C209.165 573.926 209.364 572.654 209.762 571.482C210.161 570.299 210.735 569.273 211.485 568.406C212.247 567.527 213.173 566.848 214.262 566.367C215.364 565.875 216.606 565.629 217.989 565.629C219.384 565.629 220.626 565.875 221.716 566.367C222.817 566.848 223.749 567.527 224.51 568.406C225.272 569.273 225.852 570.299 226.251 571.482C226.649 572.654 226.848 573.926 226.848 575.297V575.701C226.848 577.072 226.649 578.344 226.251 579.516C225.852 580.688 225.272 581.713 224.51 582.592C223.749 583.459 222.823 584.139 221.733 584.631C220.643 585.111 219.407 585.352 218.024 585.352C216.63 585.352 215.382 585.111 214.28 584.631C213.19 584.139 212.264 583.459 211.503 582.592C210.741 581.713 210.161 580.688 209.762 579.516C209.364 578.344 209.165 577.072 209.165 575.701ZM213.401 575.297V575.701C213.401 576.557 213.489 577.365 213.665 578.127C213.841 578.889 214.116 579.557 214.491 580.131C214.866 580.705 215.346 581.156 215.932 581.484C216.518 581.812 217.216 581.977 218.024 581.977C218.809 581.977 219.489 581.812 220.063 581.484C220.649 581.156 221.13 580.705 221.505 580.131C221.88 579.557 222.155 578.889 222.331 578.127C222.518 577.365 222.612 576.557 222.612 575.701V575.297C222.612 574.453 222.518 573.656 222.331 572.906C222.155 572.145 221.874 571.471 221.487 570.885C221.112 570.299 220.632 569.842 220.046 569.514C219.471 569.174 218.786 569.004 217.989 569.004C217.192 569.004 216.501 569.174 215.915 569.514C215.341 569.842 214.866 570.299 214.491 570.885C214.116 571.471 213.841 572.145 213.665 572.906C213.489 573.656 213.401 574.453 213.401 575.297ZM234.96 570.041V585H230.724V565.98H234.714L234.96 570.041ZM234.204 574.787L232.833 574.77C232.845 573.422 233.033 572.186 233.396 571.061C233.771 569.936 234.286 568.969 234.943 568.16C235.611 567.352 236.408 566.73 237.333 566.297C238.259 565.852 239.29 565.629 240.427 565.629C241.341 565.629 242.167 565.758 242.906 566.016C243.656 566.262 244.294 566.666 244.822 567.229C245.361 567.791 245.771 568.523 246.052 569.426C246.333 570.316 246.474 571.412 246.474 572.713V585H242.22V572.695C242.22 571.781 242.085 571.061 241.816 570.533C241.558 569.994 241.177 569.613 240.673 569.391C240.181 569.156 239.566 569.039 238.827 569.039C238.101 569.039 237.451 569.191 236.876 569.496C236.302 569.801 235.816 570.217 235.417 570.744C235.031 571.271 234.732 571.881 234.521 572.572C234.31 573.264 234.204 574.002 234.204 574.787ZM259.877 565.98V569.074H249.154V565.98H259.877ZM252.248 561.322H256.484V579.744C256.484 580.33 256.566 580.781 256.73 581.098C256.906 581.402 257.146 581.607 257.451 581.713C257.756 581.818 258.113 581.871 258.523 581.871C258.816 581.871 259.098 581.854 259.367 581.818C259.637 581.783 259.854 581.748 260.018 581.713L260.035 584.947C259.684 585.053 259.273 585.146 258.805 585.229C258.348 585.311 257.82 585.352 257.223 585.352C256.25 585.352 255.389 585.182 254.639 584.842C253.889 584.49 253.303 583.922 252.881 583.137C252.459 582.352 252.248 581.309 252.248 580.008V561.322ZM271.891 585.352C270.485 585.352 269.214 585.123 268.077 584.666C266.952 584.197 265.991 583.547 265.194 582.715C264.409 581.883 263.805 580.904 263.383 579.779C262.962 578.654 262.751 577.441 262.751 576.141V575.438C262.751 573.949 262.967 572.602 263.401 571.395C263.835 570.188 264.438 569.156 265.212 568.301C265.985 567.434 266.899 566.771 267.954 566.314C269.008 565.857 270.151 565.629 271.381 565.629C272.741 565.629 273.93 565.857 274.95 566.314C275.969 566.771 276.813 567.416 277.481 568.248C278.161 569.068 278.665 570.047 278.993 571.184C279.333 572.32 279.503 573.574 279.503 574.945V576.756H264.807V573.715H275.319V573.381C275.296 572.619 275.143 571.904 274.862 571.236C274.592 570.568 274.176 570.029 273.614 569.619C273.051 569.209 272.301 569.004 271.364 569.004C270.661 569.004 270.034 569.156 269.483 569.461C268.944 569.754 268.493 570.182 268.13 570.744C267.766 571.307 267.485 571.986 267.286 572.783C267.098 573.568 267.005 574.453 267.005 575.438V576.141C267.005 576.973 267.116 577.746 267.339 578.461C267.573 579.164 267.913 579.779 268.358 580.307C268.803 580.834 269.342 581.25 269.975 581.555C270.608 581.848 271.329 581.994 272.137 581.994C273.157 581.994 274.065 581.789 274.862 581.379C275.659 580.969 276.35 580.389 276.936 579.639L279.169 581.801C278.758 582.398 278.225 582.973 277.569 583.523C276.913 584.062 276.11 584.502 275.161 584.842C274.223 585.182 273.133 585.352 271.891 585.352ZM287.368 570.041V585H283.132V565.98H287.122L287.368 570.041ZM286.613 574.787L285.241 574.77C285.253 573.422 285.441 572.186 285.804 571.061C286.179 569.936 286.695 568.969 287.351 568.16C288.019 567.352 288.816 566.73 289.741 566.297C290.667 565.852 291.699 565.629 292.835 565.629C293.749 565.629 294.575 565.758 295.314 566.016C296.064 566.262 296.702 566.666 297.23 567.229C297.769 567.791 298.179 568.523 298.46 569.426C298.741 570.316 298.882 571.412 298.882 572.713V585H294.628V572.695C294.628 571.781 294.493 571.061 294.224 570.533C293.966 569.994 293.585 569.613 293.081 569.391C292.589 569.156 291.974 569.039 291.236 569.039C290.509 569.039 289.859 569.191 289.284 569.496C288.71 569.801 288.224 570.217 287.825 570.744C287.439 571.271 287.14 571.881 286.929 572.572C286.718 573.264 286.613 574.002 286.613 574.787ZM312.285 565.98V569.074H301.562V565.98H312.285ZM304.656 561.322H308.893V579.744C308.893 580.33 308.975 580.781 309.139 581.098C309.314 581.402 309.555 581.607 309.859 581.713C310.164 581.818 310.521 581.871 310.932 581.871C311.225 581.871 311.506 581.854 311.775 581.818C312.045 581.783 312.262 581.748 312.426 581.713L312.443 584.947C312.092 585.053 311.682 585.146 311.213 585.229C310.756 585.311 310.228 585.352 309.631 585.352C308.658 585.352 307.797 585.182 307.047 584.842C306.297 584.49 305.711 583.922 305.289 583.137C304.867 582.352 304.656 581.309 304.656 580.008V561.322Z" fill="#FAFAFF"/>
<defs>
<linearGradient id="paint0_linear_2004_465" x1="251" y1="216" x2="251" y2="985" gradientUnits="userSpaceOnUse">
<stop stop-color="#3E3E4F"/>
<stop offset="1" stop-color="#020210"/>
</linearGradient>
<linearGradient id="paint1_linear_2004_465" x1="251" y1="491" x2="251" y2="845" gradientUnits="userSpaceOnUse">
<stop stop-color="#2E5C7D"/>
<stop offset="1" stop-color="#021D28"/>
</linearGradient>
<clipPath id="clip0_2004_465">
<rect x="45" y="47" width="412" height="892" rx="18" fill="white"/>
</clipPath>
</defs>
</svg>
