<svg width="502" height="985" viewBox="0 0 502 985" fill="none" xmlns="http://www.w3.org/2000/svg">
<rect y="47" width="502" height="112" fill="#7F7F7F"/>
<rect y="216" width="502" height="769" fill="url(#paint0_linear_2008_490)"/>
<rect y="159" width="502" height="57" fill="#271602"/>
<g clip-path="url(#clip0_2008_490)">
<path d="M71.0781 82.7012H71.2148C71.8438 82.7012 72.3678 82.6191 72.7871 82.4551C73.2109 82.2865 73.5482 82.054 73.7988 81.7578C74.0495 81.4616 74.2295 81.113 74.3389 80.7119C74.4482 80.3109 74.5029 79.8757 74.5029 79.4062V77.6904C74.5029 77.2848 74.4596 76.9294 74.373 76.624C74.291 76.3141 74.1725 76.0566 74.0176 75.8516C73.8672 75.6419 73.6917 75.4847 73.4912 75.3799C73.2952 75.2751 73.0833 75.2227 72.8555 75.2227C72.6048 75.2227 72.3792 75.2796 72.1787 75.3936C71.9827 75.5029 71.8164 75.6556 71.6797 75.8516C71.5475 76.043 71.445 76.2686 71.3721 76.5283C71.3037 76.7835 71.2695 77.057 71.2695 77.3486C71.2695 77.6221 71.3014 77.8864 71.3652 78.1416C71.4336 78.3923 71.5339 78.6156 71.666 78.8115C71.7982 79.0075 71.9645 79.1624 72.165 79.2764C72.3656 79.3903 72.6003 79.4473 72.8691 79.4473C73.1243 79.4473 73.359 79.3994 73.5732 79.3037C73.7874 79.2035 73.9743 79.069 74.1338 78.9004C74.2933 78.7318 74.4186 78.5426 74.5098 78.333C74.6009 78.1234 74.651 77.9092 74.6602 77.6904L75.2891 77.8818C75.2891 78.2282 75.2161 78.57 75.0703 78.9072C74.929 79.2399 74.7308 79.5452 74.4756 79.8232C74.2249 80.0967 73.931 80.3154 73.5938 80.4795C73.2611 80.6436 72.8988 80.7256 72.5068 80.7256C72.0329 80.7256 71.6136 80.6367 71.249 80.459C70.889 80.2767 70.5882 80.0306 70.3467 79.7207C70.1097 79.4108 69.932 79.0553 69.8135 78.6543C69.695 78.2533 69.6357 77.8317 69.6357 77.3896C69.6357 76.9111 69.7087 76.4622 69.8545 76.043C70.0003 75.6237 70.2122 75.2546 70.4902 74.9355C70.7682 74.612 71.1055 74.3613 71.502 74.1836C71.903 74.0013 72.3564 73.9102 72.8623 73.9102C73.4001 73.9102 73.8717 74.015 74.2773 74.2246C74.6829 74.4342 75.0247 74.7236 75.3027 75.0928C75.5807 75.4619 75.7904 75.8903 75.9316 76.3779C76.0729 76.8656 76.1436 77.3896 76.1436 77.9502V78.5312C76.1436 79.1191 76.0911 79.6865 75.9863 80.2334C75.8815 80.7757 75.7106 81.2793 75.4736 81.7441C75.2412 82.2044 74.9336 82.61 74.5508 82.9609C74.1725 83.3073 73.7077 83.5785 73.1562 83.7744C72.6094 83.9658 71.9668 84.0615 71.2285 84.0615H71.0781V82.7012ZM78.1019 83.1797C78.1019 82.9245 78.1885 82.7103 78.3617 82.5371C78.5349 82.3594 78.7696 82.2705 79.0658 82.2705C79.3666 82.2705 79.6013 82.3594 79.7699 82.5371C79.9431 82.7103 80.0296 82.9245 80.0296 83.1797C80.0296 83.4349 79.9431 83.6491 79.7699 83.8223C79.6013 83.9954 79.3666 84.082 79.0658 84.082C78.7696 84.082 78.5349 83.9954 78.3617 83.8223C78.1885 83.6491 78.1019 83.4349 78.1019 83.1797ZM78.1088 77.3555C78.1088 77.1003 78.1953 76.8861 78.3685 76.7129C78.5417 76.5352 78.7764 76.4463 79.0726 76.4463C79.3734 76.4463 79.6081 76.5352 79.7767 76.7129C79.9499 76.8861 80.0365 77.1003 80.0365 77.3555C80.0365 77.6107 79.9499 77.8249 79.7767 77.998C79.6081 78.1712 79.3734 78.2578 79.0726 78.2578C78.7764 78.2578 78.5417 78.1712 78.3685 77.998C78.1953 77.8249 78.1088 77.6107 78.1088 77.3555ZM83.7517 78.2783H84.7361C85.1189 78.2783 85.4356 78.2122 85.6862 78.0801C85.9415 77.9479 86.1306 77.7656 86.2536 77.5332C86.3767 77.3008 86.4382 77.0342 86.4382 76.7334C86.4382 76.4189 86.3812 76.1501 86.2673 75.9268C86.1579 75.6989 85.9893 75.5234 85.7614 75.4004C85.5381 75.2773 85.2533 75.2158 84.907 75.2158C84.6153 75.2158 84.351 75.2751 84.114 75.3936C83.8816 75.5075 83.697 75.6715 83.5603 75.8857C83.4236 76.0954 83.3552 76.346 83.3552 76.6377H81.7009C81.7009 76.109 81.8399 75.6396 82.1179 75.2295C82.3959 74.8193 82.7741 74.498 83.2527 74.2656C83.7357 74.0286 84.278 73.9102 84.8796 73.9102C85.5222 73.9102 86.0827 74.0173 86.5612 74.2314C87.0443 74.4411 87.4203 74.7555 87.6892 75.1748C87.9581 75.5941 88.0925 76.1136 88.0925 76.7334C88.0925 77.016 88.0264 77.3031 87.8943 77.5947C87.7621 77.8864 87.5661 78.153 87.3064 78.3945C87.0466 78.6315 86.723 78.8252 86.3357 78.9756C85.9483 79.1214 85.4994 79.1943 84.989 79.1943H83.7517V78.2783ZM83.7517 79.5635V78.6611H84.989C85.5723 78.6611 86.0691 78.7295 86.4792 78.8662C86.8939 79.0029 87.2312 79.1921 87.4909 79.4336C87.7507 79.6706 87.9398 79.9417 88.0583 80.2471C88.1814 80.5524 88.2429 80.876 88.2429 81.2178C88.2429 81.6826 88.1586 82.0973 87.99 82.4619C87.8259 82.8219 87.5912 83.1273 87.2859 83.3779C86.9805 83.6286 86.6228 83.8177 86.2126 83.9453C85.807 84.0729 85.365 84.1367 84.8864 84.1367C84.4581 84.1367 84.0479 84.0775 83.656 83.959C83.264 83.8405 82.9131 83.665 82.6032 83.4326C82.2933 83.1956 82.0473 82.9017 81.865 82.5508C81.6872 82.1953 81.5984 81.7852 81.5984 81.3203H83.2458C83.2458 81.6165 83.3142 81.8786 83.4509 82.1064C83.5922 82.3298 83.7881 82.5052 84.0388 82.6328C84.294 82.7604 84.5857 82.8242 84.9138 82.8242C85.2601 82.8242 85.5586 82.7627 85.8093 82.6396C86.0599 82.5166 86.2514 82.3343 86.3835 82.0928C86.5202 81.8512 86.5886 81.5596 86.5886 81.2178C86.5886 80.8304 86.5134 80.516 86.363 80.2744C86.2126 80.0329 85.9984 79.8551 85.7204 79.7412C85.4424 79.6227 85.1143 79.5635 84.7361 79.5635H83.7517ZM96.5382 78.1895V79.8164C96.5382 80.5957 96.4607 81.2611 96.3057 81.8125C96.1554 82.3594 95.9366 82.8037 95.6495 83.1455C95.3624 83.4873 95.0183 83.738 94.6173 83.8975C94.2208 84.057 93.7764 84.1367 93.2843 84.1367C92.8923 84.1367 92.5277 84.0866 92.1905 83.9863C91.8578 83.8861 91.557 83.7288 91.2882 83.5146C91.0193 83.3005 90.7891 83.0247 90.5977 82.6875C90.4109 82.3457 90.2651 81.9378 90.1602 81.4639C90.06 80.9899 90.0098 80.4408 90.0098 79.8164V78.1895C90.0098 77.4056 90.0873 76.7448 90.2423 76.207C90.3972 75.6647 90.6182 75.2249 90.9054 74.8877C91.1925 74.5459 91.5343 74.2975 91.9307 74.1426C92.3318 73.9876 92.7784 73.9102 93.2706 73.9102C93.6671 73.9102 94.0317 73.9603 94.3643 74.0605C94.7016 74.1562 95.0024 74.3089 95.2667 74.5186C95.5356 74.7282 95.7634 75.0016 95.9503 75.3389C96.1417 75.6715 96.2875 76.0749 96.3878 76.5488C96.488 77.0182 96.5382 77.5651 96.5382 78.1895ZM94.8907 80.0488V77.9434C94.8907 77.5469 94.8679 77.1982 94.8223 76.8975C94.7768 76.5921 94.7084 76.3346 94.6173 76.125C94.5307 75.9108 94.4213 75.7376 94.2891 75.6055C94.157 75.4688 94.0066 75.3708 93.838 75.3115C93.6693 75.2477 93.4802 75.2158 93.2706 75.2158C93.0154 75.2158 92.7875 75.266 92.587 75.3662C92.3865 75.4619 92.2179 75.6169 92.0811 75.8311C91.9444 76.0452 91.8396 76.3278 91.7667 76.6787C91.6983 77.0251 91.6641 77.4466 91.6641 77.9434V80.0488C91.6641 80.4499 91.6869 80.8031 91.7325 81.1084C91.7781 81.4137 91.8464 81.6758 91.9376 81.8945C92.0287 82.1087 92.1381 82.2865 92.2657 82.4277C92.3979 82.5645 92.5483 82.6647 92.7169 82.7285C92.8901 82.7923 93.0792 82.8242 93.2843 82.8242C93.544 82.8242 93.7742 82.7741 93.9747 82.6738C94.1752 82.5736 94.3438 82.4141 94.4805 82.1953C94.6173 81.972 94.7198 81.6826 94.7882 81.3271C94.8565 80.9717 94.8907 80.5456 94.8907 80.0488Z" fill="#1D1B20"/>
<path opacity="0.1" d="M395.5 73.4167C392.1 73.4167 389.125 74.9042 387 77.2417L395.5 87.5833L404 77.2417C401.875 74.9042 398.9 73.4167 395.5 73.4167Z" fill="#1D1B20"/>
<path d="M418.583 73.4167L404.417 87.5833H418.583V73.4167Z" fill="#1D1B20"/>
<path opacity="0.3" d="M430.5 73H427.5V74.5H426C425.448 74.5 425 75.0037 425 75.625V86.875C425 87.4963 425.448 88 426 88H432C432.552 88 433 87.4963 433 86.875V75.625C433 75.0037 432.552 74.5 432 74.5H430.5V73Z" fill="#1D1B20"/>
<path d="M425 81C425 81.5833 425 86.3667 425 86.95C425 87.5299 425.448 88 426 88H432C432.552 88 433 87.5299 433 86.95C433 86.3667 433 81.5833 433 81H425Z" fill="#1D1B20"/>
<path fill-rule="evenodd" clip-rule="evenodd" d="M251 65C244.373 65 239 70.3731 239 77C239 83.6269 244.373 89 251 89C257.627 89 263 83.6269 263 77C263 70.3731 257.627 65 251 65Z" fill="#1D1B20"/>
<rect x="197" y="925" width="108" height="4" rx="2" fill="#1D1B20"/>
</g>
<rect x="41" y="43" width="420" height="900" rx="22" stroke="#CAC4D0" stroke-width="8"/>
<path d="M502 985H0V0H502V985ZM45 47V939H457V47H45Z" fill="#D9D9D9"/>
<circle cx="381.5" cy="196.5" r="19.5" fill="#FFF0D6"/>
<path fill-rule="evenodd" clip-rule="evenodd" d="M369.38 180.51C375.137 180.51 380.199 186.946 383.12 196.678C383.983 196.561 384.864 196.5 385.76 196.5C396.529 196.5 405.26 205.231 405.26 216H353C353 196.4 360.334 180.51 369.38 180.51Z" fill="#9898AD"/>
<path d="M186.512 273.094V276.592H172.924V273.094H186.512ZM174.014 262.406V288H169.602V262.406H174.014ZM189.904 262.406V288H185.51V262.406H189.904ZM203.483 288.352C202.077 288.352 200.805 288.123 199.669 287.666C198.544 287.197 197.583 286.547 196.786 285.715C196.001 284.883 195.397 283.904 194.975 282.779C194.553 281.654 194.342 280.441 194.342 279.141V278.438C194.342 276.949 194.559 275.602 194.993 274.395C195.426 273.188 196.03 272.156 196.803 271.301C197.577 270.434 198.491 269.771 199.546 269.314C200.6 268.857 201.743 268.629 202.973 268.629C204.333 268.629 205.522 268.857 206.542 269.314C207.561 269.771 208.405 270.416 209.073 271.248C209.753 272.068 210.256 273.047 210.585 274.184C210.924 275.32 211.094 276.574 211.094 277.945V279.756H196.399V276.715H206.911V276.381C206.887 275.619 206.735 274.904 206.454 274.236C206.184 273.568 205.768 273.029 205.206 272.619C204.643 272.209 203.893 272.004 202.956 272.004C202.253 272.004 201.626 272.156 201.075 272.461C200.536 272.754 200.085 273.182 199.721 273.744C199.358 274.307 199.077 274.986 198.878 275.783C198.69 276.568 198.596 277.453 198.596 278.438V279.141C198.596 279.973 198.708 280.746 198.93 281.461C199.165 282.164 199.505 282.779 199.95 283.307C200.395 283.834 200.934 284.25 201.567 284.555C202.2 284.848 202.921 284.994 203.729 284.994C204.749 284.994 205.657 284.789 206.454 284.379C207.251 283.969 207.942 283.389 208.528 282.639L210.76 284.801C210.35 285.398 209.817 285.973 209.161 286.523C208.505 287.062 207.702 287.502 206.753 287.842C205.815 288.182 204.725 288.352 203.483 288.352ZM220.033 285.926L225.2 268.98H229.736L222.107 290.9C221.931 291.369 221.702 291.879 221.421 292.43C221.14 292.98 220.771 293.502 220.314 293.994C219.868 294.498 219.312 294.902 218.644 295.207C217.976 295.523 217.167 295.682 216.218 295.682C215.843 295.682 215.48 295.646 215.128 295.576C214.788 295.518 214.466 295.453 214.161 295.383L214.144 292.148C214.261 292.16 214.402 292.172 214.566 292.184C214.741 292.195 214.882 292.201 214.988 292.201C215.691 292.201 216.277 292.113 216.745 291.938C217.214 291.773 217.595 291.504 217.888 291.129C218.193 290.754 218.45 290.25 218.661 289.617L220.033 285.926ZM217.115 268.98L221.632 283.219L222.388 287.684L219.452 288.439L212.544 268.98H217.115ZM250.565 268.98V272.074H239.842V268.98H250.565ZM242.936 264.322H247.172V282.744C247.172 283.33 247.254 283.781 247.419 284.098C247.594 284.402 247.835 284.607 248.139 284.713C248.444 284.818 248.801 284.871 249.211 284.871C249.504 284.871 249.786 284.854 250.055 284.818C250.325 284.783 250.542 284.748 250.706 284.713L250.723 287.947C250.372 288.053 249.961 288.146 249.493 288.229C249.036 288.311 248.508 288.352 247.911 288.352C246.938 288.352 246.077 288.182 245.327 287.842C244.577 287.49 243.991 286.922 243.569 286.137C243.147 285.352 242.936 284.309 242.936 283.008V264.322ZM258.378 261V288H254.159V261H258.378ZM257.64 277.787L256.269 277.77C256.28 276.457 256.462 275.244 256.814 274.131C257.177 273.018 257.681 272.051 258.325 271.23C258.982 270.398 259.767 269.76 260.681 269.314C261.595 268.857 262.609 268.629 263.722 268.629C264.659 268.629 265.503 268.758 266.253 269.016C267.015 269.273 267.671 269.689 268.222 270.264C268.773 270.826 269.189 271.564 269.47 272.479C269.763 273.381 269.909 274.482 269.909 275.783V288H265.655V275.748C265.655 274.834 265.521 274.107 265.251 273.568C264.993 273.029 264.613 272.643 264.109 272.408C263.605 272.162 262.989 272.039 262.263 272.039C261.501 272.039 260.827 272.191 260.241 272.496C259.667 272.801 259.187 273.217 258.8 273.744C258.413 274.271 258.12 274.881 257.921 275.572C257.734 276.264 257.64 277.002 257.64 277.787ZM282.943 288.352C281.537 288.352 280.265 288.123 279.129 287.666C278.004 287.197 277.043 286.547 276.246 285.715C275.461 284.883 274.857 283.904 274.435 282.779C274.014 281.654 273.803 280.441 273.803 279.141V278.438C273.803 276.949 274.019 275.602 274.453 274.395C274.887 273.188 275.49 272.156 276.264 271.301C277.037 270.434 277.951 269.771 279.006 269.314C280.06 268.857 281.203 268.629 282.433 268.629C283.793 268.629 284.982 268.857 286.002 269.314C287.021 269.771 287.865 270.416 288.533 271.248C289.213 272.068 289.717 273.047 290.045 274.184C290.385 275.32 290.555 276.574 290.555 277.945V279.756H275.859V276.715H286.371V276.381C286.348 275.619 286.195 274.904 285.914 274.236C285.644 273.568 285.228 273.029 284.666 272.619C284.103 272.209 283.353 272.004 282.416 272.004C281.713 272.004 281.086 272.156 280.535 272.461C279.996 272.754 279.545 273.182 279.181 273.744C278.818 274.307 278.537 274.986 278.338 275.783C278.15 276.568 278.056 277.453 278.056 278.438V279.141C278.056 279.973 278.168 280.746 278.39 281.461C278.625 282.164 278.965 282.779 279.41 283.307C279.855 283.834 280.394 284.25 281.027 284.555C281.66 284.848 282.381 284.994 283.189 284.994C284.209 284.994 285.117 284.789 285.914 284.379C286.711 283.969 287.402 283.389 287.988 282.639L290.221 284.801C289.81 285.398 289.277 285.973 288.621 286.523C287.965 287.062 287.162 287.502 286.213 287.842C285.275 288.182 284.185 288.352 282.943 288.352ZM298.473 272.602V288H294.237V268.98H298.28L298.473 272.602ZM304.291 268.857L304.256 272.795C303.999 272.748 303.717 272.713 303.413 272.689C303.12 272.666 302.827 272.654 302.534 272.654C301.807 272.654 301.168 272.76 300.618 272.971C300.067 273.17 299.604 273.463 299.229 273.85C298.866 274.225 298.584 274.682 298.385 275.221C298.186 275.76 298.069 276.363 298.034 277.031L297.067 277.102C297.067 275.906 297.184 274.799 297.418 273.779C297.653 272.76 298.004 271.863 298.473 271.09C298.954 270.316 299.551 269.713 300.266 269.279C300.993 268.846 301.831 268.629 302.78 268.629C303.038 268.629 303.313 268.652 303.606 268.699C303.911 268.746 304.139 268.799 304.291 268.857ZM315.339 288.352C313.933 288.352 312.661 288.123 311.525 287.666C310.4 287.197 309.439 286.547 308.642 285.715C307.857 284.883 307.253 283.904 306.831 282.779C306.409 281.654 306.198 280.441 306.198 279.141V278.438C306.198 276.949 306.415 275.602 306.849 274.395C307.282 273.188 307.886 272.156 308.659 271.301C309.433 270.434 310.347 269.771 311.401 269.314C312.456 268.857 313.599 268.629 314.829 268.629C316.189 268.629 317.378 268.857 318.398 269.314C319.417 269.771 320.261 270.416 320.929 271.248C321.609 272.068 322.112 273.047 322.441 274.184C322.78 275.32 322.95 276.574 322.95 277.945V279.756H308.255V276.715H318.767V276.381C318.743 275.619 318.591 274.904 318.31 274.236C318.04 273.568 317.624 273.029 317.062 272.619C316.499 272.209 315.749 272.004 314.812 272.004C314.109 272.004 313.482 272.156 312.931 272.461C312.392 272.754 311.941 273.182 311.577 273.744C311.214 274.307 310.933 274.986 310.734 275.783C310.546 276.568 310.452 277.453 310.452 278.438V279.141C310.452 279.973 310.564 280.746 310.786 281.461C311.021 282.164 311.36 282.779 311.806 283.307C312.251 283.834 312.79 284.25 313.423 284.555C314.056 284.848 314.776 284.994 315.585 284.994C316.605 284.994 317.513 284.789 318.31 284.379C319.107 283.969 319.798 283.389 320.384 282.639L322.616 284.801C322.206 285.398 321.673 285.973 321.017 286.523C320.36 287.062 319.558 287.502 318.609 287.842C317.671 288.182 316.581 288.352 315.339 288.352ZM331.502 262.406L331.08 280.459H327.459L327.019 262.406H331.502ZM326.896 285.996C326.896 285.352 327.107 284.812 327.529 284.379C327.963 283.934 328.56 283.711 329.322 283.711C330.072 283.711 330.664 283.934 331.097 284.379C331.531 284.812 331.748 285.352 331.748 285.996C331.748 286.617 331.531 287.15 331.097 287.596C330.664 288.029 330.072 288.246 329.322 288.246C328.56 288.246 327.963 288.029 327.529 287.596C327.107 287.15 326.896 286.617 326.896 285.996Z" fill="#FAFAFF"/>
<rect x="63.5" y="493.5" width="375" height="349" rx="22.5" fill="url(#paint1_linear_2008_490)" stroke="#CEA962" stroke-width="5"/>
<path d="M254.68 891.38C252.833 892.902 250.167 892.902 248.32 891.38L217.651 866.109C214.031 863.126 216.14 857.25 220.83 857.25H282.17C286.86 857.25 288.969 863.126 285.349 866.109L254.68 891.38Z" fill="#FAFAFF"/>
<path d="M196.646 543.502V547H183.796V543.502H196.646ZM185.026 521.406V547H180.614V521.406H185.026ZM208.379 547.352C206.972 547.352 205.701 547.123 204.564 546.666C203.439 546.197 202.478 545.547 201.681 544.715C200.896 543.883 200.293 542.904 199.871 541.779C199.449 540.654 199.238 539.441 199.238 538.141V537.438C199.238 535.949 199.455 534.602 199.888 533.395C200.322 532.188 200.926 531.156 201.699 530.301C202.472 529.434 203.386 528.771 204.441 528.314C205.496 527.857 206.638 527.629 207.869 527.629C209.228 527.629 210.418 527.857 211.437 528.314C212.457 528.771 213.301 529.416 213.969 530.248C214.648 531.068 215.152 532.047 215.48 533.184C215.82 534.32 215.99 535.574 215.99 536.945V538.756H201.295V535.715H211.806V535.381C211.783 534.619 211.631 533.904 211.349 533.236C211.08 532.568 210.664 532.029 210.101 531.619C209.539 531.209 208.789 531.004 207.851 531.004C207.148 531.004 206.521 531.156 205.97 531.461C205.431 531.754 204.98 532.182 204.617 532.744C204.254 533.307 203.972 533.986 203.773 534.783C203.586 535.568 203.492 536.453 203.492 537.438V538.141C203.492 538.973 203.603 539.746 203.826 540.461C204.06 541.164 204.4 541.779 204.845 542.307C205.291 542.834 205.83 543.25 206.463 543.555C207.095 543.848 207.816 543.994 208.625 543.994C209.644 543.994 210.552 543.789 211.349 543.379C212.146 542.969 212.838 542.389 213.424 541.639L215.656 543.801C215.246 544.398 214.713 544.973 214.056 545.523C213.4 546.062 212.597 546.502 211.648 546.842C210.711 547.182 209.621 547.352 208.379 547.352ZM228.373 527.98V531.074H217.651V527.98H228.373ZM220.745 523.322H224.981V541.744C224.981 542.33 225.063 542.781 225.227 543.098C225.403 543.402 225.643 543.607 225.948 543.713C226.252 543.818 226.61 543.871 227.02 543.871C227.313 543.871 227.594 543.854 227.864 543.818C228.133 543.783 228.35 543.748 228.514 543.713L228.532 546.947C228.18 547.053 227.77 547.146 227.301 547.229C226.844 547.311 226.317 547.352 225.719 547.352C224.746 547.352 223.885 547.182 223.135 546.842C222.385 546.49 221.799 545.922 221.377 545.137C220.955 544.352 220.745 543.309 220.745 542.008V523.322ZM236.169 520V522.479C236.169 523.217 236.034 523.984 235.765 524.781C235.507 525.566 235.144 526.322 234.675 527.049C234.206 527.764 233.667 528.385 233.058 528.912L230.931 527.576C231.411 526.85 231.798 526.082 232.091 525.273C232.396 524.453 232.548 523.533 232.548 522.514V520H236.169ZM248.201 541.85C248.201 541.428 248.095 541.047 247.884 540.707C247.674 540.355 247.269 540.039 246.672 539.758C246.086 539.477 245.218 539.219 244.07 538.984C243.062 538.762 242.136 538.498 241.293 538.193C240.461 537.877 239.746 537.496 239.148 537.051C238.55 536.605 238.088 536.078 237.759 535.469C237.431 534.859 237.267 534.156 237.267 533.359C237.267 532.586 237.437 531.854 237.777 531.162C238.117 530.471 238.603 529.861 239.236 529.334C239.869 528.807 240.636 528.391 241.539 528.086C242.453 527.781 243.472 527.629 244.597 527.629C246.191 527.629 247.556 527.898 248.693 528.438C249.841 528.965 250.72 529.686 251.33 530.6C251.939 531.502 252.244 532.521 252.244 533.658H248.007C248.007 533.154 247.879 532.686 247.621 532.252C247.375 531.807 247 531.449 246.496 531.18C245.992 530.898 245.359 530.758 244.597 530.758C243.871 530.758 243.267 530.875 242.787 531.109C242.318 531.332 241.966 531.625 241.732 531.988C241.509 532.352 241.398 532.75 241.398 533.184C241.398 533.5 241.457 533.787 241.574 534.045C241.703 534.291 241.914 534.52 242.207 534.73C242.5 534.93 242.898 535.117 243.402 535.293C243.918 535.469 244.562 535.639 245.336 535.803C246.789 536.107 248.037 536.5 249.08 536.98C250.134 537.449 250.943 538.059 251.506 538.809C252.068 539.547 252.349 540.484 252.349 541.621C252.349 542.465 252.168 543.238 251.804 543.941C251.453 544.633 250.937 545.236 250.257 545.752C249.578 546.256 248.763 546.648 247.814 546.93C246.877 547.211 245.822 547.352 244.65 547.352C242.927 547.352 241.468 547.047 240.273 546.438C239.078 545.816 238.17 545.025 237.549 544.064C236.939 543.092 236.634 542.084 236.634 541.041H240.73C240.777 541.826 240.994 542.453 241.381 542.922C241.779 543.379 242.271 543.713 242.857 543.924C243.455 544.123 244.07 544.223 244.703 544.223C245.465 544.223 246.103 544.123 246.619 543.924C247.134 543.713 247.527 543.432 247.797 543.08C248.066 542.717 248.201 542.307 248.201 541.85ZM274.462 527.98V531.074H263.739V527.98H274.462ZM266.833 523.322H271.069V541.744C271.069 542.33 271.151 542.781 271.315 543.098C271.491 543.402 271.731 543.607 272.036 543.713C272.341 543.818 272.698 543.871 273.108 543.871C273.401 543.871 273.683 543.854 273.952 543.818C274.222 543.783 274.438 543.748 274.603 543.713L274.62 546.947C274.269 547.053 273.858 547.146 273.39 547.229C272.933 547.311 272.405 547.352 271.808 547.352C270.835 547.352 269.974 547.182 269.224 546.842C268.474 546.49 267.888 545.922 267.466 545.137C267.044 544.352 266.833 543.309 266.833 542.008V523.322ZM288.814 543.186V534.115C288.814 533.436 288.691 532.85 288.445 532.357C288.199 531.865 287.824 531.484 287.32 531.215C286.828 530.945 286.207 530.811 285.457 530.811C284.765 530.811 284.168 530.928 283.664 531.162C283.16 531.396 282.767 531.713 282.486 532.111C282.205 532.51 282.064 532.961 282.064 533.465H277.845C277.845 532.715 278.027 531.988 278.39 531.285C278.754 530.582 279.281 529.955 279.972 529.404C280.664 528.854 281.49 528.42 282.451 528.104C283.412 527.787 284.49 527.629 285.685 527.629C287.115 527.629 288.38 527.869 289.482 528.35C290.595 528.83 291.468 529.557 292.101 530.529C292.746 531.49 293.068 532.697 293.068 534.15V542.605C293.068 543.473 293.127 544.252 293.244 544.943C293.373 545.623 293.554 546.215 293.789 546.719V547H289.447C289.248 546.543 289.089 545.963 288.972 545.26C288.867 544.545 288.814 543.854 288.814 543.186ZM289.429 535.434L289.464 538.053H286.423C285.638 538.053 284.947 538.129 284.349 538.281C283.752 538.422 283.254 538.633 282.855 538.914C282.457 539.195 282.158 539.535 281.959 539.934C281.759 540.332 281.66 540.783 281.66 541.287C281.66 541.791 281.777 542.254 282.011 542.676C282.246 543.086 282.586 543.408 283.031 543.643C283.488 543.877 284.039 543.994 284.683 543.994C285.55 543.994 286.306 543.818 286.951 543.467C287.607 543.104 288.123 542.664 288.498 542.148C288.873 541.621 289.072 541.123 289.095 540.654L290.466 542.535C290.326 543.016 290.086 543.531 289.746 544.082C289.406 544.633 288.961 545.16 288.41 545.664C287.871 546.156 287.22 546.561 286.459 546.877C285.709 547.193 284.841 547.352 283.857 547.352C282.615 547.352 281.507 547.105 280.535 546.613C279.562 546.109 278.8 545.436 278.25 544.592C277.699 543.736 277.423 542.77 277.423 541.691C277.423 540.684 277.611 539.793 277.986 539.02C278.373 538.234 278.935 537.578 279.673 537.051C280.423 536.523 281.337 536.125 282.416 535.855C283.494 535.574 284.724 535.434 286.107 535.434H289.429ZM302.393 520V547H298.139V520H302.393ZM311.665 520V547H307.411V520H311.665ZM323.477 527.98L315.198 537.156L310.663 541.797L309.556 538.211L312.983 533.975L318.362 527.98H323.477ZM319.276 547L313.106 538.07L315.778 535.1L324.181 547H319.276ZM198.574 583.977C199.266 583.977 199.887 583.842 200.438 583.572C201 583.291 201.451 582.904 201.791 582.412C202.143 581.92 202.336 581.352 202.371 580.707H206.361C206.338 581.938 205.975 583.057 205.272 584.064C204.568 585.072 203.637 585.875 202.477 586.473C201.316 587.059 200.033 587.352 198.627 587.352C197.174 587.352 195.908 587.105 194.83 586.613C193.752 586.109 192.856 585.418 192.141 584.539C191.426 583.66 190.887 582.646 190.524 581.498C190.172 580.35 189.996 579.119 189.996 577.807V577.191C189.996 575.879 190.172 574.648 190.524 573.5C190.887 572.34 191.426 571.32 192.141 570.441C192.856 569.562 193.752 568.877 194.83 568.385C195.908 567.881 197.168 567.629 198.609 567.629C200.133 567.629 201.469 567.934 202.617 568.543C203.766 569.141 204.668 569.979 205.324 571.057C205.992 572.123 206.338 573.365 206.361 574.783H202.371C202.336 574.08 202.16 573.447 201.844 572.885C201.539 572.311 201.106 571.854 200.543 571.514C199.992 571.174 199.33 571.004 198.557 571.004C197.701 571.004 196.992 571.18 196.43 571.531C195.867 571.871 195.428 572.34 195.111 572.938C194.795 573.523 194.566 574.186 194.426 574.924C194.297 575.65 194.232 576.406 194.232 577.191V577.807C194.232 578.592 194.297 579.354 194.426 580.092C194.555 580.83 194.777 581.492 195.094 582.078C195.422 582.652 195.867 583.115 196.43 583.467C196.992 583.807 197.707 583.977 198.574 583.977ZM209.165 577.701V577.297C209.165 575.926 209.364 574.654 209.762 573.482C210.161 572.299 210.735 571.273 211.485 570.406C212.247 569.527 213.173 568.848 214.262 568.367C215.364 567.875 216.606 567.629 217.989 567.629C219.384 567.629 220.626 567.875 221.716 568.367C222.817 568.848 223.749 569.527 224.51 570.406C225.272 571.273 225.852 572.299 226.251 573.482C226.649 574.654 226.848 575.926 226.848 577.297V577.701C226.848 579.072 226.649 580.344 226.251 581.516C225.852 582.688 225.272 583.713 224.51 584.592C223.749 585.459 222.823 586.139 221.733 586.631C220.643 587.111 219.407 587.352 218.024 587.352C216.63 587.352 215.382 587.111 214.28 586.631C213.19 586.139 212.264 585.459 211.503 584.592C210.741 583.713 210.161 582.688 209.762 581.516C209.364 580.344 209.165 579.072 209.165 577.701ZM213.401 577.297V577.701C213.401 578.557 213.489 579.365 213.665 580.127C213.841 580.889 214.116 581.557 214.491 582.131C214.866 582.705 215.346 583.156 215.932 583.484C216.518 583.812 217.216 583.977 218.024 583.977C218.809 583.977 219.489 583.812 220.063 583.484C220.649 583.156 221.13 582.705 221.505 582.131C221.88 581.557 222.155 580.889 222.331 580.127C222.518 579.365 222.612 578.557 222.612 577.701V577.297C222.612 576.453 222.518 575.656 222.331 574.906C222.155 574.145 221.874 573.471 221.487 572.885C221.112 572.299 220.632 571.842 220.046 571.514C219.471 571.174 218.786 571.004 217.989 571.004C217.192 571.004 216.501 571.174 215.915 571.514C215.341 571.842 214.866 572.299 214.491 572.885C214.116 573.471 213.841 574.145 213.665 574.906C213.489 575.656 213.401 576.453 213.401 577.297ZM234.96 572.041V587H230.724V567.98H234.714L234.96 572.041ZM234.204 576.787L232.833 576.77C232.845 575.422 233.033 574.186 233.396 573.061C233.771 571.936 234.286 570.969 234.943 570.16C235.611 569.352 236.408 568.73 237.333 568.297C238.259 567.852 239.29 567.629 240.427 567.629C241.341 567.629 242.167 567.758 242.906 568.016C243.656 568.262 244.294 568.666 244.822 569.229C245.361 569.791 245.771 570.523 246.052 571.426C246.333 572.316 246.474 573.412 246.474 574.713V587H242.22V574.695C242.22 573.781 242.085 573.061 241.816 572.533C241.558 571.994 241.177 571.613 240.673 571.391C240.181 571.156 239.566 571.039 238.827 571.039C238.101 571.039 237.451 571.191 236.876 571.496C236.302 571.801 235.816 572.217 235.417 572.744C235.031 573.271 234.732 573.881 234.521 574.572C234.31 575.264 234.204 576.002 234.204 576.787ZM259.877 567.98V571.074H249.154V567.98H259.877ZM252.248 563.322H256.484V581.744C256.484 582.33 256.566 582.781 256.73 583.098C256.906 583.402 257.146 583.607 257.451 583.713C257.756 583.818 258.113 583.871 258.523 583.871C258.816 583.871 259.098 583.854 259.367 583.818C259.637 583.783 259.854 583.748 260.018 583.713L260.035 586.947C259.684 587.053 259.273 587.146 258.805 587.229C258.348 587.311 257.82 587.352 257.223 587.352C256.25 587.352 255.389 587.182 254.639 586.842C253.889 586.49 253.303 585.922 252.881 585.137C252.459 584.352 252.248 583.309 252.248 582.008V563.322ZM271.891 587.352C270.485 587.352 269.214 587.123 268.077 586.666C266.952 586.197 265.991 585.547 265.194 584.715C264.409 583.883 263.805 582.904 263.383 581.779C262.962 580.654 262.751 579.441 262.751 578.141V577.438C262.751 575.949 262.967 574.602 263.401 573.395C263.835 572.188 264.438 571.156 265.212 570.301C265.985 569.434 266.899 568.771 267.954 568.314C269.008 567.857 270.151 567.629 271.381 567.629C272.741 567.629 273.93 567.857 274.95 568.314C275.969 568.771 276.813 569.416 277.481 570.248C278.161 571.068 278.665 572.047 278.993 573.184C279.333 574.32 279.503 575.574 279.503 576.945V578.756H264.807V575.715H275.319V575.381C275.296 574.619 275.143 573.904 274.862 573.236C274.592 572.568 274.176 572.029 273.614 571.619C273.051 571.209 272.301 571.004 271.364 571.004C270.661 571.004 270.034 571.156 269.483 571.461C268.944 571.754 268.493 572.182 268.13 572.744C267.766 573.307 267.485 573.986 267.286 574.783C267.098 575.568 267.005 576.453 267.005 577.438V578.141C267.005 578.973 267.116 579.746 267.339 580.461C267.573 581.164 267.913 581.779 268.358 582.307C268.803 582.834 269.342 583.25 269.975 583.555C270.608 583.848 271.329 583.994 272.137 583.994C273.157 583.994 274.065 583.789 274.862 583.379C275.659 582.969 276.35 582.389 276.936 581.639L279.169 583.801C278.758 584.398 278.225 584.973 277.569 585.523C276.913 586.062 276.11 586.502 275.161 586.842C274.223 587.182 273.133 587.352 271.891 587.352ZM287.368 572.041V587H283.132V567.98H287.122L287.368 572.041ZM286.613 576.787L285.241 576.77C285.253 575.422 285.441 574.186 285.804 573.061C286.179 571.936 286.695 570.969 287.351 570.16C288.019 569.352 288.816 568.73 289.741 568.297C290.667 567.852 291.699 567.629 292.835 567.629C293.749 567.629 294.575 567.758 295.314 568.016C296.064 568.262 296.702 568.666 297.23 569.229C297.769 569.791 298.179 570.523 298.46 571.426C298.741 572.316 298.882 573.412 298.882 574.713V587H294.628V574.695C294.628 573.781 294.493 573.061 294.224 572.533C293.966 571.994 293.585 571.613 293.081 571.391C292.589 571.156 291.974 571.039 291.236 571.039C290.509 571.039 289.859 571.191 289.284 571.496C288.71 571.801 288.224 572.217 287.825 572.744C287.439 573.271 287.14 573.881 286.929 574.572C286.718 575.264 286.613 576.002 286.613 576.787ZM312.285 567.98V571.074H301.562V567.98H312.285ZM304.656 563.322H308.893V581.744C308.893 582.33 308.975 582.781 309.139 583.098C309.314 583.402 309.555 583.607 309.859 583.713C310.164 583.818 310.521 583.871 310.932 583.871C311.225 583.871 311.506 583.854 311.775 583.818C312.045 583.783 312.262 583.748 312.426 583.713L312.443 586.947C312.092 587.053 311.682 587.146 311.213 587.229C310.756 587.311 310.228 587.352 309.631 587.352C308.658 587.352 307.797 587.182 307.047 586.842C306.297 586.49 305.711 585.922 305.289 585.137C304.867 584.352 304.656 583.309 304.656 582.008V563.322Z" fill="#FAFAFF"/>
<rect x="46" y="157" width="412" height="780" fill="url(#paint2_linear_2008_490)"/>
<path d="M71.3223 255.455H64.6602V251.957H71.3223C72.4824 251.957 73.4199 251.77 74.1348 251.395C74.8496 251.02 75.3711 250.504 75.6992 249.848C76.0391 249.18 76.209 248.418 76.209 247.562C76.209 246.754 76.0391 245.998 75.6992 245.295C75.3711 244.58 74.8496 244.006 74.1348 243.572C73.4199 243.139 72.4824 242.922 71.3223 242.922H66.0137V265H61.6016V239.406H71.3223C73.3027 239.406 74.9844 239.758 76.3672 240.461C77.7617 241.152 78.8223 242.113 79.5488 243.344C80.2754 244.562 80.6387 245.957 80.6387 247.527C80.6387 249.18 80.2754 250.598 79.5488 251.781C78.8223 252.965 77.7617 253.873 76.3672 254.506C74.9844 255.139 73.3027 255.455 71.3223 255.455ZM95.0436 261.186V252.115C95.0436 251.436 94.9205 250.85 94.6745 250.357C94.4284 249.865 94.0534 249.484 93.5495 249.215C93.0573 248.945 92.4362 248.811 91.6862 248.811C90.9948 248.811 90.3971 248.928 89.8932 249.162C89.3893 249.396 88.9967 249.713 88.7155 250.111C88.4342 250.51 88.2936 250.961 88.2936 251.465H84.0748C84.0748 250.715 84.2565 249.988 84.6198 249.285C84.983 248.582 85.5104 247.955 86.2018 247.404C86.8932 246.854 87.7194 246.42 88.6803 246.104C89.6413 245.787 90.7194 245.629 91.9147 245.629C93.3444 245.629 94.61 245.869 95.7116 246.35C96.8248 246.83 97.6979 247.557 98.3307 248.529C98.9752 249.49 99.2975 250.697 99.2975 252.15V260.605C99.2975 261.473 99.3561 262.252 99.4733 262.943C99.6022 263.623 99.7838 264.215 100.018 264.719V265H95.6764C95.4772 264.543 95.319 263.963 95.2018 263.26C95.0963 262.545 95.0436 261.854 95.0436 261.186ZM95.6588 253.434L95.694 256.053H92.653C91.8678 256.053 91.1764 256.129 90.5788 256.281C89.9811 256.422 89.483 256.633 89.0846 256.914C88.6862 257.195 88.3873 257.535 88.1881 257.934C87.9889 258.332 87.8893 258.783 87.8893 259.287C87.8893 259.791 88.0065 260.254 88.2409 260.676C88.4752 261.086 88.8151 261.408 89.2604 261.643C89.7174 261.877 90.2682 261.994 90.9127 261.994C91.7799 261.994 92.5358 261.818 93.1803 261.467C93.8366 261.104 94.3522 260.664 94.7272 260.148C95.1022 259.621 95.3014 259.123 95.3248 258.654L96.6959 260.535C96.5553 261.016 96.3151 261.531 95.9752 262.082C95.6354 262.633 95.1901 263.16 94.6393 263.664C94.1002 264.156 93.4498 264.561 92.6881 264.877C91.9381 265.193 91.0709 265.352 90.0866 265.352C88.8444 265.352 87.737 265.105 86.7643 264.613C85.7916 264.109 85.0299 263.436 84.4791 262.592C83.9284 261.736 83.653 260.77 83.653 259.691C83.653 258.684 83.8405 257.793 84.2155 257.02C84.6022 256.234 85.1647 255.578 85.903 255.051C86.653 254.523 87.567 254.125 88.6452 253.855C89.7233 253.574 90.9538 253.434 92.3366 253.434H95.6588ZM116.269 245.98H120.118V264.473C120.118 266.184 119.755 267.637 119.029 268.832C118.302 270.027 117.288 270.936 115.988 271.557C114.687 272.189 113.181 272.506 111.47 272.506C110.743 272.506 109.935 272.4 109.044 272.189C108.165 271.979 107.31 271.639 106.478 271.17C105.658 270.713 104.972 270.109 104.421 269.359L106.408 266.863C107.087 267.672 107.837 268.264 108.658 268.639C109.478 269.014 110.339 269.201 111.241 269.201C112.214 269.201 113.04 269.02 113.72 268.656C114.411 268.305 114.945 267.783 115.32 267.092C115.695 266.4 115.882 265.557 115.882 264.561V250.287L116.269 245.98ZM103.349 255.701V255.332C103.349 253.891 103.525 252.578 103.876 251.395C104.228 250.199 104.732 249.174 105.388 248.318C106.044 247.451 106.841 246.789 107.779 246.332C108.716 245.863 109.777 245.629 110.96 245.629C112.191 245.629 113.24 245.852 114.107 246.297C114.986 246.742 115.718 247.381 116.304 248.213C116.89 249.033 117.347 250.018 117.675 251.166C118.015 252.303 118.267 253.568 118.431 254.963V256.141C118.279 257.5 118.021 258.742 117.658 259.867C117.294 260.992 116.814 261.965 116.216 262.785C115.618 263.605 114.88 264.238 114.001 264.684C113.134 265.129 112.109 265.352 110.925 265.352C109.765 265.352 108.716 265.111 107.779 264.631C106.853 264.15 106.056 263.477 105.388 262.609C104.732 261.742 104.228 260.723 103.876 259.551C103.525 258.367 103.349 257.084 103.349 255.701ZM107.585 255.332V255.701C107.585 256.568 107.667 257.377 107.831 258.127C108.007 258.877 108.271 259.539 108.622 260.113C108.986 260.676 109.443 261.121 109.993 261.449C110.556 261.766 111.218 261.924 111.98 261.924C112.976 261.924 113.79 261.713 114.423 261.291C115.068 260.869 115.56 260.301 115.9 259.586C116.251 258.859 116.497 258.051 116.638 257.16V253.979C116.568 253.287 116.421 252.643 116.199 252.045C115.988 251.447 115.7 250.926 115.337 250.48C114.974 250.023 114.517 249.672 113.966 249.426C113.415 249.168 112.765 249.039 112.015 249.039C111.253 249.039 110.591 249.203 110.029 249.531C109.466 249.859 109.003 250.311 108.64 250.885C108.288 251.459 108.025 252.127 107.849 252.889C107.673 253.65 107.585 254.465 107.585 255.332ZM133.258 265.352C131.851 265.352 130.58 265.123 129.443 264.666C128.318 264.197 127.357 263.547 126.56 262.715C125.775 261.883 125.172 260.904 124.75 259.779C124.328 258.654 124.117 257.441 124.117 256.141V255.438C124.117 253.949 124.334 252.602 124.768 251.395C125.201 250.188 125.805 249.156 126.578 248.301C127.351 247.434 128.266 246.771 129.32 246.314C130.375 245.857 131.518 245.629 132.748 245.629C134.107 245.629 135.297 245.857 136.316 246.314C137.336 246.771 138.18 247.416 138.848 248.248C139.527 249.068 140.031 250.047 140.359 251.184C140.699 252.32 140.869 253.574 140.869 254.945V256.756H126.174V253.715H136.685V253.381C136.662 252.619 136.51 251.904 136.228 251.236C135.959 250.568 135.543 250.029 134.98 249.619C134.418 249.209 133.668 249.004 132.73 249.004C132.027 249.004 131.4 249.156 130.85 249.461C130.31 249.754 129.859 250.182 129.496 250.744C129.133 251.307 128.851 251.986 128.652 252.783C128.465 253.568 128.371 254.453 128.371 255.438V256.141C128.371 256.973 128.482 257.746 128.705 258.461C128.939 259.164 129.279 259.779 129.725 260.307C130.17 260.834 130.709 261.25 131.342 261.555C131.975 261.848 132.695 261.994 133.504 261.994C134.523 261.994 135.432 261.789 136.228 261.379C137.025 260.969 137.717 260.389 138.303 259.639L140.535 261.801C140.125 262.398 139.592 262.973 138.935 263.523C138.279 264.062 137.476 264.502 136.527 264.842C135.59 265.182 134.5 265.352 133.258 265.352ZM158.06 250.041V265H153.823V245.98H157.814L158.06 250.041ZM157.304 254.787L155.933 254.77C155.945 253.422 156.132 252.186 156.495 251.061C156.87 249.936 157.386 248.969 158.042 248.16C158.71 247.352 159.507 246.73 160.433 246.297C161.359 245.852 162.39 245.629 163.527 245.629C164.441 245.629 165.267 245.758 166.005 246.016C166.755 246.262 167.394 246.666 167.921 247.229C168.46 247.791 168.87 248.523 169.152 249.426C169.433 250.316 169.573 251.412 169.573 252.713V265H165.32V252.695C165.32 251.781 165.185 251.061 164.915 250.533C164.657 249.994 164.277 249.613 163.773 249.391C163.28 249.156 162.665 249.039 161.927 249.039C161.2 249.039 160.55 249.191 159.976 249.496C159.402 249.801 158.915 250.217 158.517 250.744C158.13 251.271 157.831 251.881 157.62 252.572C157.409 253.264 157.304 254.002 157.304 254.787ZM184.98 261.186V252.115C184.98 251.436 184.857 250.85 184.611 250.357C184.365 249.865 183.99 249.484 183.486 249.215C182.994 248.945 182.373 248.811 181.623 248.811C180.931 248.811 180.334 248.928 179.83 249.162C179.326 249.396 178.933 249.713 178.652 250.111C178.371 250.51 178.23 250.961 178.23 251.465H174.012C174.012 250.715 174.193 249.988 174.556 249.285C174.92 248.582 175.447 247.955 176.139 247.404C176.83 246.854 177.656 246.42 178.617 246.104C179.578 245.787 180.656 245.629 181.851 245.629C183.281 245.629 184.547 245.869 185.648 246.35C186.762 246.83 187.635 247.557 188.267 248.529C188.912 249.49 189.234 250.697 189.234 252.15V260.605C189.234 261.473 189.293 262.252 189.41 262.943C189.539 263.623 189.721 264.215 189.955 264.719V265H185.613C185.414 264.543 185.256 263.963 185.139 263.26C185.033 262.545 184.98 261.854 184.98 261.186ZM185.596 253.434L185.631 256.053H182.59C181.805 256.053 181.113 256.129 180.515 256.281C179.918 256.422 179.42 256.633 179.021 256.914C178.623 257.195 178.324 257.535 178.125 257.934C177.926 258.332 177.826 258.783 177.826 259.287C177.826 259.791 177.943 260.254 178.178 260.676C178.412 261.086 178.752 261.408 179.197 261.643C179.654 261.877 180.205 261.994 180.849 261.994C181.717 261.994 182.473 261.818 183.117 261.467C183.773 261.104 184.289 260.664 184.664 260.148C185.039 259.621 185.238 259.123 185.262 258.654L186.633 260.535C186.492 261.016 186.252 261.531 185.912 262.082C185.572 262.633 185.127 263.16 184.576 263.664C184.037 264.156 183.387 264.561 182.625 264.877C181.875 265.193 181.008 265.352 180.023 265.352C178.781 265.352 177.674 265.105 176.701 264.613C175.728 264.109 174.967 263.436 174.416 262.592C173.865 261.736 173.59 260.77 173.59 259.691C173.59 258.684 173.777 257.793 174.152 257.02C174.539 256.234 175.101 255.578 175.84 255.051C176.59 254.523 177.504 254.125 178.582 253.855C179.66 253.574 180.89 253.434 182.273 253.434H185.596ZM198.26 249.848V265H194.024V245.98H198.014L198.26 249.848ZM197.575 254.787L196.133 254.77C196.133 253.457 196.297 252.244 196.625 251.131C196.954 250.018 197.434 249.051 198.067 248.23C198.7 247.398 199.485 246.76 200.422 246.314C201.372 245.857 202.467 245.629 203.709 245.629C204.577 245.629 205.368 245.758 206.083 246.016C206.809 246.262 207.436 246.654 207.963 247.193C208.502 247.732 208.913 248.424 209.194 249.268C209.487 250.111 209.633 251.131 209.633 252.326V265H205.397V252.695C205.397 251.77 205.256 251.043 204.975 250.516C204.706 249.988 204.313 249.613 203.797 249.391C203.293 249.156 202.69 249.039 201.987 249.039C201.19 249.039 200.51 249.191 199.948 249.496C199.397 249.801 198.946 250.217 198.594 250.744C198.243 251.271 197.985 251.881 197.821 252.572C197.657 253.264 197.575 254.002 197.575 254.787ZM209.37 253.662L207.383 254.102C207.383 252.953 207.541 251.869 207.858 250.85C208.186 249.818 208.661 248.916 209.282 248.143C209.915 247.357 210.694 246.742 211.62 246.297C212.545 245.852 213.606 245.629 214.801 245.629C215.774 245.629 216.641 245.764 217.403 246.033C218.176 246.291 218.833 246.701 219.372 247.264C219.911 247.826 220.321 248.559 220.602 249.461C220.883 250.352 221.024 251.43 221.024 252.695V265H216.77V252.678C216.77 251.717 216.629 250.973 216.348 250.445C216.079 249.918 215.692 249.555 215.188 249.355C214.684 249.145 214.081 249.039 213.377 249.039C212.721 249.039 212.141 249.162 211.637 249.408C211.145 249.643 210.729 249.977 210.389 250.41C210.049 250.832 209.791 251.318 209.616 251.869C209.452 252.42 209.37 253.018 209.37 253.662ZM234.128 265.352C232.722 265.352 231.45 265.123 230.314 264.666C229.189 264.197 228.228 263.547 227.431 262.715C226.646 261.883 226.042 260.904 225.62 259.779C225.198 258.654 224.987 257.441 224.987 256.141V255.438C224.987 253.949 225.204 252.602 225.638 251.395C226.071 250.188 226.675 249.156 227.448 248.301C228.222 247.434 229.136 246.771 230.191 246.314C231.245 245.857 232.388 245.629 233.618 245.629C234.978 245.629 236.167 245.857 237.187 246.314C238.206 246.771 239.05 247.416 239.718 248.248C240.398 249.068 240.901 250.047 241.23 251.184C241.569 252.32 241.739 253.574 241.739 254.945V256.756H227.044V253.715H237.556V253.381C237.532 252.619 237.38 251.904 237.099 251.236C236.829 250.568 236.413 250.029 235.851 249.619C235.288 249.209 234.538 249.004 233.601 249.004C232.898 249.004 232.271 249.156 231.72 249.461C231.181 249.754 230.73 250.182 230.366 250.744C230.003 251.307 229.722 251.986 229.523 252.783C229.335 253.568 229.241 254.453 229.241 255.438V256.141C229.241 256.973 229.353 257.746 229.575 258.461C229.81 259.164 230.15 259.779 230.595 260.307C231.04 260.834 231.579 261.25 232.212 261.555C232.845 261.848 233.566 261.994 234.374 261.994C235.394 261.994 236.302 261.789 237.099 261.379C237.896 260.969 238.587 260.389 239.173 259.639L241.405 261.801C240.995 262.398 240.462 262.973 239.806 263.523C239.15 264.062 238.347 264.502 237.398 264.842C236.46 265.182 235.37 265.352 234.128 265.352Z" fill="#FAFAFF"/>
<path d="M68.3223 348.455H61.6602V344.957H68.3223C69.4824 344.957 70.4199 344.77 71.1348 344.395C71.8496 344.02 72.3711 343.504 72.6992 342.848C73.0391 342.18 73.209 341.418 73.209 340.562C73.209 339.754 73.0391 338.998 72.6992 338.295C72.3711 337.58 71.8496 337.006 71.1348 336.572C70.4199 336.139 69.4824 335.922 68.3223 335.922H63.0137V358H58.6016V332.406H68.3223C70.3027 332.406 71.9844 332.758 73.3672 333.461C74.7617 334.152 75.8223 335.113 76.5488 336.344C77.2754 337.562 77.6387 338.957 77.6387 340.527C77.6387 342.18 77.2754 343.598 76.5488 344.781C75.8223 345.965 74.7617 346.873 73.3672 347.506C71.9844 348.139 70.3027 348.455 68.3223 348.455ZM92.0436 354.186V345.115C92.0436 344.436 91.9205 343.85 91.6745 343.357C91.4284 342.865 91.0534 342.484 90.5495 342.215C90.0573 341.945 89.4362 341.811 88.6862 341.811C87.9948 341.811 87.3971 341.928 86.8932 342.162C86.3893 342.396 85.9967 342.713 85.7155 343.111C85.4342 343.51 85.2936 343.961 85.2936 344.465H81.0748C81.0748 343.715 81.2565 342.988 81.6198 342.285C81.983 341.582 82.5104 340.955 83.2018 340.404C83.8932 339.854 84.7194 339.42 85.6803 339.104C86.6413 338.787 87.7194 338.629 88.9147 338.629C90.3444 338.629 91.61 338.869 92.7116 339.35C93.8248 339.83 94.6979 340.557 95.3307 341.529C95.9752 342.49 96.2975 343.697 96.2975 345.15V353.605C96.2975 354.473 96.3561 355.252 96.4733 355.943C96.6022 356.623 96.7838 357.215 97.0182 357.719V358H92.6764C92.4772 357.543 92.319 356.963 92.2018 356.26C92.0963 355.545 92.0436 354.854 92.0436 354.186ZM92.6588 346.434L92.694 349.053H89.653C88.8678 349.053 88.1764 349.129 87.5788 349.281C86.9811 349.422 86.483 349.633 86.0846 349.914C85.6862 350.195 85.3873 350.535 85.1881 350.934C84.9889 351.332 84.8893 351.783 84.8893 352.287C84.8893 352.791 85.0065 353.254 85.2409 353.676C85.4752 354.086 85.8151 354.408 86.2604 354.643C86.7174 354.877 87.2682 354.994 87.9127 354.994C88.7799 354.994 89.5358 354.818 90.1803 354.467C90.8366 354.104 91.3522 353.664 91.7272 353.148C92.1022 352.621 92.3014 352.123 92.3248 351.654L93.6959 353.535C93.5553 354.016 93.3151 354.531 92.9752 355.082C92.6354 355.633 92.1901 356.16 91.6393 356.664C91.1002 357.156 90.4498 357.561 89.6881 357.877C88.9381 358.193 88.0709 358.352 87.0866 358.352C85.8444 358.352 84.737 358.105 83.7643 357.613C82.7916 357.109 82.0299 356.436 81.4791 355.592C80.9284 354.736 80.653 353.77 80.653 352.691C80.653 351.684 80.8405 350.793 81.2155 350.02C81.6022 349.234 82.1647 348.578 82.903 348.051C83.653 347.523 84.567 347.125 85.6452 346.855C86.7233 346.574 87.9538 346.434 89.3366 346.434H92.6588ZM113.269 338.98H117.118V357.473C117.118 359.184 116.755 360.637 116.029 361.832C115.302 363.027 114.288 363.936 112.988 364.557C111.687 365.189 110.181 365.506 108.47 365.506C107.743 365.506 106.935 365.4 106.044 365.189C105.165 364.979 104.31 364.639 103.478 364.17C102.658 363.713 101.972 363.109 101.421 362.359L103.408 359.863C104.087 360.672 104.837 361.264 105.658 361.639C106.478 362.014 107.339 362.201 108.241 362.201C109.214 362.201 110.04 362.02 110.72 361.656C111.411 361.305 111.945 360.783 112.32 360.092C112.695 359.4 112.882 358.557 112.882 357.561V343.287L113.269 338.98ZM100.349 348.701V348.332C100.349 346.891 100.525 345.578 100.876 344.395C101.228 343.199 101.732 342.174 102.388 341.318C103.044 340.451 103.841 339.789 104.779 339.332C105.716 338.863 106.777 338.629 107.96 338.629C109.191 338.629 110.24 338.852 111.107 339.297C111.986 339.742 112.718 340.381 113.304 341.213C113.89 342.033 114.347 343.018 114.675 344.166C115.015 345.303 115.267 346.568 115.431 347.963V349.141C115.279 350.5 115.021 351.742 114.658 352.867C114.294 353.992 113.814 354.965 113.216 355.785C112.618 356.605 111.88 357.238 111.001 357.684C110.134 358.129 109.109 358.352 107.925 358.352C106.765 358.352 105.716 358.111 104.779 357.631C103.853 357.15 103.056 356.477 102.388 355.609C101.732 354.742 101.228 353.723 100.876 352.551C100.525 351.367 100.349 350.084 100.349 348.701ZM104.585 348.332V348.701C104.585 349.568 104.667 350.377 104.831 351.127C105.007 351.877 105.271 352.539 105.622 353.113C105.986 353.676 106.443 354.121 106.993 354.449C107.556 354.766 108.218 354.924 108.98 354.924C109.976 354.924 110.79 354.713 111.423 354.291C112.068 353.869 112.56 353.301 112.9 352.586C113.251 351.859 113.497 351.051 113.638 350.16V346.979C113.568 346.287 113.421 345.643 113.199 345.045C112.988 344.447 112.7 343.926 112.337 343.48C111.974 343.023 111.517 342.672 110.966 342.426C110.415 342.168 109.765 342.039 109.015 342.039C108.253 342.039 107.591 342.203 107.029 342.531C106.466 342.859 106.003 343.311 105.64 343.885C105.288 344.459 105.025 345.127 104.849 345.889C104.673 346.65 104.585 347.465 104.585 348.332ZM130.258 358.352C128.851 358.352 127.58 358.123 126.443 357.666C125.318 357.197 124.357 356.547 123.56 355.715C122.775 354.883 122.172 353.904 121.75 352.779C121.328 351.654 121.117 350.441 121.117 349.141V348.438C121.117 346.949 121.334 345.602 121.768 344.395C122.201 343.188 122.805 342.156 123.578 341.301C124.351 340.434 125.266 339.771 126.32 339.314C127.375 338.857 128.518 338.629 129.748 338.629C131.107 338.629 132.297 338.857 133.316 339.314C134.336 339.771 135.18 340.416 135.848 341.248C136.527 342.068 137.031 343.047 137.359 344.184C137.699 345.32 137.869 346.574 137.869 347.945V349.756H123.174V346.715H133.685V346.381C133.662 345.619 133.51 344.904 133.228 344.236C132.959 343.568 132.543 343.029 131.98 342.619C131.418 342.209 130.668 342.004 129.73 342.004C129.027 342.004 128.4 342.156 127.85 342.461C127.31 342.754 126.859 343.182 126.496 343.744C126.133 344.307 125.851 344.986 125.652 345.783C125.465 346.568 125.371 347.453 125.371 348.438V349.141C125.371 349.973 125.482 350.746 125.705 351.461C125.939 352.164 126.279 352.779 126.725 353.307C127.17 353.834 127.709 354.25 128.342 354.555C128.975 354.848 129.695 354.994 130.504 354.994C131.523 354.994 132.432 354.789 133.228 354.379C134.025 353.969 134.717 353.389 135.303 352.639L137.535 354.801C137.125 355.398 136.592 355.973 135.935 356.523C135.279 357.062 134.476 357.502 133.527 357.842C132.59 358.182 131.5 358.352 130.258 358.352ZM155.06 343.041V358H150.823V338.98H154.814L155.06 343.041ZM154.304 347.787L152.933 347.77C152.945 346.422 153.132 345.186 153.495 344.061C153.87 342.936 154.386 341.969 155.042 341.16C155.71 340.352 156.507 339.73 157.433 339.297C158.359 338.852 159.39 338.629 160.527 338.629C161.441 338.629 162.267 338.758 163.005 339.016C163.755 339.262 164.394 339.666 164.921 340.229C165.46 340.791 165.87 341.523 166.152 342.426C166.433 343.316 166.573 344.412 166.573 345.713V358H162.32V345.695C162.32 344.781 162.185 344.061 161.915 343.533C161.657 342.994 161.277 342.613 160.773 342.391C160.28 342.156 159.665 342.039 158.927 342.039C158.2 342.039 157.55 342.191 156.976 342.496C156.402 342.801 155.915 343.217 155.517 343.744C155.13 344.271 154.831 344.881 154.62 345.572C154.409 346.264 154.304 347.002 154.304 347.787ZM181.98 354.186V345.115C181.98 344.436 181.857 343.85 181.611 343.357C181.365 342.865 180.99 342.484 180.486 342.215C179.994 341.945 179.373 341.811 178.623 341.811C177.931 341.811 177.334 341.928 176.83 342.162C176.326 342.396 175.933 342.713 175.652 343.111C175.371 343.51 175.23 343.961 175.23 344.465H171.012C171.012 343.715 171.193 342.988 171.556 342.285C171.92 341.582 172.447 340.955 173.139 340.404C173.83 339.854 174.656 339.42 175.617 339.104C176.578 338.787 177.656 338.629 178.851 338.629C180.281 338.629 181.547 338.869 182.648 339.35C183.762 339.83 184.635 340.557 185.267 341.529C185.912 342.49 186.234 343.697 186.234 345.15V353.605C186.234 354.473 186.293 355.252 186.41 355.943C186.539 356.623 186.721 357.215 186.955 357.719V358H182.613C182.414 357.543 182.256 356.963 182.139 356.26C182.033 355.545 181.98 354.854 181.98 354.186ZM182.596 346.434L182.631 349.053H179.59C178.805 349.053 178.113 349.129 177.515 349.281C176.918 349.422 176.42 349.633 176.021 349.914C175.623 350.195 175.324 350.535 175.125 350.934C174.926 351.332 174.826 351.783 174.826 352.287C174.826 352.791 174.943 353.254 175.178 353.676C175.412 354.086 175.752 354.408 176.197 354.643C176.654 354.877 177.205 354.994 177.849 354.994C178.717 354.994 179.473 354.818 180.117 354.467C180.773 354.104 181.289 353.664 181.664 353.148C182.039 352.621 182.238 352.123 182.262 351.654L183.633 353.535C183.492 354.016 183.252 354.531 182.912 355.082C182.572 355.633 182.127 356.16 181.576 356.664C181.037 357.156 180.387 357.561 179.625 357.877C178.875 358.193 178.008 358.352 177.023 358.352C175.781 358.352 174.674 358.105 173.701 357.613C172.728 357.109 171.967 356.436 171.416 355.592C170.865 354.736 170.59 353.77 170.59 352.691C170.59 351.684 170.777 350.793 171.152 350.02C171.539 349.234 172.101 348.578 172.84 348.051C173.59 347.523 174.504 347.125 175.582 346.855C176.66 346.574 177.89 346.434 179.273 346.434H182.596ZM195.26 342.848V358H191.024V338.98H195.014L195.26 342.848ZM194.575 347.787L193.133 347.77C193.133 346.457 193.297 345.244 193.625 344.131C193.954 343.018 194.434 342.051 195.067 341.23C195.7 340.398 196.485 339.76 197.422 339.314C198.372 338.857 199.467 338.629 200.709 338.629C201.577 338.629 202.368 338.758 203.083 339.016C203.809 339.262 204.436 339.654 204.963 340.193C205.502 340.732 205.913 341.424 206.194 342.268C206.487 343.111 206.633 344.131 206.633 345.326V358H202.397V345.695C202.397 344.77 202.256 344.043 201.975 343.516C201.706 342.988 201.313 342.613 200.797 342.391C200.293 342.156 199.69 342.039 198.987 342.039C198.19 342.039 197.51 342.191 196.948 342.496C196.397 342.801 195.946 343.217 195.594 343.744C195.243 344.271 194.985 344.881 194.821 345.572C194.657 346.264 194.575 347.002 194.575 347.787ZM206.37 346.662L204.383 347.102C204.383 345.953 204.541 344.869 204.858 343.85C205.186 342.818 205.661 341.916 206.282 341.143C206.915 340.357 207.694 339.742 208.62 339.297C209.545 338.852 210.606 338.629 211.801 338.629C212.774 338.629 213.641 338.764 214.403 339.033C215.176 339.291 215.833 339.701 216.372 340.264C216.911 340.826 217.321 341.559 217.602 342.461C217.883 343.352 218.024 344.43 218.024 345.695V358H213.77V345.678C213.77 344.717 213.629 343.973 213.348 343.445C213.079 342.918 212.692 342.555 212.188 342.355C211.684 342.145 211.081 342.039 210.377 342.039C209.721 342.039 209.141 342.162 208.637 342.408C208.145 342.643 207.729 342.977 207.389 343.41C207.049 343.832 206.791 344.318 206.616 344.869C206.452 345.42 206.37 346.018 206.37 346.662ZM231.128 358.352C229.722 358.352 228.45 358.123 227.314 357.666C226.189 357.197 225.228 356.547 224.431 355.715C223.646 354.883 223.042 353.904 222.62 352.779C222.198 351.654 221.987 350.441 221.987 349.141V348.438C221.987 346.949 222.204 345.602 222.638 344.395C223.071 343.188 223.675 342.156 224.448 341.301C225.222 340.434 226.136 339.771 227.191 339.314C228.245 338.857 229.388 338.629 230.618 338.629C231.978 338.629 233.167 338.857 234.187 339.314C235.206 339.771 236.05 340.416 236.718 341.248C237.398 342.068 237.901 343.047 238.23 344.184C238.569 345.32 238.739 346.574 238.739 347.945V349.756H224.044V346.715H234.556V346.381C234.532 345.619 234.38 344.904 234.099 344.236C233.829 343.568 233.413 343.029 232.851 342.619C232.288 342.209 231.538 342.004 230.601 342.004C229.898 342.004 229.271 342.156 228.72 342.461C228.181 342.754 227.73 343.182 227.366 343.744C227.003 344.307 226.722 344.986 226.523 345.783C226.335 346.568 226.241 347.453 226.241 348.438V349.141C226.241 349.973 226.353 350.746 226.575 351.461C226.81 352.164 227.15 352.779 227.595 353.307C228.04 353.834 228.579 354.25 229.212 354.555C229.845 354.848 230.566 354.994 231.374 354.994C232.394 354.994 233.302 354.789 234.099 354.379C234.896 353.969 235.587 353.389 236.173 352.639L238.405 354.801C237.995 355.398 237.462 355.973 236.806 356.523C236.15 357.062 235.347 357.502 234.398 357.842C233.46 358.182 232.37 358.352 231.128 358.352Z" fill="#FAFAFF"/>
<path d="M68.3223 462.455H61.6602V458.957H68.3223C69.4824 458.957 70.4199 458.77 71.1348 458.395C71.8496 458.02 72.3711 457.504 72.6992 456.848C73.0391 456.18 73.209 455.418 73.209 454.562C73.209 453.754 73.0391 452.998 72.6992 452.295C72.3711 451.58 71.8496 451.006 71.1348 450.572C70.4199 450.139 69.4824 449.922 68.3223 449.922H63.0137V472H58.6016V446.406H68.3223C70.3027 446.406 71.9844 446.758 73.3672 447.461C74.7617 448.152 75.8223 449.113 76.5488 450.344C77.2754 451.562 77.6387 452.957 77.6387 454.527C77.6387 456.18 77.2754 457.598 76.5488 458.781C75.8223 459.965 74.7617 460.873 73.3672 461.506C71.9844 462.139 70.3027 462.455 68.3223 462.455ZM92.0436 468.186V459.115C92.0436 458.436 91.9205 457.85 91.6745 457.357C91.4284 456.865 91.0534 456.484 90.5495 456.215C90.0573 455.945 89.4362 455.811 88.6862 455.811C87.9948 455.811 87.3971 455.928 86.8932 456.162C86.3893 456.396 85.9967 456.713 85.7155 457.111C85.4342 457.51 85.2936 457.961 85.2936 458.465H81.0748C81.0748 457.715 81.2565 456.988 81.6198 456.285C81.983 455.582 82.5104 454.955 83.2018 454.404C83.8932 453.854 84.7194 453.42 85.6803 453.104C86.6413 452.787 87.7194 452.629 88.9147 452.629C90.3444 452.629 91.61 452.869 92.7116 453.35C93.8248 453.83 94.6979 454.557 95.3307 455.529C95.9752 456.49 96.2975 457.697 96.2975 459.15V467.605C96.2975 468.473 96.3561 469.252 96.4733 469.943C96.6022 470.623 96.7838 471.215 97.0182 471.719V472H92.6764C92.4772 471.543 92.319 470.963 92.2018 470.26C92.0963 469.545 92.0436 468.854 92.0436 468.186ZM92.6588 460.434L92.694 463.053H89.653C88.8678 463.053 88.1764 463.129 87.5788 463.281C86.9811 463.422 86.483 463.633 86.0846 463.914C85.6862 464.195 85.3873 464.535 85.1881 464.934C84.9889 465.332 84.8893 465.783 84.8893 466.287C84.8893 466.791 85.0065 467.254 85.2409 467.676C85.4752 468.086 85.8151 468.408 86.2604 468.643C86.7174 468.877 87.2682 468.994 87.9127 468.994C88.7799 468.994 89.5358 468.818 90.1803 468.467C90.8366 468.104 91.3522 467.664 91.7272 467.148C92.1022 466.621 92.3014 466.123 92.3248 465.654L93.6959 467.535C93.5553 468.016 93.3151 468.531 92.9752 469.082C92.6354 469.633 92.1901 470.16 91.6393 470.664C91.1002 471.156 90.4498 471.561 89.6881 471.877C88.9381 472.193 88.0709 472.352 87.0866 472.352C85.8444 472.352 84.737 472.105 83.7643 471.613C82.7916 471.109 82.0299 470.436 81.4791 469.592C80.9284 468.736 80.653 467.77 80.653 466.691C80.653 465.684 80.8405 464.793 81.2155 464.02C81.6022 463.234 82.1647 462.578 82.903 462.051C83.653 461.523 84.567 461.125 85.6452 460.855C86.7233 460.574 87.9538 460.434 89.3366 460.434H92.6588ZM113.269 452.98H117.118V471.473C117.118 473.184 116.755 474.637 116.029 475.832C115.302 477.027 114.288 477.936 112.988 478.557C111.687 479.189 110.181 479.506 108.47 479.506C107.743 479.506 106.935 479.4 106.044 479.189C105.165 478.979 104.31 478.639 103.478 478.17C102.658 477.713 101.972 477.109 101.421 476.359L103.408 473.863C104.087 474.672 104.837 475.264 105.658 475.639C106.478 476.014 107.339 476.201 108.241 476.201C109.214 476.201 110.04 476.02 110.72 475.656C111.411 475.305 111.945 474.783 112.32 474.092C112.695 473.4 112.882 472.557 112.882 471.561V457.287L113.269 452.98ZM100.349 462.701V462.332C100.349 460.891 100.525 459.578 100.876 458.395C101.228 457.199 101.732 456.174 102.388 455.318C103.044 454.451 103.841 453.789 104.779 453.332C105.716 452.863 106.777 452.629 107.96 452.629C109.191 452.629 110.24 452.852 111.107 453.297C111.986 453.742 112.718 454.381 113.304 455.213C113.89 456.033 114.347 457.018 114.675 458.166C115.015 459.303 115.267 460.568 115.431 461.963V463.141C115.279 464.5 115.021 465.742 114.658 466.867C114.294 467.992 113.814 468.965 113.216 469.785C112.618 470.605 111.88 471.238 111.001 471.684C110.134 472.129 109.109 472.352 107.925 472.352C106.765 472.352 105.716 472.111 104.779 471.631C103.853 471.15 103.056 470.477 102.388 469.609C101.732 468.742 101.228 467.723 100.876 466.551C100.525 465.367 100.349 464.084 100.349 462.701ZM104.585 462.332V462.701C104.585 463.568 104.667 464.377 104.831 465.127C105.007 465.877 105.271 466.539 105.622 467.113C105.986 467.676 106.443 468.121 106.993 468.449C107.556 468.766 108.218 468.924 108.98 468.924C109.976 468.924 110.79 468.713 111.423 468.291C112.068 467.869 112.56 467.301 112.9 466.586C113.251 465.859 113.497 465.051 113.638 464.16V460.979C113.568 460.287 113.421 459.643 113.199 459.045C112.988 458.447 112.7 457.926 112.337 457.48C111.974 457.023 111.517 456.672 110.966 456.426C110.415 456.168 109.765 456.039 109.015 456.039C108.253 456.039 107.591 456.203 107.029 456.531C106.466 456.859 106.003 457.311 105.64 457.885C105.288 458.459 105.025 459.127 104.849 459.889C104.673 460.65 104.585 461.465 104.585 462.332ZM130.258 472.352C128.851 472.352 127.58 472.123 126.443 471.666C125.318 471.197 124.357 470.547 123.56 469.715C122.775 468.883 122.172 467.904 121.75 466.779C121.328 465.654 121.117 464.441 121.117 463.141V462.438C121.117 460.949 121.334 459.602 121.768 458.395C122.201 457.188 122.805 456.156 123.578 455.301C124.351 454.434 125.266 453.771 126.32 453.314C127.375 452.857 128.518 452.629 129.748 452.629C131.107 452.629 132.297 452.857 133.316 453.314C134.336 453.771 135.18 454.416 135.848 455.248C136.527 456.068 137.031 457.047 137.359 458.184C137.699 459.32 137.869 460.574 137.869 461.945V463.756H123.174V460.715H133.685V460.381C133.662 459.619 133.51 458.904 133.228 458.236C132.959 457.568 132.543 457.029 131.98 456.619C131.418 456.209 130.668 456.004 129.73 456.004C129.027 456.004 128.4 456.156 127.85 456.461C127.31 456.754 126.859 457.182 126.496 457.744C126.133 458.307 125.851 458.986 125.652 459.783C125.465 460.568 125.371 461.453 125.371 462.438V463.141C125.371 463.973 125.482 464.746 125.705 465.461C125.939 466.164 126.279 466.779 126.725 467.307C127.17 467.834 127.709 468.25 128.342 468.555C128.975 468.848 129.695 468.994 130.504 468.994C131.523 468.994 132.432 468.789 133.228 468.379C134.025 467.969 134.717 467.389 135.303 466.639L137.535 468.801C137.125 469.398 136.592 469.973 135.935 470.523C135.279 471.062 134.476 471.502 133.527 471.842C132.59 472.182 131.5 472.352 130.258 472.352ZM155.06 457.041V472H150.823V452.98H154.814L155.06 457.041ZM154.304 461.787L152.933 461.77C152.945 460.422 153.132 459.186 153.495 458.061C153.87 456.936 154.386 455.969 155.042 455.16C155.71 454.352 156.507 453.73 157.433 453.297C158.359 452.852 159.39 452.629 160.527 452.629C161.441 452.629 162.267 452.758 163.005 453.016C163.755 453.262 164.394 453.666 164.921 454.229C165.46 454.791 165.87 455.523 166.152 456.426C166.433 457.316 166.573 458.412 166.573 459.713V472H162.32V459.695C162.32 458.781 162.185 458.061 161.915 457.533C161.657 456.994 161.277 456.613 160.773 456.391C160.28 456.156 159.665 456.039 158.927 456.039C158.2 456.039 157.55 456.191 156.976 456.496C156.402 456.801 155.915 457.217 155.517 457.744C155.13 458.271 154.831 458.881 154.62 459.572C154.409 460.264 154.304 461.002 154.304 461.787ZM181.98 468.186V459.115C181.98 458.436 181.857 457.85 181.611 457.357C181.365 456.865 180.99 456.484 180.486 456.215C179.994 455.945 179.373 455.811 178.623 455.811C177.931 455.811 177.334 455.928 176.83 456.162C176.326 456.396 175.933 456.713 175.652 457.111C175.371 457.51 175.23 457.961 175.23 458.465H171.012C171.012 457.715 171.193 456.988 171.556 456.285C171.92 455.582 172.447 454.955 173.139 454.404C173.83 453.854 174.656 453.42 175.617 453.104C176.578 452.787 177.656 452.629 178.851 452.629C180.281 452.629 181.547 452.869 182.648 453.35C183.762 453.83 184.635 454.557 185.267 455.529C185.912 456.49 186.234 457.697 186.234 459.15V467.605C186.234 468.473 186.293 469.252 186.41 469.943C186.539 470.623 186.721 471.215 186.955 471.719V472H182.613C182.414 471.543 182.256 470.963 182.139 470.26C182.033 469.545 181.98 468.854 181.98 468.186ZM182.596 460.434L182.631 463.053H179.59C178.805 463.053 178.113 463.129 177.515 463.281C176.918 463.422 176.42 463.633 176.021 463.914C175.623 464.195 175.324 464.535 175.125 464.934C174.926 465.332 174.826 465.783 174.826 466.287C174.826 466.791 174.943 467.254 175.178 467.676C175.412 468.086 175.752 468.408 176.197 468.643C176.654 468.877 177.205 468.994 177.849 468.994C178.717 468.994 179.473 468.818 180.117 468.467C180.773 468.104 181.289 467.664 181.664 467.148C182.039 466.621 182.238 466.123 182.262 465.654L183.633 467.535C183.492 468.016 183.252 468.531 182.912 469.082C182.572 469.633 182.127 470.16 181.576 470.664C181.037 471.156 180.387 471.561 179.625 471.877C178.875 472.193 178.008 472.352 177.023 472.352C175.781 472.352 174.674 472.105 173.701 471.613C172.728 471.109 171.967 470.436 171.416 469.592C170.865 468.736 170.59 467.77 170.59 466.691C170.59 465.684 170.777 464.793 171.152 464.02C171.539 463.234 172.101 462.578 172.84 462.051C173.59 461.523 174.504 461.125 175.582 460.855C176.66 460.574 177.89 460.434 179.273 460.434H182.596ZM195.26 456.848V472H191.024V452.98H195.014L195.26 456.848ZM194.575 461.787L193.133 461.77C193.133 460.457 193.297 459.244 193.625 458.131C193.954 457.018 194.434 456.051 195.067 455.23C195.7 454.398 196.485 453.76 197.422 453.314C198.372 452.857 199.467 452.629 200.709 452.629C201.577 452.629 202.368 452.758 203.083 453.016C203.809 453.262 204.436 453.654 204.963 454.193C205.502 454.732 205.913 455.424 206.194 456.268C206.487 457.111 206.633 458.131 206.633 459.326V472H202.397V459.695C202.397 458.77 202.256 458.043 201.975 457.516C201.706 456.988 201.313 456.613 200.797 456.391C200.293 456.156 199.69 456.039 198.987 456.039C198.19 456.039 197.51 456.191 196.948 456.496C196.397 456.801 195.946 457.217 195.594 457.744C195.243 458.271 194.985 458.881 194.821 459.572C194.657 460.264 194.575 461.002 194.575 461.787ZM206.37 460.662L204.383 461.102C204.383 459.953 204.541 458.869 204.858 457.85C205.186 456.818 205.661 455.916 206.282 455.143C206.915 454.357 207.694 453.742 208.62 453.297C209.545 452.852 210.606 452.629 211.801 452.629C212.774 452.629 213.641 452.764 214.403 453.033C215.176 453.291 215.833 453.701 216.372 454.264C216.911 454.826 217.321 455.559 217.602 456.461C217.883 457.352 218.024 458.43 218.024 459.695V472H213.77V459.678C213.77 458.717 213.629 457.973 213.348 457.445C213.079 456.918 212.692 456.555 212.188 456.355C211.684 456.145 211.081 456.039 210.377 456.039C209.721 456.039 209.141 456.162 208.637 456.408C208.145 456.643 207.729 456.977 207.389 457.41C207.049 457.832 206.791 458.318 206.616 458.869C206.452 459.42 206.37 460.018 206.37 460.662ZM231.128 472.352C229.722 472.352 228.45 472.123 227.314 471.666C226.189 471.197 225.228 470.547 224.431 469.715C223.646 468.883 223.042 467.904 222.62 466.779C222.198 465.654 221.987 464.441 221.987 463.141V462.438C221.987 460.949 222.204 459.602 222.638 458.395C223.071 457.188 223.675 456.156 224.448 455.301C225.222 454.434 226.136 453.771 227.191 453.314C228.245 452.857 229.388 452.629 230.618 452.629C231.978 452.629 233.167 452.857 234.187 453.314C235.206 453.771 236.05 454.416 236.718 455.248C237.398 456.068 237.901 457.047 238.23 458.184C238.569 459.32 238.739 460.574 238.739 461.945V463.756H224.044V460.715H234.556V460.381C234.532 459.619 234.38 458.904 234.099 458.236C233.829 457.568 233.413 457.029 232.851 456.619C232.288 456.209 231.538 456.004 230.601 456.004C229.898 456.004 229.271 456.156 228.72 456.461C228.181 456.754 227.73 457.182 227.366 457.744C227.003 458.307 226.722 458.986 226.523 459.783C226.335 460.568 226.241 461.453 226.241 462.438V463.141C226.241 463.973 226.353 464.746 226.575 465.461C226.81 466.164 227.15 466.779 227.595 467.307C228.04 467.834 228.579 468.25 229.212 468.555C229.845 468.848 230.566 468.994 231.374 468.994C232.394 468.994 233.302 468.789 234.099 468.379C234.896 467.969 235.587 467.389 236.173 466.639L238.405 468.801C237.995 469.398 237.462 469.973 236.806 470.523C236.15 471.062 235.347 471.502 234.398 471.842C233.46 472.182 232.37 472.352 231.128 472.352Z" fill="#FAFAFF"/>
<path d="M68.3223 554.455H61.6602V550.957H68.3223C69.4824 550.957 70.4199 550.77 71.1348 550.395C71.8496 550.02 72.3711 549.504 72.6992 548.848C73.0391 548.18 73.209 547.418 73.209 546.562C73.209 545.754 73.0391 544.998 72.6992 544.295C72.3711 543.58 71.8496 543.006 71.1348 542.572C70.4199 542.139 69.4824 541.922 68.3223 541.922H63.0137V564H58.6016V538.406H68.3223C70.3027 538.406 71.9844 538.758 73.3672 539.461C74.7617 540.152 75.8223 541.113 76.5488 542.344C77.2754 543.562 77.6387 544.957 77.6387 546.527C77.6387 548.18 77.2754 549.598 76.5488 550.781C75.8223 551.965 74.7617 552.873 73.3672 553.506C71.9844 554.139 70.3027 554.455 68.3223 554.455ZM92.0436 560.186V551.115C92.0436 550.436 91.9205 549.85 91.6745 549.357C91.4284 548.865 91.0534 548.484 90.5495 548.215C90.0573 547.945 89.4362 547.811 88.6862 547.811C87.9948 547.811 87.3971 547.928 86.8932 548.162C86.3893 548.396 85.9967 548.713 85.7155 549.111C85.4342 549.51 85.2936 549.961 85.2936 550.465H81.0748C81.0748 549.715 81.2565 548.988 81.6198 548.285C81.983 547.582 82.5104 546.955 83.2018 546.404C83.8932 545.854 84.7194 545.42 85.6803 545.104C86.6413 544.787 87.7194 544.629 88.9147 544.629C90.3444 544.629 91.61 544.869 92.7116 545.35C93.8248 545.83 94.6979 546.557 95.3307 547.529C95.9752 548.49 96.2975 549.697 96.2975 551.15V559.605C96.2975 560.473 96.3561 561.252 96.4733 561.943C96.6022 562.623 96.7838 563.215 97.0182 563.719V564H92.6764C92.4772 563.543 92.319 562.963 92.2018 562.26C92.0963 561.545 92.0436 560.854 92.0436 560.186ZM92.6588 552.434L92.694 555.053H89.653C88.8678 555.053 88.1764 555.129 87.5788 555.281C86.9811 555.422 86.483 555.633 86.0846 555.914C85.6862 556.195 85.3873 556.535 85.1881 556.934C84.9889 557.332 84.8893 557.783 84.8893 558.287C84.8893 558.791 85.0065 559.254 85.2409 559.676C85.4752 560.086 85.8151 560.408 86.2604 560.643C86.7174 560.877 87.2682 560.994 87.9127 560.994C88.7799 560.994 89.5358 560.818 90.1803 560.467C90.8366 560.104 91.3522 559.664 91.7272 559.148C92.1022 558.621 92.3014 558.123 92.3248 557.654L93.6959 559.535C93.5553 560.016 93.3151 560.531 92.9752 561.082C92.6354 561.633 92.1901 562.16 91.6393 562.664C91.1002 563.156 90.4498 563.561 89.6881 563.877C88.9381 564.193 88.0709 564.352 87.0866 564.352C85.8444 564.352 84.737 564.105 83.7643 563.613C82.7916 563.109 82.0299 562.436 81.4791 561.592C80.9284 560.736 80.653 559.77 80.653 558.691C80.653 557.684 80.8405 556.793 81.2155 556.02C81.6022 555.234 82.1647 554.578 82.903 554.051C83.653 553.523 84.567 553.125 85.6452 552.855C86.7233 552.574 87.9538 552.434 89.3366 552.434H92.6588ZM113.269 544.98H117.118V563.473C117.118 565.184 116.755 566.637 116.029 567.832C115.302 569.027 114.288 569.936 112.988 570.557C111.687 571.189 110.181 571.506 108.47 571.506C107.743 571.506 106.935 571.4 106.044 571.189C105.165 570.979 104.31 570.639 103.478 570.17C102.658 569.713 101.972 569.109 101.421 568.359L103.408 565.863C104.087 566.672 104.837 567.264 105.658 567.639C106.478 568.014 107.339 568.201 108.241 568.201C109.214 568.201 110.04 568.02 110.72 567.656C111.411 567.305 111.945 566.783 112.32 566.092C112.695 565.4 112.882 564.557 112.882 563.561V549.287L113.269 544.98ZM100.349 554.701V554.332C100.349 552.891 100.525 551.578 100.876 550.395C101.228 549.199 101.732 548.174 102.388 547.318C103.044 546.451 103.841 545.789 104.779 545.332C105.716 544.863 106.777 544.629 107.96 544.629C109.191 544.629 110.24 544.852 111.107 545.297C111.986 545.742 112.718 546.381 113.304 547.213C113.89 548.033 114.347 549.018 114.675 550.166C115.015 551.303 115.267 552.568 115.431 553.963V555.141C115.279 556.5 115.021 557.742 114.658 558.867C114.294 559.992 113.814 560.965 113.216 561.785C112.618 562.605 111.88 563.238 111.001 563.684C110.134 564.129 109.109 564.352 107.925 564.352C106.765 564.352 105.716 564.111 104.779 563.631C103.853 563.15 103.056 562.477 102.388 561.609C101.732 560.742 101.228 559.723 100.876 558.551C100.525 557.367 100.349 556.084 100.349 554.701ZM104.585 554.332V554.701C104.585 555.568 104.667 556.377 104.831 557.127C105.007 557.877 105.271 558.539 105.622 559.113C105.986 559.676 106.443 560.121 106.993 560.449C107.556 560.766 108.218 560.924 108.98 560.924C109.976 560.924 110.79 560.713 111.423 560.291C112.068 559.869 112.56 559.301 112.9 558.586C113.251 557.859 113.497 557.051 113.638 556.16V552.979C113.568 552.287 113.421 551.643 113.199 551.045C112.988 550.447 112.7 549.926 112.337 549.48C111.974 549.023 111.517 548.672 110.966 548.426C110.415 548.168 109.765 548.039 109.015 548.039C108.253 548.039 107.591 548.203 107.029 548.531C106.466 548.859 106.003 549.311 105.64 549.885C105.288 550.459 105.025 551.127 104.849 551.889C104.673 552.65 104.585 553.465 104.585 554.332ZM130.258 564.352C128.851 564.352 127.58 564.123 126.443 563.666C125.318 563.197 124.357 562.547 123.56 561.715C122.775 560.883 122.172 559.904 121.75 558.779C121.328 557.654 121.117 556.441 121.117 555.141V554.438C121.117 552.949 121.334 551.602 121.768 550.395C122.201 549.188 122.805 548.156 123.578 547.301C124.351 546.434 125.266 545.771 126.32 545.314C127.375 544.857 128.518 544.629 129.748 544.629C131.107 544.629 132.297 544.857 133.316 545.314C134.336 545.771 135.18 546.416 135.848 547.248C136.527 548.068 137.031 549.047 137.359 550.184C137.699 551.32 137.869 552.574 137.869 553.945V555.756H123.174V552.715H133.685V552.381C133.662 551.619 133.51 550.904 133.228 550.236C132.959 549.568 132.543 549.029 131.98 548.619C131.418 548.209 130.668 548.004 129.73 548.004C129.027 548.004 128.4 548.156 127.85 548.461C127.31 548.754 126.859 549.182 126.496 549.744C126.133 550.307 125.851 550.986 125.652 551.783C125.465 552.568 125.371 553.453 125.371 554.438V555.141C125.371 555.973 125.482 556.746 125.705 557.461C125.939 558.164 126.279 558.779 126.725 559.307C127.17 559.834 127.709 560.25 128.342 560.555C128.975 560.848 129.695 560.994 130.504 560.994C131.523 560.994 132.432 560.789 133.228 560.379C134.025 559.969 134.717 559.389 135.303 558.639L137.535 560.801C137.125 561.398 136.592 561.973 135.935 562.523C135.279 563.062 134.476 563.502 133.527 563.842C132.59 564.182 131.5 564.352 130.258 564.352ZM155.06 549.041V564H150.823V544.98H154.814L155.06 549.041ZM154.304 553.787L152.933 553.77C152.945 552.422 153.132 551.186 153.495 550.061C153.87 548.936 154.386 547.969 155.042 547.16C155.71 546.352 156.507 545.73 157.433 545.297C158.359 544.852 159.39 544.629 160.527 544.629C161.441 544.629 162.267 544.758 163.005 545.016C163.755 545.262 164.394 545.666 164.921 546.229C165.46 546.791 165.87 547.523 166.152 548.426C166.433 549.316 166.573 550.412 166.573 551.713V564H162.32V551.695C162.32 550.781 162.185 550.061 161.915 549.533C161.657 548.994 161.277 548.613 160.773 548.391C160.28 548.156 159.665 548.039 158.927 548.039C158.2 548.039 157.55 548.191 156.976 548.496C156.402 548.801 155.915 549.217 155.517 549.744C155.13 550.271 154.831 550.881 154.62 551.572C154.409 552.264 154.304 553.002 154.304 553.787ZM181.98 560.186V551.115C181.98 550.436 181.857 549.85 181.611 549.357C181.365 548.865 180.99 548.484 180.486 548.215C179.994 547.945 179.373 547.811 178.623 547.811C177.931 547.811 177.334 547.928 176.83 548.162C176.326 548.396 175.933 548.713 175.652 549.111C175.371 549.51 175.23 549.961 175.23 550.465H171.012C171.012 549.715 171.193 548.988 171.556 548.285C171.92 547.582 172.447 546.955 173.139 546.404C173.83 545.854 174.656 545.42 175.617 545.104C176.578 544.787 177.656 544.629 178.851 544.629C180.281 544.629 181.547 544.869 182.648 545.35C183.762 545.83 184.635 546.557 185.267 547.529C185.912 548.49 186.234 549.697 186.234 551.15V559.605C186.234 560.473 186.293 561.252 186.41 561.943C186.539 562.623 186.721 563.215 186.955 563.719V564H182.613C182.414 563.543 182.256 562.963 182.139 562.26C182.033 561.545 181.98 560.854 181.98 560.186ZM182.596 552.434L182.631 555.053H179.59C178.805 555.053 178.113 555.129 177.515 555.281C176.918 555.422 176.42 555.633 176.021 555.914C175.623 556.195 175.324 556.535 175.125 556.934C174.926 557.332 174.826 557.783 174.826 558.287C174.826 558.791 174.943 559.254 175.178 559.676C175.412 560.086 175.752 560.408 176.197 560.643C176.654 560.877 177.205 560.994 177.849 560.994C178.717 560.994 179.473 560.818 180.117 560.467C180.773 560.104 181.289 559.664 181.664 559.148C182.039 558.621 182.238 558.123 182.262 557.654L183.633 559.535C183.492 560.016 183.252 560.531 182.912 561.082C182.572 561.633 182.127 562.16 181.576 562.664C181.037 563.156 180.387 563.561 179.625 563.877C178.875 564.193 178.008 564.352 177.023 564.352C175.781 564.352 174.674 564.105 173.701 563.613C172.728 563.109 171.967 562.436 171.416 561.592C170.865 560.736 170.59 559.77 170.59 558.691C170.59 557.684 170.777 556.793 171.152 556.02C171.539 555.234 172.101 554.578 172.84 554.051C173.59 553.523 174.504 553.125 175.582 552.855C176.66 552.574 177.89 552.434 179.273 552.434H182.596ZM195.26 548.848V564H191.024V544.98H195.014L195.26 548.848ZM194.575 553.787L193.133 553.77C193.133 552.457 193.297 551.244 193.625 550.131C193.954 549.018 194.434 548.051 195.067 547.23C195.7 546.398 196.485 545.76 197.422 545.314C198.372 544.857 199.467 544.629 200.709 544.629C201.577 544.629 202.368 544.758 203.083 545.016C203.809 545.262 204.436 545.654 204.963 546.193C205.502 546.732 205.913 547.424 206.194 548.268C206.487 549.111 206.633 550.131 206.633 551.326V564H202.397V551.695C202.397 550.77 202.256 550.043 201.975 549.516C201.706 548.988 201.313 548.613 200.797 548.391C200.293 548.156 199.69 548.039 198.987 548.039C198.19 548.039 197.51 548.191 196.948 548.496C196.397 548.801 195.946 549.217 195.594 549.744C195.243 550.271 194.985 550.881 194.821 551.572C194.657 552.264 194.575 553.002 194.575 553.787ZM206.37 552.662L204.383 553.102C204.383 551.953 204.541 550.869 204.858 549.85C205.186 548.818 205.661 547.916 206.282 547.143C206.915 546.357 207.694 545.742 208.62 545.297C209.545 544.852 210.606 544.629 211.801 544.629C212.774 544.629 213.641 544.764 214.403 545.033C215.176 545.291 215.833 545.701 216.372 546.264C216.911 546.826 217.321 547.559 217.602 548.461C217.883 549.352 218.024 550.43 218.024 551.695V564H213.77V551.678C213.77 550.717 213.629 549.973 213.348 549.445C213.079 548.918 212.692 548.555 212.188 548.355C211.684 548.145 211.081 548.039 210.377 548.039C209.721 548.039 209.141 548.162 208.637 548.408C208.145 548.643 207.729 548.977 207.389 549.41C207.049 549.832 206.791 550.318 206.616 550.869C206.452 551.42 206.37 552.018 206.37 552.662ZM231.128 564.352C229.722 564.352 228.45 564.123 227.314 563.666C226.189 563.197 225.228 562.547 224.431 561.715C223.646 560.883 223.042 559.904 222.62 558.779C222.198 557.654 221.987 556.441 221.987 555.141V554.438C221.987 552.949 222.204 551.602 222.638 550.395C223.071 549.188 223.675 548.156 224.448 547.301C225.222 546.434 226.136 545.771 227.191 545.314C228.245 544.857 229.388 544.629 230.618 544.629C231.978 544.629 233.167 544.857 234.187 545.314C235.206 545.771 236.05 546.416 236.718 547.248C237.398 548.068 237.901 549.047 238.23 550.184C238.569 551.32 238.739 552.574 238.739 553.945V555.756H224.044V552.715H234.556V552.381C234.532 551.619 234.38 550.904 234.099 550.236C233.829 549.568 233.413 549.029 232.851 548.619C232.288 548.209 231.538 548.004 230.601 548.004C229.898 548.004 229.271 548.156 228.72 548.461C228.181 548.754 227.73 549.182 227.366 549.744C227.003 550.307 226.722 550.986 226.523 551.783C226.335 552.568 226.241 553.453 226.241 554.438V555.141C226.241 555.973 226.353 556.746 226.575 557.461C226.81 558.164 227.15 558.779 227.595 559.307C228.04 559.834 228.579 560.25 229.212 560.555C229.845 560.848 230.566 560.994 231.374 560.994C232.394 560.994 233.302 560.789 234.099 560.379C234.896 559.969 235.587 559.389 236.173 558.639L238.405 560.801C237.995 561.398 237.462 561.973 236.806 562.523C236.15 563.062 235.347 563.502 234.398 563.842C233.46 564.182 232.37 564.352 231.128 564.352Z" fill="#FAFAFF"/>
<path d="M64 187H100M64 175H100M64 199H100" stroke="#FFF0D6" stroke-width="4" stroke-linecap="round" stroke-linejoin="round"/>
<defs>
<linearGradient id="paint0_linear_2008_490" x1="251" y1="216" x2="251" y2="985" gradientUnits="userSpaceOnUse">
<stop stop-color="#3E3E4F"/>
<stop offset="1" stop-color="#020210"/>
</linearGradient>
<linearGradient id="paint1_linear_2008_490" x1="251" y1="491" x2="251" y2="845" gradientUnits="userSpaceOnUse">
<stop stop-color="#624119"/>
<stop offset="1" stop-color="#271602"/>
</linearGradient>
<linearGradient id="paint2_linear_2008_490" x1="46" y1="547" x2="458" y2="547" gradientUnits="userSpaceOnUse">
<stop stop-color="#271602"/>
<stop offset="0.5" stop-color="#271602"/>
<stop offset="1" stop-color="#271602" stop-opacity="0.5"/>
</linearGradient>
<clipPath id="clip0_2008_490">
<rect x="45" y="47" width="412" height="892" rx="18" fill="white"/>
</clipPath>
</defs>
</svg>
