<svg width="502" height="985" viewBox="0 0 502 985" fill="none" xmlns="http://www.w3.org/2000/svg">
<rect y="47" width="502" height="112" fill="#7F7F7F"/>
<rect y="216" width="502" height="769" fill="url(#paint0_linear_2004_329)"/>
<rect y="159" width="502" height="57" fill="#0F2802"/>
<path d="M64 187H100M64 175H100M64 199H100" stroke="#E7F6B4" stroke-width="4" stroke-linecap="round" stroke-linejoin="round"/>
<g clip-path="url(#clip0_2004_329)">
<path d="M71.0781 82.7012H71.2148C71.8438 82.7012 72.3678 82.6191 72.7871 82.4551C73.2109 82.2865 73.5482 82.054 73.7988 81.7578C74.0495 81.4616 74.2295 81.113 74.3389 80.7119C74.4482 80.3109 74.5029 79.8757 74.5029 79.4062V77.6904C74.5029 77.2848 74.4596 76.9294 74.373 76.624C74.291 76.3141 74.1725 76.0566 74.0176 75.8516C73.8672 75.6419 73.6917 75.4847 73.4912 75.3799C73.2952 75.2751 73.0833 75.2227 72.8555 75.2227C72.6048 75.2227 72.3792 75.2796 72.1787 75.3936C71.9827 75.5029 71.8164 75.6556 71.6797 75.8516C71.5475 76.043 71.445 76.2686 71.3721 76.5283C71.3037 76.7835 71.2695 77.057 71.2695 77.3486C71.2695 77.6221 71.3014 77.8864 71.3652 78.1416C71.4336 78.3923 71.5339 78.6156 71.666 78.8115C71.7982 79.0075 71.9645 79.1624 72.165 79.2764C72.3656 79.3903 72.6003 79.4473 72.8691 79.4473C73.1243 79.4473 73.359 79.3994 73.5732 79.3037C73.7874 79.2035 73.9743 79.069 74.1338 78.9004C74.2933 78.7318 74.4186 78.5426 74.5098 78.333C74.6009 78.1234 74.651 77.9092 74.6602 77.6904L75.2891 77.8818C75.2891 78.2282 75.2161 78.57 75.0703 78.9072C74.929 79.2399 74.7308 79.5452 74.4756 79.8232C74.2249 80.0967 73.931 80.3154 73.5938 80.4795C73.2611 80.6436 72.8988 80.7256 72.5068 80.7256C72.0329 80.7256 71.6136 80.6367 71.249 80.459C70.889 80.2767 70.5882 80.0306 70.3467 79.7207C70.1097 79.4108 69.932 79.0553 69.8135 78.6543C69.695 78.2533 69.6357 77.8317 69.6357 77.3896C69.6357 76.9111 69.7087 76.4622 69.8545 76.043C70.0003 75.6237 70.2122 75.2546 70.4902 74.9355C70.7682 74.612 71.1055 74.3613 71.502 74.1836C71.903 74.0013 72.3564 73.9102 72.8623 73.9102C73.4001 73.9102 73.8717 74.015 74.2773 74.2246C74.6829 74.4342 75.0247 74.7236 75.3027 75.0928C75.5807 75.4619 75.7904 75.8903 75.9316 76.3779C76.0729 76.8656 76.1436 77.3896 76.1436 77.9502V78.5312C76.1436 79.1191 76.0911 79.6865 75.9863 80.2334C75.8815 80.7757 75.7106 81.2793 75.4736 81.7441C75.2412 82.2044 74.9336 82.61 74.5508 82.9609C74.1725 83.3073 73.7077 83.5785 73.1562 83.7744C72.6094 83.9658 71.9668 84.0615 71.2285 84.0615H71.0781V82.7012ZM78.1019 83.1797C78.1019 82.9245 78.1885 82.7103 78.3617 82.5371C78.5349 82.3594 78.7696 82.2705 79.0658 82.2705C79.3666 82.2705 79.6013 82.3594 79.7699 82.5371C79.9431 82.7103 80.0296 82.9245 80.0296 83.1797C80.0296 83.4349 79.9431 83.6491 79.7699 83.8223C79.6013 83.9954 79.3666 84.082 79.0658 84.082C78.7696 84.082 78.5349 83.9954 78.3617 83.8223C78.1885 83.6491 78.1019 83.4349 78.1019 83.1797ZM78.1088 77.3555C78.1088 77.1003 78.1953 76.8861 78.3685 76.7129C78.5417 76.5352 78.7764 76.4463 79.0726 76.4463C79.3734 76.4463 79.6081 76.5352 79.7767 76.7129C79.9499 76.8861 80.0365 77.1003 80.0365 77.3555C80.0365 77.6107 79.9499 77.8249 79.7767 77.998C79.6081 78.1712 79.3734 78.2578 79.0726 78.2578C78.7764 78.2578 78.5417 78.1712 78.3685 77.998C78.1953 77.8249 78.1088 77.6107 78.1088 77.3555ZM83.7517 78.2783H84.7361C85.1189 78.2783 85.4356 78.2122 85.6862 78.0801C85.9415 77.9479 86.1306 77.7656 86.2536 77.5332C86.3767 77.3008 86.4382 77.0342 86.4382 76.7334C86.4382 76.4189 86.3812 76.1501 86.2673 75.9268C86.1579 75.6989 85.9893 75.5234 85.7614 75.4004C85.5381 75.2773 85.2533 75.2158 84.907 75.2158C84.6153 75.2158 84.351 75.2751 84.114 75.3936C83.8816 75.5075 83.697 75.6715 83.5603 75.8857C83.4236 76.0954 83.3552 76.346 83.3552 76.6377H81.7009C81.7009 76.109 81.8399 75.6396 82.1179 75.2295C82.3959 74.8193 82.7741 74.498 83.2527 74.2656C83.7357 74.0286 84.278 73.9102 84.8796 73.9102C85.5222 73.9102 86.0827 74.0173 86.5612 74.2314C87.0443 74.4411 87.4203 74.7555 87.6892 75.1748C87.9581 75.5941 88.0925 76.1136 88.0925 76.7334C88.0925 77.016 88.0264 77.3031 87.8943 77.5947C87.7621 77.8864 87.5661 78.153 87.3064 78.3945C87.0466 78.6315 86.723 78.8252 86.3357 78.9756C85.9483 79.1214 85.4994 79.1943 84.989 79.1943H83.7517V78.2783ZM83.7517 79.5635V78.6611H84.989C85.5723 78.6611 86.0691 78.7295 86.4792 78.8662C86.8939 79.0029 87.2312 79.1921 87.4909 79.4336C87.7507 79.6706 87.9398 79.9417 88.0583 80.2471C88.1814 80.5524 88.2429 80.876 88.2429 81.2178C88.2429 81.6826 88.1586 82.0973 87.99 82.4619C87.8259 82.8219 87.5912 83.1273 87.2859 83.3779C86.9805 83.6286 86.6228 83.8177 86.2126 83.9453C85.807 84.0729 85.365 84.1367 84.8864 84.1367C84.4581 84.1367 84.0479 84.0775 83.656 83.959C83.264 83.8405 82.9131 83.665 82.6032 83.4326C82.2933 83.1956 82.0473 82.9017 81.865 82.5508C81.6872 82.1953 81.5984 81.7852 81.5984 81.3203H83.2458C83.2458 81.6165 83.3142 81.8786 83.4509 82.1064C83.5922 82.3298 83.7881 82.5052 84.0388 82.6328C84.294 82.7604 84.5857 82.8242 84.9138 82.8242C85.2601 82.8242 85.5586 82.7627 85.8093 82.6396C86.0599 82.5166 86.2514 82.3343 86.3835 82.0928C86.5202 81.8512 86.5886 81.5596 86.5886 81.2178C86.5886 80.8304 86.5134 80.516 86.363 80.2744C86.2126 80.0329 85.9984 79.8551 85.7204 79.7412C85.4424 79.6227 85.1143 79.5635 84.7361 79.5635H83.7517ZM96.5382 78.1895V79.8164C96.5382 80.5957 96.4607 81.2611 96.3057 81.8125C96.1554 82.3594 95.9366 82.8037 95.6495 83.1455C95.3624 83.4873 95.0183 83.738 94.6173 83.8975C94.2208 84.057 93.7764 84.1367 93.2843 84.1367C92.8923 84.1367 92.5277 84.0866 92.1905 83.9863C91.8578 83.8861 91.557 83.7288 91.2882 83.5146C91.0193 83.3005 90.7891 83.0247 90.5977 82.6875C90.4109 82.3457 90.2651 81.9378 90.1602 81.4639C90.06 80.9899 90.0098 80.4408 90.0098 79.8164V78.1895C90.0098 77.4056 90.0873 76.7448 90.2423 76.207C90.3972 75.6647 90.6182 75.2249 90.9054 74.8877C91.1925 74.5459 91.5343 74.2975 91.9307 74.1426C92.3318 73.9876 92.7784 73.9102 93.2706 73.9102C93.6671 73.9102 94.0317 73.9603 94.3643 74.0605C94.7016 74.1562 95.0024 74.3089 95.2667 74.5186C95.5356 74.7282 95.7634 75.0016 95.9503 75.3389C96.1417 75.6715 96.2875 76.0749 96.3878 76.5488C96.488 77.0182 96.5382 77.5651 96.5382 78.1895ZM94.8907 80.0488V77.9434C94.8907 77.5469 94.8679 77.1982 94.8223 76.8975C94.7768 76.5921 94.7084 76.3346 94.6173 76.125C94.5307 75.9108 94.4213 75.7376 94.2891 75.6055C94.157 75.4688 94.0066 75.3708 93.838 75.3115C93.6693 75.2477 93.4802 75.2158 93.2706 75.2158C93.0154 75.2158 92.7875 75.266 92.587 75.3662C92.3865 75.4619 92.2179 75.6169 92.0811 75.8311C91.9444 76.0452 91.8396 76.3278 91.7667 76.6787C91.6983 77.0251 91.6641 77.4466 91.6641 77.9434V80.0488C91.6641 80.4499 91.6869 80.8031 91.7325 81.1084C91.7781 81.4137 91.8464 81.6758 91.9376 81.8945C92.0287 82.1087 92.1381 82.2865 92.2657 82.4277C92.3979 82.5645 92.5483 82.6647 92.7169 82.7285C92.8901 82.7923 93.0792 82.8242 93.2843 82.8242C93.544 82.8242 93.7742 82.7741 93.9747 82.6738C94.1752 82.5736 94.3438 82.4141 94.4805 82.1953C94.6173 81.972 94.7198 81.6826 94.7882 81.3271C94.8565 80.9717 94.8907 80.5456 94.8907 80.0488Z" fill="#1D1B20"/>
<path opacity="0.1" d="M395.5 73.4167C392.1 73.4167 389.125 74.9042 387 77.2417L395.5 87.5833L404 77.2417C401.875 74.9042 398.9 73.4167 395.5 73.4167Z" fill="#1D1B20"/>
<path d="M418.583 73.4167L404.417 87.5833H418.583V73.4167Z" fill="#1D1B20"/>
<path opacity="0.3" d="M430.5 73H427.5V74.5H426C425.448 74.5 425 75.0037 425 75.625V86.875C425 87.4963 425.448 88 426 88H432C432.552 88 433 87.4963 433 86.875V75.625C433 75.0037 432.552 74.5 432 74.5H430.5V73Z" fill="#1D1B20"/>
<path d="M425 81C425 81.5833 425 86.3667 425 86.95C425 87.5299 425.448 88 426 88H432C432.552 88 433 87.5299 433 86.95C433 86.3667 433 81.5833 433 81H425Z" fill="#1D1B20"/>
<path fill-rule="evenodd" clip-rule="evenodd" d="M251 65C244.373 65 239 70.3731 239 77C239 83.6269 244.373 89 251 89C257.627 89 263 83.6269 263 77C263 70.3731 257.627 65 251 65Z" fill="#1D1B20"/>
<rect x="197" y="925" width="108" height="4" rx="2" fill="#1D1B20"/>
</g>
<rect x="41" y="43" width="420" height="900" rx="22" stroke="#CAC4D0" stroke-width="8"/>
<path d="M502 985H0V0H502V985ZM45 47V939H457V47H45Z" fill="#D9D9D9"/>
<circle cx="380.5" cy="196.5" r="19.5" fill="#E7F6B4"/>
<path d="M368.38 180.51C374.137 180.51 379.199 186.946 382.12 196.678C382.983 196.561 383.864 196.5 384.76 196.5C395.529 196.5 404.26 205.231 404.26 216H352C352 196.4 359.334 180.51 368.38 180.51Z" fill="#9898AD"/>
<rect x="63.5" y="495.5" width="375" height="349" rx="22.5" fill="url(#paint1_linear_2004_329)" stroke="#96AA4D" stroke-width="5"/>
<path d="M254.68 893.38C252.833 894.902 250.167 894.902 248.32 893.38L217.651 868.109C214.031 865.126 216.14 859.25 220.83 859.25H282.17C286.86 859.25 288.969 865.126 285.349 868.109L254.68 893.38Z" fill="#FAFAFF"/>
<path d="M196.646 545.502V549H183.796V545.502H196.646ZM185.026 523.406V549H180.614V523.406H185.026ZM208.379 549.352C206.972 549.352 205.701 549.123 204.564 548.666C203.439 548.197 202.478 547.547 201.681 546.715C200.896 545.883 200.293 544.904 199.871 543.779C199.449 542.654 199.238 541.441 199.238 540.141V539.438C199.238 537.949 199.455 536.602 199.888 535.395C200.322 534.188 200.926 533.156 201.699 532.301C202.472 531.434 203.386 530.771 204.441 530.314C205.496 529.857 206.638 529.629 207.869 529.629C209.228 529.629 210.418 529.857 211.437 530.314C212.457 530.771 213.301 531.416 213.969 532.248C214.648 533.068 215.152 534.047 215.48 535.184C215.82 536.32 215.99 537.574 215.99 538.945V540.756H201.295V537.715H211.806V537.381C211.783 536.619 211.631 535.904 211.349 535.236C211.08 534.568 210.664 534.029 210.101 533.619C209.539 533.209 208.789 533.004 207.851 533.004C207.148 533.004 206.521 533.156 205.97 533.461C205.431 533.754 204.98 534.182 204.617 534.744C204.254 535.307 203.972 535.986 203.773 536.783C203.586 537.568 203.492 538.453 203.492 539.438V540.141C203.492 540.973 203.603 541.746 203.826 542.461C204.06 543.164 204.4 543.779 204.845 544.307C205.291 544.834 205.83 545.25 206.463 545.555C207.095 545.848 207.816 545.994 208.625 545.994C209.644 545.994 210.552 545.789 211.349 545.379C212.146 544.969 212.838 544.389 213.424 543.639L215.656 545.801C215.246 546.398 214.713 546.973 214.056 547.523C213.4 548.062 212.597 548.502 211.648 548.842C210.711 549.182 209.621 549.352 208.379 549.352ZM228.373 529.98V533.074H217.651V529.98H228.373ZM220.745 525.322H224.981V543.744C224.981 544.33 225.063 544.781 225.227 545.098C225.403 545.402 225.643 545.607 225.948 545.713C226.252 545.818 226.61 545.871 227.02 545.871C227.313 545.871 227.594 545.854 227.864 545.818C228.133 545.783 228.35 545.748 228.514 545.713L228.532 548.947C228.18 549.053 227.77 549.146 227.301 549.229C226.844 549.311 226.317 549.352 225.719 549.352C224.746 549.352 223.885 549.182 223.135 548.842C222.385 548.49 221.799 547.922 221.377 547.137C220.955 546.352 220.745 545.309 220.745 544.008V525.322ZM236.169 522V524.479C236.169 525.217 236.034 525.984 235.765 526.781C235.507 527.566 235.144 528.322 234.675 529.049C234.206 529.764 233.667 530.385 233.058 530.912L230.931 529.576C231.411 528.85 231.798 528.082 232.091 527.273C232.396 526.453 232.548 525.533 232.548 524.514V522H236.169ZM248.201 543.85C248.201 543.428 248.095 543.047 247.884 542.707C247.674 542.355 247.269 542.039 246.672 541.758C246.086 541.477 245.218 541.219 244.07 540.984C243.062 540.762 242.136 540.498 241.293 540.193C240.461 539.877 239.746 539.496 239.148 539.051C238.55 538.605 238.088 538.078 237.759 537.469C237.431 536.859 237.267 536.156 237.267 535.359C237.267 534.586 237.437 533.854 237.777 533.162C238.117 532.471 238.603 531.861 239.236 531.334C239.869 530.807 240.636 530.391 241.539 530.086C242.453 529.781 243.472 529.629 244.597 529.629C246.191 529.629 247.556 529.898 248.693 530.438C249.841 530.965 250.72 531.686 251.33 532.6C251.939 533.502 252.244 534.521 252.244 535.658H248.007C248.007 535.154 247.879 534.686 247.621 534.252C247.375 533.807 247 533.449 246.496 533.18C245.992 532.898 245.359 532.758 244.597 532.758C243.871 532.758 243.267 532.875 242.787 533.109C242.318 533.332 241.966 533.625 241.732 533.988C241.509 534.352 241.398 534.75 241.398 535.184C241.398 535.5 241.457 535.787 241.574 536.045C241.703 536.291 241.914 536.52 242.207 536.73C242.5 536.93 242.898 537.117 243.402 537.293C243.918 537.469 244.562 537.639 245.336 537.803C246.789 538.107 248.037 538.5 249.08 538.98C250.134 539.449 250.943 540.059 251.506 540.809C252.068 541.547 252.349 542.484 252.349 543.621C252.349 544.465 252.168 545.238 251.804 545.941C251.453 546.633 250.937 547.236 250.257 547.752C249.578 548.256 248.763 548.648 247.814 548.93C246.877 549.211 245.822 549.352 244.65 549.352C242.927 549.352 241.468 549.047 240.273 548.438C239.078 547.816 238.17 547.025 237.549 546.064C236.939 545.092 236.634 544.084 236.634 543.041H240.73C240.777 543.826 240.994 544.453 241.381 544.922C241.779 545.379 242.271 545.713 242.857 545.924C243.455 546.123 244.07 546.223 244.703 546.223C245.465 546.223 246.103 546.123 246.619 545.924C247.134 545.713 247.527 545.432 247.797 545.08C248.066 544.717 248.201 544.307 248.201 543.85ZM274.462 529.98V533.074H263.739V529.98H274.462ZM266.833 525.322H271.069V543.744C271.069 544.33 271.151 544.781 271.315 545.098C271.491 545.402 271.731 545.607 272.036 545.713C272.341 545.818 272.698 545.871 273.108 545.871C273.401 545.871 273.683 545.854 273.952 545.818C274.222 545.783 274.438 545.748 274.603 545.713L274.62 548.947C274.269 549.053 273.858 549.146 273.39 549.229C272.933 549.311 272.405 549.352 271.808 549.352C270.835 549.352 269.974 549.182 269.224 548.842C268.474 548.49 267.888 547.922 267.466 547.137C267.044 546.352 266.833 545.309 266.833 544.008V525.322ZM288.814 545.186V536.115C288.814 535.436 288.691 534.85 288.445 534.357C288.199 533.865 287.824 533.484 287.32 533.215C286.828 532.945 286.207 532.811 285.457 532.811C284.765 532.811 284.168 532.928 283.664 533.162C283.16 533.396 282.767 533.713 282.486 534.111C282.205 534.51 282.064 534.961 282.064 535.465H277.845C277.845 534.715 278.027 533.988 278.39 533.285C278.754 532.582 279.281 531.955 279.972 531.404C280.664 530.854 281.49 530.42 282.451 530.104C283.412 529.787 284.49 529.629 285.685 529.629C287.115 529.629 288.38 529.869 289.482 530.35C290.595 530.83 291.468 531.557 292.101 532.529C292.746 533.49 293.068 534.697 293.068 536.15V544.605C293.068 545.473 293.127 546.252 293.244 546.943C293.373 547.623 293.554 548.215 293.789 548.719V549H289.447C289.248 548.543 289.089 547.963 288.972 547.26C288.867 546.545 288.814 545.854 288.814 545.186ZM289.429 537.434L289.464 540.053H286.423C285.638 540.053 284.947 540.129 284.349 540.281C283.752 540.422 283.254 540.633 282.855 540.914C282.457 541.195 282.158 541.535 281.959 541.934C281.759 542.332 281.66 542.783 281.66 543.287C281.66 543.791 281.777 544.254 282.011 544.676C282.246 545.086 282.586 545.408 283.031 545.643C283.488 545.877 284.039 545.994 284.683 545.994C285.55 545.994 286.306 545.818 286.951 545.467C287.607 545.104 288.123 544.664 288.498 544.148C288.873 543.621 289.072 543.123 289.095 542.654L290.466 544.535C290.326 545.016 290.086 545.531 289.746 546.082C289.406 546.633 288.961 547.16 288.41 547.664C287.871 548.156 287.22 548.561 286.459 548.877C285.709 549.193 284.841 549.352 283.857 549.352C282.615 549.352 281.507 549.105 280.535 548.613C279.562 548.109 278.8 547.436 278.25 546.592C277.699 545.736 277.423 544.77 277.423 543.691C277.423 542.684 277.611 541.793 277.986 541.02C278.373 540.234 278.935 539.578 279.673 539.051C280.423 538.523 281.337 538.125 282.416 537.855C283.494 537.574 284.724 537.434 286.107 537.434H289.429ZM302.393 522V549H298.139V522H302.393ZM311.665 522V549H307.411V522H311.665ZM323.477 529.98L315.198 539.156L310.663 543.797L309.556 540.211L312.983 535.975L318.362 529.98H323.477ZM319.276 549L313.106 540.07L315.778 537.1L324.181 549H319.276ZM198.574 585.977C199.266 585.977 199.887 585.842 200.438 585.572C201 585.291 201.451 584.904 201.791 584.412C202.143 583.92 202.336 583.352 202.371 582.707H206.361C206.338 583.938 205.975 585.057 205.272 586.064C204.568 587.072 203.637 587.875 202.477 588.473C201.316 589.059 200.033 589.352 198.627 589.352C197.174 589.352 195.908 589.105 194.83 588.613C193.752 588.109 192.856 587.418 192.141 586.539C191.426 585.66 190.887 584.646 190.524 583.498C190.172 582.35 189.996 581.119 189.996 579.807V579.191C189.996 577.879 190.172 576.648 190.524 575.5C190.887 574.34 191.426 573.32 192.141 572.441C192.856 571.562 193.752 570.877 194.83 570.385C195.908 569.881 197.168 569.629 198.609 569.629C200.133 569.629 201.469 569.934 202.617 570.543C203.766 571.141 204.668 571.979 205.324 573.057C205.992 574.123 206.338 575.365 206.361 576.783H202.371C202.336 576.08 202.16 575.447 201.844 574.885C201.539 574.311 201.106 573.854 200.543 573.514C199.992 573.174 199.33 573.004 198.557 573.004C197.701 573.004 196.992 573.18 196.43 573.531C195.867 573.871 195.428 574.34 195.111 574.938C194.795 575.523 194.566 576.186 194.426 576.924C194.297 577.65 194.232 578.406 194.232 579.191V579.807C194.232 580.592 194.297 581.354 194.426 582.092C194.555 582.83 194.777 583.492 195.094 584.078C195.422 584.652 195.867 585.115 196.43 585.467C196.992 585.807 197.707 585.977 198.574 585.977ZM209.165 579.701V579.297C209.165 577.926 209.364 576.654 209.762 575.482C210.161 574.299 210.735 573.273 211.485 572.406C212.247 571.527 213.173 570.848 214.262 570.367C215.364 569.875 216.606 569.629 217.989 569.629C219.384 569.629 220.626 569.875 221.716 570.367C222.817 570.848 223.749 571.527 224.51 572.406C225.272 573.273 225.852 574.299 226.251 575.482C226.649 576.654 226.848 577.926 226.848 579.297V579.701C226.848 581.072 226.649 582.344 226.251 583.516C225.852 584.688 225.272 585.713 224.51 586.592C223.749 587.459 222.823 588.139 221.733 588.631C220.643 589.111 219.407 589.352 218.024 589.352C216.63 589.352 215.382 589.111 214.28 588.631C213.19 588.139 212.264 587.459 211.503 586.592C210.741 585.713 210.161 584.688 209.762 583.516C209.364 582.344 209.165 581.072 209.165 579.701ZM213.401 579.297V579.701C213.401 580.557 213.489 581.365 213.665 582.127C213.841 582.889 214.116 583.557 214.491 584.131C214.866 584.705 215.346 585.156 215.932 585.484C216.518 585.812 217.216 585.977 218.024 585.977C218.809 585.977 219.489 585.812 220.063 585.484C220.649 585.156 221.13 584.705 221.505 584.131C221.88 583.557 222.155 582.889 222.331 582.127C222.518 581.365 222.612 580.557 222.612 579.701V579.297C222.612 578.453 222.518 577.656 222.331 576.906C222.155 576.145 221.874 575.471 221.487 574.885C221.112 574.299 220.632 573.842 220.046 573.514C219.471 573.174 218.786 573.004 217.989 573.004C217.192 573.004 216.501 573.174 215.915 573.514C215.341 573.842 214.866 574.299 214.491 574.885C214.116 575.471 213.841 576.145 213.665 576.906C213.489 577.656 213.401 578.453 213.401 579.297ZM234.96 574.041V589H230.724V569.98H234.714L234.96 574.041ZM234.204 578.787L232.833 578.77C232.845 577.422 233.033 576.186 233.396 575.061C233.771 573.936 234.286 572.969 234.943 572.16C235.611 571.352 236.408 570.73 237.333 570.297C238.259 569.852 239.29 569.629 240.427 569.629C241.341 569.629 242.167 569.758 242.906 570.016C243.656 570.262 244.294 570.666 244.822 571.229C245.361 571.791 245.771 572.523 246.052 573.426C246.333 574.316 246.474 575.412 246.474 576.713V589H242.22V576.695C242.22 575.781 242.085 575.061 241.816 574.533C241.558 573.994 241.177 573.613 240.673 573.391C240.181 573.156 239.566 573.039 238.827 573.039C238.101 573.039 237.451 573.191 236.876 573.496C236.302 573.801 235.816 574.217 235.417 574.744C235.031 575.271 234.732 575.881 234.521 576.572C234.31 577.264 234.204 578.002 234.204 578.787ZM259.877 569.98V573.074H249.154V569.98H259.877ZM252.248 565.322H256.484V583.744C256.484 584.33 256.566 584.781 256.73 585.098C256.906 585.402 257.146 585.607 257.451 585.713C257.756 585.818 258.113 585.871 258.523 585.871C258.816 585.871 259.098 585.854 259.367 585.818C259.637 585.783 259.854 585.748 260.018 585.713L260.035 588.947C259.684 589.053 259.273 589.146 258.805 589.229C258.348 589.311 257.82 589.352 257.223 589.352C256.25 589.352 255.389 589.182 254.639 588.842C253.889 588.49 253.303 587.922 252.881 587.137C252.459 586.352 252.248 585.309 252.248 584.008V565.322ZM271.891 589.352C270.485 589.352 269.214 589.123 268.077 588.666C266.952 588.197 265.991 587.547 265.194 586.715C264.409 585.883 263.805 584.904 263.383 583.779C262.962 582.654 262.751 581.441 262.751 580.141V579.438C262.751 577.949 262.967 576.602 263.401 575.395C263.835 574.188 264.438 573.156 265.212 572.301C265.985 571.434 266.899 570.771 267.954 570.314C269.008 569.857 270.151 569.629 271.381 569.629C272.741 569.629 273.93 569.857 274.95 570.314C275.969 570.771 276.813 571.416 277.481 572.248C278.161 573.068 278.665 574.047 278.993 575.184C279.333 576.32 279.503 577.574 279.503 578.945V580.756H264.807V577.715H275.319V577.381C275.296 576.619 275.143 575.904 274.862 575.236C274.592 574.568 274.176 574.029 273.614 573.619C273.051 573.209 272.301 573.004 271.364 573.004C270.661 573.004 270.034 573.156 269.483 573.461C268.944 573.754 268.493 574.182 268.13 574.744C267.766 575.307 267.485 575.986 267.286 576.783C267.098 577.568 267.005 578.453 267.005 579.438V580.141C267.005 580.973 267.116 581.746 267.339 582.461C267.573 583.164 267.913 583.779 268.358 584.307C268.803 584.834 269.342 585.25 269.975 585.555C270.608 585.848 271.329 585.994 272.137 585.994C273.157 585.994 274.065 585.789 274.862 585.379C275.659 584.969 276.35 584.389 276.936 583.639L279.169 585.801C278.758 586.398 278.225 586.973 277.569 587.523C276.913 588.062 276.11 588.502 275.161 588.842C274.223 589.182 273.133 589.352 271.891 589.352ZM287.368 574.041V589H283.132V569.98H287.122L287.368 574.041ZM286.613 578.787L285.241 578.77C285.253 577.422 285.441 576.186 285.804 575.061C286.179 573.936 286.695 572.969 287.351 572.16C288.019 571.352 288.816 570.73 289.741 570.297C290.667 569.852 291.699 569.629 292.835 569.629C293.749 569.629 294.575 569.758 295.314 570.016C296.064 570.262 296.702 570.666 297.23 571.229C297.769 571.791 298.179 572.523 298.46 573.426C298.741 574.316 298.882 575.412 298.882 576.713V589H294.628V576.695C294.628 575.781 294.493 575.061 294.224 574.533C293.966 573.994 293.585 573.613 293.081 573.391C292.589 573.156 291.974 573.039 291.236 573.039C290.509 573.039 289.859 573.191 289.284 573.496C288.71 573.801 288.224 574.217 287.825 574.744C287.439 575.271 287.14 575.881 286.929 576.572C286.718 577.264 286.613 578.002 286.613 578.787ZM312.285 569.98V573.074H301.562V569.98H312.285ZM304.656 565.322H308.893V583.744C308.893 584.33 308.975 584.781 309.139 585.098C309.314 585.402 309.555 585.607 309.859 585.713C310.164 585.818 310.521 585.871 310.932 585.871C311.225 585.871 311.506 585.854 311.775 585.818C312.045 585.783 312.262 585.748 312.426 585.713L312.443 588.947C312.092 589.053 311.682 589.146 311.213 589.229C310.756 589.311 310.228 589.352 309.631 589.352C308.658 589.352 307.797 589.182 307.047 588.842C306.297 588.49 305.711 587.922 305.289 587.137C304.867 586.352 304.656 585.309 304.656 584.008V565.322Z" fill="#FAFAFF"/>
<path d="M186.512 270.094V273.592H172.924V270.094H186.512ZM174.014 259.406V285H169.602V259.406H174.014ZM189.904 259.406V285H185.51V259.406H189.904ZM203.483 285.352C202.077 285.352 200.805 285.123 199.669 284.666C198.544 284.197 197.583 283.547 196.786 282.715C196.001 281.883 195.397 280.904 194.975 279.779C194.553 278.654 194.342 277.441 194.342 276.141V275.438C194.342 273.949 194.559 272.602 194.993 271.395C195.426 270.188 196.03 269.156 196.803 268.301C197.577 267.434 198.491 266.771 199.546 266.314C200.6 265.857 201.743 265.629 202.973 265.629C204.333 265.629 205.522 265.857 206.542 266.314C207.561 266.771 208.405 267.416 209.073 268.248C209.753 269.068 210.256 270.047 210.585 271.184C210.924 272.32 211.094 273.574 211.094 274.945V276.756H196.399V273.715H206.911V273.381C206.887 272.619 206.735 271.904 206.454 271.236C206.184 270.568 205.768 270.029 205.206 269.619C204.643 269.209 203.893 269.004 202.956 269.004C202.253 269.004 201.626 269.156 201.075 269.461C200.536 269.754 200.085 270.182 199.721 270.744C199.358 271.307 199.077 271.986 198.878 272.783C198.69 273.568 198.596 274.453 198.596 275.438V276.141C198.596 276.973 198.708 277.746 198.93 278.461C199.165 279.164 199.505 279.779 199.95 280.307C200.395 280.834 200.934 281.25 201.567 281.555C202.2 281.848 202.921 281.994 203.729 281.994C204.749 281.994 205.657 281.789 206.454 281.379C207.251 280.969 207.942 280.389 208.528 279.639L210.76 281.801C210.35 282.398 209.817 282.973 209.161 283.523C208.505 284.062 207.702 284.502 206.753 284.842C205.815 285.182 204.725 285.352 203.483 285.352ZM220.033 282.926L225.2 265.98H229.736L222.107 287.9C221.931 288.369 221.702 288.879 221.421 289.43C221.14 289.98 220.771 290.502 220.314 290.994C219.868 291.498 219.312 291.902 218.644 292.207C217.976 292.523 217.167 292.682 216.218 292.682C215.843 292.682 215.48 292.646 215.128 292.576C214.788 292.518 214.466 292.453 214.161 292.383L214.144 289.148C214.261 289.16 214.402 289.172 214.566 289.184C214.741 289.195 214.882 289.201 214.988 289.201C215.691 289.201 216.277 289.113 216.745 288.938C217.214 288.773 217.595 288.504 217.888 288.129C218.193 287.754 218.45 287.25 218.661 286.617L220.033 282.926ZM217.115 265.98L221.632 280.219L222.388 284.684L219.452 285.439L212.544 265.98H217.115ZM250.565 265.98V269.074H239.842V265.98H250.565ZM242.936 261.322H247.172V279.744C247.172 280.33 247.254 280.781 247.419 281.098C247.594 281.402 247.835 281.607 248.139 281.713C248.444 281.818 248.801 281.871 249.211 281.871C249.504 281.871 249.786 281.854 250.055 281.818C250.325 281.783 250.542 281.748 250.706 281.713L250.723 284.947C250.372 285.053 249.961 285.146 249.493 285.229C249.036 285.311 248.508 285.352 247.911 285.352C246.938 285.352 246.077 285.182 245.327 284.842C244.577 284.49 243.991 283.922 243.569 283.137C243.147 282.352 242.936 281.309 242.936 280.008V261.322ZM258.378 258V285H254.159V258H258.378ZM257.64 274.787L256.269 274.77C256.28 273.457 256.462 272.244 256.814 271.131C257.177 270.018 257.681 269.051 258.325 268.23C258.982 267.398 259.767 266.76 260.681 266.314C261.595 265.857 262.609 265.629 263.722 265.629C264.659 265.629 265.503 265.758 266.253 266.016C267.015 266.273 267.671 266.689 268.222 267.264C268.773 267.826 269.189 268.564 269.47 269.479C269.763 270.381 269.909 271.482 269.909 272.783V285H265.655V272.748C265.655 271.834 265.521 271.107 265.251 270.568C264.993 270.029 264.613 269.643 264.109 269.408C263.605 269.162 262.989 269.039 262.263 269.039C261.501 269.039 260.827 269.191 260.241 269.496C259.667 269.801 259.187 270.217 258.8 270.744C258.413 271.271 258.12 271.881 257.921 272.572C257.734 273.264 257.64 274.002 257.64 274.787ZM282.943 285.352C281.537 285.352 280.265 285.123 279.129 284.666C278.004 284.197 277.043 283.547 276.246 282.715C275.461 281.883 274.857 280.904 274.435 279.779C274.014 278.654 273.803 277.441 273.803 276.141V275.438C273.803 273.949 274.019 272.602 274.453 271.395C274.887 270.188 275.49 269.156 276.264 268.301C277.037 267.434 277.951 266.771 279.006 266.314C280.06 265.857 281.203 265.629 282.433 265.629C283.793 265.629 284.982 265.857 286.002 266.314C287.021 266.771 287.865 267.416 288.533 268.248C289.213 269.068 289.717 270.047 290.045 271.184C290.385 272.32 290.555 273.574 290.555 274.945V276.756H275.859V273.715H286.371V273.381C286.348 272.619 286.195 271.904 285.914 271.236C285.644 270.568 285.228 270.029 284.666 269.619C284.103 269.209 283.353 269.004 282.416 269.004C281.713 269.004 281.086 269.156 280.535 269.461C279.996 269.754 279.545 270.182 279.181 270.744C278.818 271.307 278.537 271.986 278.338 272.783C278.15 273.568 278.056 274.453 278.056 275.438V276.141C278.056 276.973 278.168 277.746 278.39 278.461C278.625 279.164 278.965 279.779 279.41 280.307C279.855 280.834 280.394 281.25 281.027 281.555C281.66 281.848 282.381 281.994 283.189 281.994C284.209 281.994 285.117 281.789 285.914 281.379C286.711 280.969 287.402 280.389 287.988 279.639L290.221 281.801C289.81 282.398 289.277 282.973 288.621 283.523C287.965 284.062 287.162 284.502 286.213 284.842C285.275 285.182 284.185 285.352 282.943 285.352ZM298.473 269.602V285H294.237V265.98H298.28L298.473 269.602ZM304.291 265.857L304.256 269.795C303.999 269.748 303.717 269.713 303.413 269.689C303.12 269.666 302.827 269.654 302.534 269.654C301.807 269.654 301.168 269.76 300.618 269.971C300.067 270.17 299.604 270.463 299.229 270.85C298.866 271.225 298.584 271.682 298.385 272.221C298.186 272.76 298.069 273.363 298.034 274.031L297.067 274.102C297.067 272.906 297.184 271.799 297.418 270.779C297.653 269.76 298.004 268.863 298.473 268.09C298.954 267.316 299.551 266.713 300.266 266.279C300.993 265.846 301.831 265.629 302.78 265.629C303.038 265.629 303.313 265.652 303.606 265.699C303.911 265.746 304.139 265.799 304.291 265.857ZM315.339 285.352C313.933 285.352 312.661 285.123 311.525 284.666C310.4 284.197 309.439 283.547 308.642 282.715C307.857 281.883 307.253 280.904 306.831 279.779C306.409 278.654 306.198 277.441 306.198 276.141V275.438C306.198 273.949 306.415 272.602 306.849 271.395C307.282 270.188 307.886 269.156 308.659 268.301C309.433 267.434 310.347 266.771 311.401 266.314C312.456 265.857 313.599 265.629 314.829 265.629C316.189 265.629 317.378 265.857 318.398 266.314C319.417 266.771 320.261 267.416 320.929 268.248C321.609 269.068 322.112 270.047 322.441 271.184C322.78 272.32 322.95 273.574 322.95 274.945V276.756H308.255V273.715H318.767V273.381C318.743 272.619 318.591 271.904 318.31 271.236C318.04 270.568 317.624 270.029 317.062 269.619C316.499 269.209 315.749 269.004 314.812 269.004C314.109 269.004 313.482 269.156 312.931 269.461C312.392 269.754 311.941 270.182 311.577 270.744C311.214 271.307 310.933 271.986 310.734 272.783C310.546 273.568 310.452 274.453 310.452 275.438V276.141C310.452 276.973 310.564 277.746 310.786 278.461C311.021 279.164 311.36 279.779 311.806 280.307C312.251 280.834 312.79 281.25 313.423 281.555C314.056 281.848 314.776 281.994 315.585 281.994C316.605 281.994 317.513 281.789 318.31 281.379C319.107 280.969 319.798 280.389 320.384 279.639L322.616 281.801C322.206 282.398 321.673 282.973 321.017 283.523C320.36 284.062 319.558 284.502 318.609 284.842C317.671 285.182 316.581 285.352 315.339 285.352ZM331.502 259.406L331.08 277.459H327.459L327.019 259.406H331.502ZM326.896 282.996C326.896 282.352 327.107 281.812 327.529 281.379C327.963 280.934 328.56 280.711 329.322 280.711C330.072 280.711 330.664 280.934 331.097 281.379C331.531 281.812 331.748 282.352 331.748 282.996C331.748 283.617 331.531 284.15 331.097 284.596C330.664 285.029 330.072 285.246 329.322 285.246C328.56 285.246 327.963 285.029 327.529 284.596C327.107 284.15 326.896 283.617 326.896 282.996Z" fill="#FAFAFF"/>
<defs>
<linearGradient id="paint0_linear_2004_329" x1="251" y1="216" x2="251" y2="985" gradientUnits="userSpaceOnUse">
<stop stop-color="#3E3E4F"/>
<stop offset="1" stop-color="#020210"/>
</linearGradient>
<linearGradient id="paint1_linear_2004_329" x1="251" y1="493" x2="251" y2="847" gradientUnits="userSpaceOnUse">
<stop stop-color="#34601D"/>
<stop offset="1" stop-color="#0F2802"/>
</linearGradient>
<clipPath id="clip0_2004_329">
<rect x="45" y="47" width="412" height="892" rx="18" fill="white"/>
</clipPath>
</defs>
</svg>
