<svg width="502" height="985" viewBox="0 0 502 985" fill="none" xmlns="http://www.w3.org/2000/svg">
<rect y="47" width="502" height="112" fill="#7F7F7F"/>
<rect y="216" width="502" height="769" fill="url(#paint0_linear_2004_492)"/>
<rect y="159" width="502" height="57" fill="#2E5C7D"/>
<path d="M64 187H100M64 175H100M64 199H100" stroke="#C0E1F4" stroke-width="4" stroke-linecap="round" stroke-linejoin="round"/>
<g clip-path="url(#clip0_2004_492)">
<path d="M71.0781 82.7012H71.2148C71.8438 82.7012 72.3678 82.6191 72.7871 82.4551C73.2109 82.2865 73.5482 82.054 73.7988 81.7578C74.0495 81.4616 74.2295 81.113 74.3389 80.7119C74.4482 80.3109 74.5029 79.8757 74.5029 79.4062V77.6904C74.5029 77.2848 74.4596 76.9294 74.373 76.624C74.291 76.3141 74.1725 76.0566 74.0176 75.8516C73.8672 75.6419 73.6917 75.4847 73.4912 75.3799C73.2952 75.2751 73.0833 75.2227 72.8555 75.2227C72.6048 75.2227 72.3792 75.2796 72.1787 75.3936C71.9827 75.5029 71.8164 75.6556 71.6797 75.8516C71.5475 76.043 71.445 76.2686 71.3721 76.5283C71.3037 76.7835 71.2695 77.057 71.2695 77.3486C71.2695 77.6221 71.3014 77.8864 71.3652 78.1416C71.4336 78.3923 71.5339 78.6156 71.666 78.8115C71.7982 79.0075 71.9645 79.1624 72.165 79.2764C72.3656 79.3903 72.6003 79.4473 72.8691 79.4473C73.1243 79.4473 73.359 79.3994 73.5732 79.3037C73.7874 79.2035 73.9743 79.069 74.1338 78.9004C74.2933 78.7318 74.4186 78.5426 74.5098 78.333C74.6009 78.1234 74.651 77.9092 74.6602 77.6904L75.2891 77.8818C75.2891 78.2282 75.2161 78.57 75.0703 78.9072C74.929 79.2399 74.7308 79.5452 74.4756 79.8232C74.2249 80.0967 73.931 80.3154 73.5938 80.4795C73.2611 80.6436 72.8988 80.7256 72.5068 80.7256C72.0329 80.7256 71.6136 80.6367 71.249 80.459C70.889 80.2767 70.5882 80.0306 70.3467 79.7207C70.1097 79.4108 69.932 79.0553 69.8135 78.6543C69.695 78.2533 69.6357 77.8317 69.6357 77.3896C69.6357 76.9111 69.7087 76.4622 69.8545 76.043C70.0003 75.6237 70.2122 75.2546 70.4902 74.9355C70.7682 74.612 71.1055 74.3613 71.502 74.1836C71.903 74.0013 72.3564 73.9102 72.8623 73.9102C73.4001 73.9102 73.8717 74.015 74.2773 74.2246C74.6829 74.4342 75.0247 74.7236 75.3027 75.0928C75.5807 75.4619 75.7904 75.8903 75.9316 76.3779C76.0729 76.8656 76.1436 77.3896 76.1436 77.9502V78.5312C76.1436 79.1191 76.0911 79.6865 75.9863 80.2334C75.8815 80.7757 75.7106 81.2793 75.4736 81.7441C75.2412 82.2044 74.9336 82.61 74.5508 82.9609C74.1725 83.3073 73.7077 83.5785 73.1562 83.7744C72.6094 83.9658 71.9668 84.0615 71.2285 84.0615H71.0781V82.7012ZM78.1019 83.1797C78.1019 82.9245 78.1885 82.7103 78.3617 82.5371C78.5349 82.3594 78.7696 82.2705 79.0658 82.2705C79.3666 82.2705 79.6013 82.3594 79.7699 82.5371C79.9431 82.7103 80.0296 82.9245 80.0296 83.1797C80.0296 83.4349 79.9431 83.6491 79.7699 83.8223C79.6013 83.9954 79.3666 84.082 79.0658 84.082C78.7696 84.082 78.5349 83.9954 78.3617 83.8223C78.1885 83.6491 78.1019 83.4349 78.1019 83.1797ZM78.1088 77.3555C78.1088 77.1003 78.1953 76.8861 78.3685 76.7129C78.5417 76.5352 78.7764 76.4463 79.0726 76.4463C79.3734 76.4463 79.6081 76.5352 79.7767 76.7129C79.9499 76.8861 80.0365 77.1003 80.0365 77.3555C80.0365 77.6107 79.9499 77.8249 79.7767 77.998C79.6081 78.1712 79.3734 78.2578 79.0726 78.2578C78.7764 78.2578 78.5417 78.1712 78.3685 77.998C78.1953 77.8249 78.1088 77.6107 78.1088 77.3555ZM83.7517 78.2783H84.7361C85.1189 78.2783 85.4356 78.2122 85.6862 78.0801C85.9415 77.9479 86.1306 77.7656 86.2536 77.5332C86.3767 77.3008 86.4382 77.0342 86.4382 76.7334C86.4382 76.4189 86.3812 76.1501 86.2673 75.9268C86.1579 75.6989 85.9893 75.5234 85.7614 75.4004C85.5381 75.2773 85.2533 75.2158 84.907 75.2158C84.6153 75.2158 84.351 75.2751 84.114 75.3936C83.8816 75.5075 83.697 75.6715 83.5603 75.8857C83.4236 76.0954 83.3552 76.346 83.3552 76.6377H81.7009C81.7009 76.109 81.8399 75.6396 82.1179 75.2295C82.3959 74.8193 82.7741 74.498 83.2527 74.2656C83.7357 74.0286 84.278 73.9102 84.8796 73.9102C85.5222 73.9102 86.0827 74.0173 86.5612 74.2314C87.0443 74.4411 87.4203 74.7555 87.6892 75.1748C87.9581 75.5941 88.0925 76.1136 88.0925 76.7334C88.0925 77.016 88.0264 77.3031 87.8943 77.5947C87.7621 77.8864 87.5661 78.153 87.3064 78.3945C87.0466 78.6315 86.723 78.8252 86.3357 78.9756C85.9483 79.1214 85.4994 79.1943 84.989 79.1943H83.7517V78.2783ZM83.7517 79.5635V78.6611H84.989C85.5723 78.6611 86.0691 78.7295 86.4792 78.8662C86.8939 79.0029 87.2312 79.1921 87.4909 79.4336C87.7507 79.6706 87.9398 79.9417 88.0583 80.2471C88.1814 80.5524 88.2429 80.876 88.2429 81.2178C88.2429 81.6826 88.1586 82.0973 87.99 82.4619C87.8259 82.8219 87.5912 83.1273 87.2859 83.3779C86.9805 83.6286 86.6228 83.8177 86.2126 83.9453C85.807 84.0729 85.365 84.1367 84.8864 84.1367C84.4581 84.1367 84.0479 84.0775 83.656 83.959C83.264 83.8405 82.9131 83.665 82.6032 83.4326C82.2933 83.1956 82.0473 82.9017 81.865 82.5508C81.6872 82.1953 81.5984 81.7852 81.5984 81.3203H83.2458C83.2458 81.6165 83.3142 81.8786 83.4509 82.1064C83.5922 82.3298 83.7881 82.5052 84.0388 82.6328C84.294 82.7604 84.5857 82.8242 84.9138 82.8242C85.2601 82.8242 85.5586 82.7627 85.8093 82.6396C86.0599 82.5166 86.2514 82.3343 86.3835 82.0928C86.5202 81.8512 86.5886 81.5596 86.5886 81.2178C86.5886 80.8304 86.5134 80.516 86.363 80.2744C86.2126 80.0329 85.9984 79.8551 85.7204 79.7412C85.4424 79.6227 85.1143 79.5635 84.7361 79.5635H83.7517ZM96.5382 78.1895V79.8164C96.5382 80.5957 96.4607 81.2611 96.3057 81.8125C96.1554 82.3594 95.9366 82.8037 95.6495 83.1455C95.3624 83.4873 95.0183 83.738 94.6173 83.8975C94.2208 84.057 93.7764 84.1367 93.2843 84.1367C92.8923 84.1367 92.5277 84.0866 92.1905 83.9863C91.8578 83.8861 91.557 83.7288 91.2882 83.5146C91.0193 83.3005 90.7891 83.0247 90.5977 82.6875C90.4109 82.3457 90.2651 81.9378 90.1602 81.4639C90.06 80.9899 90.0098 80.4408 90.0098 79.8164V78.1895C90.0098 77.4056 90.0873 76.7448 90.2423 76.207C90.3972 75.6647 90.6182 75.2249 90.9054 74.8877C91.1925 74.5459 91.5343 74.2975 91.9307 74.1426C92.3318 73.9876 92.7784 73.9102 93.2706 73.9102C93.6671 73.9102 94.0317 73.9603 94.3643 74.0605C94.7016 74.1562 95.0024 74.3089 95.2667 74.5186C95.5356 74.7282 95.7634 75.0016 95.9503 75.3389C96.1417 75.6715 96.2875 76.0749 96.3878 76.5488C96.488 77.0182 96.5382 77.5651 96.5382 78.1895ZM94.8907 80.0488V77.9434C94.8907 77.5469 94.8679 77.1982 94.8223 76.8975C94.7768 76.5921 94.7084 76.3346 94.6173 76.125C94.5307 75.9108 94.4213 75.7376 94.2891 75.6055C94.157 75.4688 94.0066 75.3708 93.838 75.3115C93.6693 75.2477 93.4802 75.2158 93.2706 75.2158C93.0154 75.2158 92.7875 75.266 92.587 75.3662C92.3865 75.4619 92.2179 75.6169 92.0811 75.8311C91.9444 76.0452 91.8396 76.3278 91.7667 76.6787C91.6983 77.0251 91.6641 77.4466 91.6641 77.9434V80.0488C91.6641 80.4499 91.6869 80.8031 91.7325 81.1084C91.7781 81.4137 91.8464 81.6758 91.9376 81.8945C92.0287 82.1087 92.1381 82.2865 92.2657 82.4277C92.3979 82.5645 92.5483 82.6647 92.7169 82.7285C92.8901 82.7923 93.0792 82.8242 93.2843 82.8242C93.544 82.8242 93.7742 82.7741 93.9747 82.6738C94.1752 82.5736 94.3438 82.4141 94.4805 82.1953C94.6173 81.972 94.7198 81.6826 94.7882 81.3271C94.8565 80.9717 94.8907 80.5456 94.8907 80.0488Z" fill="#1D1B20"/>
<path opacity="0.1" d="M395.5 73.4166C392.1 73.4166 389.125 74.9041 387 77.2416L395.5 87.5833L404 77.2416C401.875 74.9041 398.9 73.4166 395.5 73.4166Z" fill="#1D1B20"/>
<path d="M418.583 73.4166L404.417 87.5833H418.583V73.4166Z" fill="#1D1B20"/>
<path opacity="0.3" d="M430.5 73H427.5V74.5H426C425.448 74.5 425 75.0037 425 75.625V86.875C425 87.4963 425.448 88 426 88H432C432.552 88 433 87.4963 433 86.875V75.625C433 75.0037 432.552 74.5 432 74.5H430.5V73Z" fill="#1D1B20"/>
<path d="M425 81C425 81.5833 425 86.3667 425 86.95C425 87.5299 425.448 88 426 88H432C432.552 88 433 87.5299 433 86.95C433 86.3667 433 81.5833 433 81H425Z" fill="#1D1B20"/>
<path fill-rule="evenodd" clip-rule="evenodd" d="M251 65C244.373 65 239 70.3731 239 77C239 83.6269 244.373 89 251 89C257.627 89 263 83.6269 263 77C263 70.3731 257.627 65 251 65Z" fill="#1D1B20"/>
<rect x="197" y="925" width="108" height="4" rx="2" fill="#1D1B20"/>
</g>
<rect x="41" y="43" width="420" height="900" rx="22" stroke="#CAC4D0" stroke-width="8"/>
<path d="M502 985H0V0H502V985ZM45 47V939H457V47H45Z" fill="#D9D9D9"/>
<path fill-rule="evenodd" clip-rule="evenodd" d="M369.38 180.51C375.137 180.51 380.199 186.946 383.12 196.678C383.983 196.561 384.864 196.5 385.76 196.5C396.529 196.5 405.26 205.231 405.26 216H353C353 196.4 360.334 180.51 369.38 180.51Z" fill="#9898AD"/>
<circle cx="427.5" cy="189.5" r="19.5" fill="#C0E1F4"/>
<path d="M187.512 277.094V280.592H173.924V277.094H187.512ZM175.014 266.406V292H170.602V266.406H175.014ZM190.904 266.406V292H186.51V266.406H190.904ZM204.483 292.352C203.077 292.352 201.805 292.123 200.669 291.666C199.544 291.197 198.583 290.547 197.786 289.715C197.001 288.883 196.397 287.904 195.975 286.779C195.553 285.654 195.342 284.441 195.342 283.141V282.438C195.342 280.949 195.559 279.602 195.993 278.395C196.426 277.188 197.03 276.156 197.803 275.301C198.577 274.434 199.491 273.771 200.546 273.314C201.6 272.857 202.743 272.629 203.973 272.629C205.333 272.629 206.522 272.857 207.542 273.314C208.561 273.771 209.405 274.416 210.073 275.248C210.753 276.068 211.256 277.047 211.585 278.184C211.924 279.32 212.094 280.574 212.094 281.945V283.756H197.399V280.715H207.911V280.381C207.887 279.619 207.735 278.904 207.454 278.236C207.184 277.568 206.768 277.029 206.206 276.619C205.643 276.209 204.893 276.004 203.956 276.004C203.253 276.004 202.626 276.156 202.075 276.461C201.536 276.754 201.085 277.182 200.721 277.744C200.358 278.307 200.077 278.986 199.878 279.783C199.69 280.568 199.596 281.453 199.596 282.438V283.141C199.596 283.973 199.708 284.746 199.93 285.461C200.165 286.164 200.505 286.779 200.95 287.307C201.395 287.834 201.934 288.25 202.567 288.555C203.2 288.848 203.921 288.994 204.729 288.994C205.749 288.994 206.657 288.789 207.454 288.379C208.251 287.969 208.942 287.389 209.528 286.639L211.76 288.801C211.35 289.398 210.817 289.973 210.161 290.523C209.505 291.062 208.702 291.502 207.753 291.842C206.815 292.182 205.725 292.352 204.483 292.352ZM221.033 289.926L226.2 272.98H230.736L223.107 294.9C222.931 295.369 222.702 295.879 222.421 296.43C222.14 296.98 221.771 297.502 221.314 297.994C220.868 298.498 220.312 298.902 219.644 299.207C218.976 299.523 218.167 299.682 217.218 299.682C216.843 299.682 216.48 299.646 216.128 299.576C215.788 299.518 215.466 299.453 215.161 299.383L215.144 296.148C215.261 296.16 215.402 296.172 215.566 296.184C215.741 296.195 215.882 296.201 215.988 296.201C216.691 296.201 217.277 296.113 217.745 295.938C218.214 295.773 218.595 295.504 218.888 295.129C219.193 294.754 219.45 294.25 219.661 293.617L221.033 289.926ZM218.115 272.98L222.632 287.219L223.388 291.684L220.452 292.439L213.544 272.98H218.115ZM251.565 272.98V276.074H240.842V272.98H251.565ZM243.936 268.322H248.172V286.744C248.172 287.33 248.254 287.781 248.419 288.098C248.594 288.402 248.835 288.607 249.139 288.713C249.444 288.818 249.801 288.871 250.211 288.871C250.504 288.871 250.786 288.854 251.055 288.818C251.325 288.783 251.542 288.748 251.706 288.713L251.723 291.947C251.372 292.053 250.961 292.146 250.493 292.229C250.036 292.311 249.508 292.352 248.911 292.352C247.938 292.352 247.077 292.182 246.327 291.842C245.577 291.49 244.991 290.922 244.569 290.137C244.147 289.352 243.936 288.309 243.936 287.008V268.322ZM259.378 265V292H255.159V265H259.378ZM258.64 281.787L257.269 281.77C257.28 280.457 257.462 279.244 257.814 278.131C258.177 277.018 258.681 276.051 259.325 275.23C259.982 274.398 260.767 273.76 261.681 273.314C262.595 272.857 263.609 272.629 264.722 272.629C265.659 272.629 266.503 272.758 267.253 273.016C268.015 273.273 268.671 273.689 269.222 274.264C269.773 274.826 270.189 275.564 270.47 276.479C270.763 277.381 270.909 278.482 270.909 279.783V292H266.655V279.748C266.655 278.834 266.521 278.107 266.251 277.568C265.993 277.029 265.613 276.643 265.109 276.408C264.605 276.162 263.989 276.039 263.263 276.039C262.501 276.039 261.827 276.191 261.241 276.496C260.667 276.801 260.187 277.217 259.8 277.744C259.413 278.271 259.12 278.881 258.921 279.572C258.734 280.264 258.64 281.002 258.64 281.787ZM283.943 292.352C282.537 292.352 281.265 292.123 280.129 291.666C279.004 291.197 278.043 290.547 277.246 289.715C276.461 288.883 275.857 287.904 275.435 286.779C275.014 285.654 274.803 284.441 274.803 283.141V282.438C274.803 280.949 275.019 279.602 275.453 278.395C275.887 277.188 276.49 276.156 277.264 275.301C278.037 274.434 278.951 273.771 280.006 273.314C281.06 272.857 282.203 272.629 283.433 272.629C284.793 272.629 285.982 272.857 287.002 273.314C288.021 273.771 288.865 274.416 289.533 275.248C290.213 276.068 290.717 277.047 291.045 278.184C291.385 279.32 291.555 280.574 291.555 281.945V283.756H276.859V280.715H287.371V280.381C287.348 279.619 287.195 278.904 286.914 278.236C286.644 277.568 286.228 277.029 285.666 276.619C285.103 276.209 284.353 276.004 283.416 276.004C282.713 276.004 282.086 276.156 281.535 276.461C280.996 276.754 280.545 277.182 280.181 277.744C279.818 278.307 279.537 278.986 279.338 279.783C279.15 280.568 279.056 281.453 279.056 282.438V283.141C279.056 283.973 279.168 284.746 279.39 285.461C279.625 286.164 279.965 286.779 280.41 287.307C280.855 287.834 281.394 288.25 282.027 288.555C282.66 288.848 283.381 288.994 284.189 288.994C285.209 288.994 286.117 288.789 286.914 288.379C287.711 287.969 288.402 287.389 288.988 286.639L291.221 288.801C290.81 289.398 290.277 289.973 289.621 290.523C288.965 291.062 288.162 291.502 287.213 291.842C286.275 292.182 285.185 292.352 283.943 292.352ZM299.473 276.602V292H295.237V272.98H299.28L299.473 276.602ZM305.291 272.857L305.256 276.795C304.999 276.748 304.717 276.713 304.413 276.689C304.12 276.666 303.827 276.654 303.534 276.654C302.807 276.654 302.168 276.76 301.618 276.971C301.067 277.17 300.604 277.463 300.229 277.85C299.866 278.225 299.584 278.682 299.385 279.221C299.186 279.76 299.069 280.363 299.034 281.031L298.067 281.102C298.067 279.906 298.184 278.799 298.418 277.779C298.653 276.76 299.004 275.863 299.473 275.09C299.954 274.316 300.551 273.713 301.266 273.279C301.993 272.846 302.831 272.629 303.78 272.629C304.038 272.629 304.313 272.652 304.606 272.699C304.911 272.746 305.139 272.799 305.291 272.857ZM316.339 292.352C314.933 292.352 313.661 292.123 312.525 291.666C311.4 291.197 310.439 290.547 309.642 289.715C308.857 288.883 308.253 287.904 307.831 286.779C307.409 285.654 307.198 284.441 307.198 283.141V282.438C307.198 280.949 307.415 279.602 307.849 278.395C308.282 277.188 308.886 276.156 309.659 275.301C310.433 274.434 311.347 273.771 312.401 273.314C313.456 272.857 314.599 272.629 315.829 272.629C317.189 272.629 318.378 272.857 319.398 273.314C320.417 273.771 321.261 274.416 321.929 275.248C322.609 276.068 323.112 277.047 323.441 278.184C323.78 279.32 323.95 280.574 323.95 281.945V283.756H309.255V280.715H319.767V280.381C319.743 279.619 319.591 278.904 319.31 278.236C319.04 277.568 318.624 277.029 318.062 276.619C317.499 276.209 316.749 276.004 315.812 276.004C315.109 276.004 314.482 276.156 313.931 276.461C313.392 276.754 312.941 277.182 312.577 277.744C312.214 278.307 311.933 278.986 311.734 279.783C311.546 280.568 311.452 281.453 311.452 282.438V283.141C311.452 283.973 311.564 284.746 311.786 285.461C312.021 286.164 312.36 286.779 312.806 287.307C313.251 287.834 313.79 288.25 314.423 288.555C315.056 288.848 315.776 288.994 316.585 288.994C317.605 288.994 318.513 288.789 319.31 288.379C320.107 287.969 320.798 287.389 321.384 286.639L323.616 288.801C323.206 289.398 322.673 289.973 322.017 290.523C321.36 291.062 320.558 291.502 319.609 291.842C318.671 292.182 317.581 292.352 316.339 292.352ZM332.502 266.406L332.08 284.459H328.459L328.019 266.406H332.502ZM327.896 289.996C327.896 289.352 328.107 288.812 328.529 288.379C328.963 287.934 329.56 287.711 330.322 287.711C331.072 287.711 331.664 287.934 332.097 288.379C332.531 288.812 332.748 289.352 332.748 289.996C332.748 290.617 332.531 291.15 332.097 291.596C331.664 292.029 331.072 292.246 330.322 292.246C329.56 292.246 328.963 292.029 328.529 291.596C328.107 291.15 327.896 290.617 327.896 289.996Z" fill="#020210"/>
<rect x="63.5" y="509.5" width="375" height="349" rx="22.5" fill="url(#paint1_linear_2004_492)" stroke="#2E5C7D" stroke-width="5"/>
<path d="M196.646 557.502V561H183.796V557.502H196.646ZM185.026 535.406V561H180.614V535.406H185.026ZM208.379 561.352C206.972 561.352 205.701 561.123 204.564 560.666C203.439 560.197 202.478 559.547 201.681 558.715C200.896 557.883 200.293 556.904 199.871 555.779C199.449 554.654 199.238 553.441 199.238 552.141V551.438C199.238 549.949 199.455 548.602 199.888 547.395C200.322 546.188 200.926 545.156 201.699 544.301C202.472 543.434 203.386 542.771 204.441 542.314C205.496 541.857 206.638 541.629 207.869 541.629C209.228 541.629 210.418 541.857 211.437 542.314C212.457 542.771 213.301 543.416 213.969 544.248C214.648 545.068 215.152 546.047 215.48 547.184C215.82 548.32 215.99 549.574 215.99 550.945V552.756H201.295V549.715H211.806V549.381C211.783 548.619 211.631 547.904 211.349 547.236C211.08 546.568 210.664 546.029 210.101 545.619C209.539 545.209 208.789 545.004 207.851 545.004C207.148 545.004 206.521 545.156 205.97 545.461C205.431 545.754 204.98 546.182 204.617 546.744C204.254 547.307 203.972 547.986 203.773 548.783C203.586 549.568 203.492 550.453 203.492 551.438V552.141C203.492 552.973 203.603 553.746 203.826 554.461C204.06 555.164 204.4 555.779 204.845 556.307C205.291 556.834 205.83 557.25 206.463 557.555C207.095 557.848 207.816 557.994 208.625 557.994C209.644 557.994 210.552 557.789 211.349 557.379C212.146 556.969 212.838 556.389 213.424 555.639L215.656 557.801C215.246 558.398 214.713 558.973 214.056 559.523C213.4 560.062 212.597 560.502 211.648 560.842C210.711 561.182 209.621 561.352 208.379 561.352ZM228.373 541.98V545.074H217.651V541.98H228.373ZM220.745 537.322H224.981V555.744C224.981 556.33 225.063 556.781 225.227 557.098C225.403 557.402 225.643 557.607 225.948 557.713C226.252 557.818 226.61 557.871 227.02 557.871C227.313 557.871 227.594 557.854 227.864 557.818C228.133 557.783 228.35 557.748 228.514 557.713L228.532 560.947C228.18 561.053 227.77 561.146 227.301 561.229C226.844 561.311 226.317 561.352 225.719 561.352C224.746 561.352 223.885 561.182 223.135 560.842C222.385 560.49 221.799 559.922 221.377 559.137C220.955 558.352 220.745 557.309 220.745 556.008V537.322ZM236.169 534V536.479C236.169 537.217 236.034 537.984 235.765 538.781C235.507 539.566 235.144 540.322 234.675 541.049C234.206 541.764 233.667 542.385 233.058 542.912L230.931 541.576C231.411 540.85 231.798 540.082 232.091 539.273C232.396 538.453 232.548 537.533 232.548 536.514V534H236.169ZM248.201 555.85C248.201 555.428 248.095 555.047 247.884 554.707C247.674 554.355 247.269 554.039 246.672 553.758C246.086 553.477 245.218 553.219 244.07 552.984C243.062 552.762 242.136 552.498 241.293 552.193C240.461 551.877 239.746 551.496 239.148 551.051C238.55 550.605 238.088 550.078 237.759 549.469C237.431 548.859 237.267 548.156 237.267 547.359C237.267 546.586 237.437 545.854 237.777 545.162C238.117 544.471 238.603 543.861 239.236 543.334C239.869 542.807 240.636 542.391 241.539 542.086C242.453 541.781 243.472 541.629 244.597 541.629C246.191 541.629 247.556 541.898 248.693 542.438C249.841 542.965 250.72 543.686 251.33 544.6C251.939 545.502 252.244 546.521 252.244 547.658H248.007C248.007 547.154 247.879 546.686 247.621 546.252C247.375 545.807 247 545.449 246.496 545.18C245.992 544.898 245.359 544.758 244.597 544.758C243.871 544.758 243.267 544.875 242.787 545.109C242.318 545.332 241.966 545.625 241.732 545.988C241.509 546.352 241.398 546.75 241.398 547.184C241.398 547.5 241.457 547.787 241.574 548.045C241.703 548.291 241.914 548.52 242.207 548.73C242.5 548.93 242.898 549.117 243.402 549.293C243.918 549.469 244.562 549.639 245.336 549.803C246.789 550.107 248.037 550.5 249.08 550.98C250.134 551.449 250.943 552.059 251.506 552.809C252.068 553.547 252.349 554.484 252.349 555.621C252.349 556.465 252.168 557.238 251.804 557.941C251.453 558.633 250.937 559.236 250.257 559.752C249.578 560.256 248.763 560.648 247.814 560.93C246.877 561.211 245.822 561.352 244.65 561.352C242.927 561.352 241.468 561.047 240.273 560.438C239.078 559.816 238.17 559.025 237.549 558.064C236.939 557.092 236.634 556.084 236.634 555.041H240.73C240.777 555.826 240.994 556.453 241.381 556.922C241.779 557.379 242.271 557.713 242.857 557.924C243.455 558.123 244.07 558.223 244.703 558.223C245.465 558.223 246.103 558.123 246.619 557.924C247.134 557.713 247.527 557.432 247.797 557.08C248.066 556.717 248.201 556.307 248.201 555.85ZM274.462 541.98V545.074H263.739V541.98H274.462ZM266.833 537.322H271.069V555.744C271.069 556.33 271.151 556.781 271.315 557.098C271.491 557.402 271.731 557.607 272.036 557.713C272.341 557.818 272.698 557.871 273.108 557.871C273.401 557.871 273.683 557.854 273.952 557.818C274.222 557.783 274.438 557.748 274.603 557.713L274.62 560.947C274.269 561.053 273.858 561.146 273.39 561.229C272.933 561.311 272.405 561.352 271.808 561.352C270.835 561.352 269.974 561.182 269.224 560.842C268.474 560.49 267.888 559.922 267.466 559.137C267.044 558.352 266.833 557.309 266.833 556.008V537.322ZM288.814 557.186V548.115C288.814 547.436 288.691 546.85 288.445 546.357C288.199 545.865 287.824 545.484 287.32 545.215C286.828 544.945 286.207 544.811 285.457 544.811C284.765 544.811 284.168 544.928 283.664 545.162C283.16 545.396 282.767 545.713 282.486 546.111C282.205 546.51 282.064 546.961 282.064 547.465H277.845C277.845 546.715 278.027 545.988 278.39 545.285C278.754 544.582 279.281 543.955 279.972 543.404C280.664 542.854 281.49 542.42 282.451 542.104C283.412 541.787 284.49 541.629 285.685 541.629C287.115 541.629 288.38 541.869 289.482 542.35C290.595 542.83 291.468 543.557 292.101 544.529C292.746 545.49 293.068 546.697 293.068 548.15V556.605C293.068 557.473 293.127 558.252 293.244 558.943C293.373 559.623 293.554 560.215 293.789 560.719V561H289.447C289.248 560.543 289.089 559.963 288.972 559.26C288.867 558.545 288.814 557.854 288.814 557.186ZM289.429 549.434L289.464 552.053H286.423C285.638 552.053 284.947 552.129 284.349 552.281C283.752 552.422 283.254 552.633 282.855 552.914C282.457 553.195 282.158 553.535 281.959 553.934C281.759 554.332 281.66 554.783 281.66 555.287C281.66 555.791 281.777 556.254 282.011 556.676C282.246 557.086 282.586 557.408 283.031 557.643C283.488 557.877 284.039 557.994 284.683 557.994C285.55 557.994 286.306 557.818 286.951 557.467C287.607 557.104 288.123 556.664 288.498 556.148C288.873 555.621 289.072 555.123 289.095 554.654L290.466 556.535C290.326 557.016 290.086 557.531 289.746 558.082C289.406 558.633 288.961 559.16 288.41 559.664C287.871 560.156 287.22 560.561 286.459 560.877C285.709 561.193 284.841 561.352 283.857 561.352C282.615 561.352 281.507 561.105 280.535 560.613C279.562 560.109 278.8 559.436 278.25 558.592C277.699 557.736 277.423 556.77 277.423 555.691C277.423 554.684 277.611 553.793 277.986 553.02C278.373 552.234 278.935 551.578 279.673 551.051C280.423 550.523 281.337 550.125 282.416 549.855C283.494 549.574 284.724 549.434 286.107 549.434H289.429ZM302.393 534V561H298.139V534H302.393ZM311.665 534V561H307.411V534H311.665ZM323.477 541.98L315.198 551.156L310.663 555.797L309.556 552.211L312.983 547.975L318.362 541.98H323.477ZM319.276 561L313.106 552.07L315.778 549.1L324.181 561H319.276ZM198.574 597.977C199.266 597.977 199.887 597.842 200.438 597.572C201 597.291 201.451 596.904 201.791 596.412C202.143 595.92 202.336 595.352 202.371 594.707H206.361C206.338 595.938 205.975 597.057 205.272 598.064C204.568 599.072 203.637 599.875 202.477 600.473C201.316 601.059 200.033 601.352 198.627 601.352C197.174 601.352 195.908 601.105 194.83 600.613C193.752 600.109 192.856 599.418 192.141 598.539C191.426 597.66 190.887 596.646 190.524 595.498C190.172 594.35 189.996 593.119 189.996 591.807V591.191C189.996 589.879 190.172 588.648 190.524 587.5C190.887 586.34 191.426 585.32 192.141 584.441C192.856 583.562 193.752 582.877 194.83 582.385C195.908 581.881 197.168 581.629 198.609 581.629C200.133 581.629 201.469 581.934 202.617 582.543C203.766 583.141 204.668 583.979 205.324 585.057C205.992 586.123 206.338 587.365 206.361 588.783H202.371C202.336 588.08 202.16 587.447 201.844 586.885C201.539 586.311 201.106 585.854 200.543 585.514C199.992 585.174 199.33 585.004 198.557 585.004C197.701 585.004 196.992 585.18 196.43 585.531C195.867 585.871 195.428 586.34 195.111 586.938C194.795 587.523 194.566 588.186 194.426 588.924C194.297 589.65 194.232 590.406 194.232 591.191V591.807C194.232 592.592 194.297 593.354 194.426 594.092C194.555 594.83 194.777 595.492 195.094 596.078C195.422 596.652 195.867 597.115 196.43 597.467C196.992 597.807 197.707 597.977 198.574 597.977ZM209.165 591.701V591.297C209.165 589.926 209.364 588.654 209.762 587.482C210.161 586.299 210.735 585.273 211.485 584.406C212.247 583.527 213.173 582.848 214.262 582.367C215.364 581.875 216.606 581.629 217.989 581.629C219.384 581.629 220.626 581.875 221.716 582.367C222.817 582.848 223.749 583.527 224.51 584.406C225.272 585.273 225.852 586.299 226.251 587.482C226.649 588.654 226.848 589.926 226.848 591.297V591.701C226.848 593.072 226.649 594.344 226.251 595.516C225.852 596.688 225.272 597.713 224.51 598.592C223.749 599.459 222.823 600.139 221.733 600.631C220.643 601.111 219.407 601.352 218.024 601.352C216.63 601.352 215.382 601.111 214.28 600.631C213.19 600.139 212.264 599.459 211.503 598.592C210.741 597.713 210.161 596.688 209.762 595.516C209.364 594.344 209.165 593.072 209.165 591.701ZM213.401 591.297V591.701C213.401 592.557 213.489 593.365 213.665 594.127C213.841 594.889 214.116 595.557 214.491 596.131C214.866 596.705 215.346 597.156 215.932 597.484C216.518 597.812 217.216 597.977 218.024 597.977C218.809 597.977 219.489 597.812 220.063 597.484C220.649 597.156 221.13 596.705 221.505 596.131C221.88 595.557 222.155 594.889 222.331 594.127C222.518 593.365 222.612 592.557 222.612 591.701V591.297C222.612 590.453 222.518 589.656 222.331 588.906C222.155 588.145 221.874 587.471 221.487 586.885C221.112 586.299 220.632 585.842 220.046 585.514C219.471 585.174 218.786 585.004 217.989 585.004C217.192 585.004 216.501 585.174 215.915 585.514C215.341 585.842 214.866 586.299 214.491 586.885C214.116 587.471 213.841 588.145 213.665 588.906C213.489 589.656 213.401 590.453 213.401 591.297ZM234.96 586.041V601H230.724V581.98H234.714L234.96 586.041ZM234.204 590.787L232.833 590.77C232.845 589.422 233.033 588.186 233.396 587.061C233.771 585.936 234.286 584.969 234.943 584.16C235.611 583.352 236.408 582.73 237.333 582.297C238.259 581.852 239.29 581.629 240.427 581.629C241.341 581.629 242.167 581.758 242.906 582.016C243.656 582.262 244.294 582.666 244.822 583.229C245.361 583.791 245.771 584.523 246.052 585.426C246.333 586.316 246.474 587.412 246.474 588.713V601H242.22V588.695C242.22 587.781 242.085 587.061 241.816 586.533C241.558 585.994 241.177 585.613 240.673 585.391C240.181 585.156 239.566 585.039 238.827 585.039C238.101 585.039 237.451 585.191 236.876 585.496C236.302 585.801 235.816 586.217 235.417 586.744C235.031 587.271 234.732 587.881 234.521 588.572C234.31 589.264 234.204 590.002 234.204 590.787ZM259.877 581.98V585.074H249.154V581.98H259.877ZM252.248 577.322H256.484V595.744C256.484 596.33 256.566 596.781 256.73 597.098C256.906 597.402 257.146 597.607 257.451 597.713C257.756 597.818 258.113 597.871 258.523 597.871C258.816 597.871 259.098 597.854 259.367 597.818C259.637 597.783 259.854 597.748 260.018 597.713L260.035 600.947C259.684 601.053 259.273 601.146 258.805 601.229C258.348 601.311 257.82 601.352 257.223 601.352C256.25 601.352 255.389 601.182 254.639 600.842C253.889 600.49 253.303 599.922 252.881 599.137C252.459 598.352 252.248 597.309 252.248 596.008V577.322ZM271.891 601.352C270.485 601.352 269.214 601.123 268.077 600.666C266.952 600.197 265.991 599.547 265.194 598.715C264.409 597.883 263.805 596.904 263.383 595.779C262.962 594.654 262.751 593.441 262.751 592.141V591.438C262.751 589.949 262.967 588.602 263.401 587.395C263.835 586.188 264.438 585.156 265.212 584.301C265.985 583.434 266.899 582.771 267.954 582.314C269.008 581.857 270.151 581.629 271.381 581.629C272.741 581.629 273.93 581.857 274.95 582.314C275.969 582.771 276.813 583.416 277.481 584.248C278.161 585.068 278.665 586.047 278.993 587.184C279.333 588.32 279.503 589.574 279.503 590.945V592.756H264.807V589.715H275.319V589.381C275.296 588.619 275.143 587.904 274.862 587.236C274.592 586.568 274.176 586.029 273.614 585.619C273.051 585.209 272.301 585.004 271.364 585.004C270.661 585.004 270.034 585.156 269.483 585.461C268.944 585.754 268.493 586.182 268.13 586.744C267.766 587.307 267.485 587.986 267.286 588.783C267.098 589.568 267.005 590.453 267.005 591.438V592.141C267.005 592.973 267.116 593.746 267.339 594.461C267.573 595.164 267.913 595.779 268.358 596.307C268.803 596.834 269.342 597.25 269.975 597.555C270.608 597.848 271.329 597.994 272.137 597.994C273.157 597.994 274.065 597.789 274.862 597.379C275.659 596.969 276.35 596.389 276.936 595.639L279.169 597.801C278.758 598.398 278.225 598.973 277.569 599.523C276.913 600.062 276.11 600.502 275.161 600.842C274.223 601.182 273.133 601.352 271.891 601.352ZM287.368 586.041V601H283.132V581.98H287.122L287.368 586.041ZM286.613 590.787L285.241 590.77C285.253 589.422 285.441 588.186 285.804 587.061C286.179 585.936 286.695 584.969 287.351 584.16C288.019 583.352 288.816 582.73 289.741 582.297C290.667 581.852 291.699 581.629 292.835 581.629C293.749 581.629 294.575 581.758 295.314 582.016C296.064 582.262 296.702 582.666 297.23 583.229C297.769 583.791 298.179 584.523 298.46 585.426C298.741 586.316 298.882 587.412 298.882 588.713V601H294.628V588.695C294.628 587.781 294.493 587.061 294.224 586.533C293.966 585.994 293.585 585.613 293.081 585.391C292.589 585.156 291.974 585.039 291.236 585.039C290.509 585.039 289.859 585.191 289.284 585.496C288.71 585.801 288.224 586.217 287.825 586.744C287.439 587.271 287.14 587.881 286.929 588.572C286.718 589.264 286.613 590.002 286.613 590.787ZM312.285 581.98V585.074H301.562V581.98H312.285ZM304.656 577.322H308.893V595.744C308.893 596.33 308.975 596.781 309.139 597.098C309.314 597.402 309.555 597.607 309.859 597.713C310.164 597.818 310.521 597.871 310.932 597.871C311.225 597.871 311.506 597.854 311.775 597.818C312.045 597.783 312.262 597.748 312.426 597.713L312.443 600.947C312.092 601.053 311.682 601.146 311.213 601.229C310.756 601.311 310.228 601.352 309.631 601.352C308.658 601.352 307.797 601.182 307.047 600.842C306.297 600.49 305.711 599.922 305.289 599.137C304.867 598.352 304.656 597.309 304.656 596.008V577.322Z" fill="#020210"/>
<path d="M254.68 907.38C252.833 908.902 250.167 908.902 248.32 907.38L217.651 882.109C214.031 879.126 216.14 873.25 220.83 873.25H282.17C286.86 873.25 288.969 879.126 285.349 882.109L254.68 907.38Z" fill="#FAFAFF"/>
<defs>
<linearGradient id="paint0_linear_2004_492" x1="251" y1="216" x2="251" y2="985" gradientUnits="userSpaceOnUse">
<stop stop-color="#FAFAFF"/>
<stop offset="1" stop-color="#9898AD"/>
</linearGradient>
<linearGradient id="paint1_linear_2004_492" x1="251" y1="507" x2="251" y2="861" gradientUnits="userSpaceOnUse">
<stop stop-color="#C0E1F4"/>
<stop offset="1" stop-color="#8DB9D6"/>
</linearGradient>
<clipPath id="clip0_2004_492">
<rect x="45" y="47" width="412" height="892" rx="18" fill="white"/>
</clipPath>
</defs>
</svg>
