<svg width="502" height="985" viewBox="0 0 502 985" fill="none" xmlns="http://www.w3.org/2000/svg">
<rect y="47" width="502" height="112" fill="#7F7F7F"/>
<rect y="216" width="502" height="769" fill="url(#paint0_linear_2004_502)"/>
<rect y="159" width="502" height="57" fill="#34601D"/>
<g clip-path="url(#clip0_2004_502)">
<path d="M71.0781 82.7012H71.2148C71.8438 82.7012 72.3678 82.6191 72.7871 82.4551C73.2109 82.2865 73.5482 82.054 73.7988 81.7578C74.0495 81.4616 74.2295 81.113 74.3389 80.7119C74.4482 80.3109 74.5029 79.8757 74.5029 79.4062V77.6904C74.5029 77.2848 74.4596 76.9294 74.373 76.624C74.291 76.3141 74.1725 76.0566 74.0176 75.8516C73.8672 75.6419 73.6917 75.4847 73.4912 75.3799C73.2952 75.2751 73.0833 75.2227 72.8555 75.2227C72.6048 75.2227 72.3792 75.2796 72.1787 75.3936C71.9827 75.5029 71.8164 75.6556 71.6797 75.8516C71.5475 76.043 71.445 76.2686 71.3721 76.5283C71.3037 76.7835 71.2695 77.057 71.2695 77.3486C71.2695 77.6221 71.3014 77.8864 71.3652 78.1416C71.4336 78.3923 71.5339 78.6156 71.666 78.8115C71.7982 79.0075 71.9645 79.1624 72.165 79.2764C72.3656 79.3903 72.6003 79.4473 72.8691 79.4473C73.1243 79.4473 73.359 79.3994 73.5732 79.3037C73.7874 79.2035 73.9743 79.069 74.1338 78.9004C74.2933 78.7318 74.4186 78.5426 74.5098 78.333C74.6009 78.1234 74.651 77.9092 74.6602 77.6904L75.2891 77.8818C75.2891 78.2282 75.2161 78.57 75.0703 78.9072C74.929 79.2399 74.7308 79.5452 74.4756 79.8232C74.2249 80.0967 73.931 80.3154 73.5938 80.4795C73.2611 80.6436 72.8988 80.7256 72.5068 80.7256C72.0329 80.7256 71.6136 80.6367 71.249 80.459C70.889 80.2767 70.5882 80.0306 70.3467 79.7207C70.1097 79.4108 69.932 79.0553 69.8135 78.6543C69.695 78.2533 69.6357 77.8317 69.6357 77.3896C69.6357 76.9111 69.7087 76.4622 69.8545 76.043C70.0003 75.6237 70.2122 75.2546 70.4902 74.9355C70.7682 74.612 71.1055 74.3613 71.502 74.1836C71.903 74.0013 72.3564 73.9102 72.8623 73.9102C73.4001 73.9102 73.8717 74.015 74.2773 74.2246C74.6829 74.4342 75.0247 74.7236 75.3027 75.0928C75.5807 75.4619 75.7904 75.8903 75.9316 76.3779C76.0729 76.8656 76.1436 77.3896 76.1436 77.9502V78.5312C76.1436 79.1191 76.0911 79.6865 75.9863 80.2334C75.8815 80.7757 75.7106 81.2793 75.4736 81.7441C75.2412 82.2044 74.9336 82.61 74.5508 82.9609C74.1725 83.3073 73.7077 83.5785 73.1562 83.7744C72.6094 83.9658 71.9668 84.0615 71.2285 84.0615H71.0781V82.7012ZM78.1019 83.1797C78.1019 82.9245 78.1885 82.7103 78.3617 82.5371C78.5349 82.3594 78.7696 82.2705 79.0658 82.2705C79.3666 82.2705 79.6013 82.3594 79.7699 82.5371C79.9431 82.7103 80.0296 82.9245 80.0296 83.1797C80.0296 83.4349 79.9431 83.6491 79.7699 83.8223C79.6013 83.9954 79.3666 84.082 79.0658 84.082C78.7696 84.082 78.5349 83.9954 78.3617 83.8223C78.1885 83.6491 78.1019 83.4349 78.1019 83.1797ZM78.1088 77.3555C78.1088 77.1003 78.1953 76.8861 78.3685 76.7129C78.5417 76.5352 78.7764 76.4463 79.0726 76.4463C79.3734 76.4463 79.6081 76.5352 79.7767 76.7129C79.9499 76.8861 80.0365 77.1003 80.0365 77.3555C80.0365 77.6107 79.9499 77.8249 79.7767 77.998C79.6081 78.1712 79.3734 78.2578 79.0726 78.2578C78.7764 78.2578 78.5417 78.1712 78.3685 77.998C78.1953 77.8249 78.1088 77.6107 78.1088 77.3555ZM83.7517 78.2783H84.7361C85.1189 78.2783 85.4356 78.2122 85.6862 78.0801C85.9415 77.9479 86.1306 77.7656 86.2536 77.5332C86.3767 77.3008 86.4382 77.0342 86.4382 76.7334C86.4382 76.4189 86.3812 76.1501 86.2673 75.9268C86.1579 75.6989 85.9893 75.5234 85.7614 75.4004C85.5381 75.2773 85.2533 75.2158 84.907 75.2158C84.6153 75.2158 84.351 75.2751 84.114 75.3936C83.8816 75.5075 83.697 75.6715 83.5603 75.8857C83.4236 76.0954 83.3552 76.346 83.3552 76.6377H81.7009C81.7009 76.109 81.8399 75.6396 82.1179 75.2295C82.3959 74.8193 82.7741 74.498 83.2527 74.2656C83.7357 74.0286 84.278 73.9102 84.8796 73.9102C85.5222 73.9102 86.0827 74.0173 86.5612 74.2314C87.0443 74.4411 87.4203 74.7555 87.6892 75.1748C87.9581 75.5941 88.0925 76.1136 88.0925 76.7334C88.0925 77.016 88.0264 77.3031 87.8943 77.5947C87.7621 77.8864 87.5661 78.153 87.3064 78.3945C87.0466 78.6315 86.723 78.8252 86.3357 78.9756C85.9483 79.1214 85.4994 79.1943 84.989 79.1943H83.7517V78.2783ZM83.7517 79.5635V78.6611H84.989C85.5723 78.6611 86.0691 78.7295 86.4792 78.8662C86.8939 79.0029 87.2312 79.1921 87.4909 79.4336C87.7507 79.6706 87.9398 79.9417 88.0583 80.2471C88.1814 80.5524 88.2429 80.876 88.2429 81.2178C88.2429 81.6826 88.1586 82.0973 87.99 82.4619C87.8259 82.8219 87.5912 83.1273 87.2859 83.3779C86.9805 83.6286 86.6228 83.8177 86.2126 83.9453C85.807 84.0729 85.365 84.1367 84.8864 84.1367C84.4581 84.1367 84.0479 84.0775 83.656 83.959C83.264 83.8405 82.9131 83.665 82.6032 83.4326C82.2933 83.1956 82.0473 82.9017 81.865 82.5508C81.6872 82.1953 81.5984 81.7852 81.5984 81.3203H83.2458C83.2458 81.6165 83.3142 81.8786 83.4509 82.1064C83.5922 82.3298 83.7881 82.5052 84.0388 82.6328C84.294 82.7604 84.5857 82.8242 84.9138 82.8242C85.2601 82.8242 85.5586 82.7627 85.8093 82.6396C86.0599 82.5166 86.2514 82.3343 86.3835 82.0928C86.5202 81.8512 86.5886 81.5596 86.5886 81.2178C86.5886 80.8304 86.5134 80.516 86.363 80.2744C86.2126 80.0329 85.9984 79.8551 85.7204 79.7412C85.4424 79.6227 85.1143 79.5635 84.7361 79.5635H83.7517ZM96.5382 78.1895V79.8164C96.5382 80.5957 96.4607 81.2611 96.3057 81.8125C96.1554 82.3594 95.9366 82.8037 95.6495 83.1455C95.3624 83.4873 95.0183 83.738 94.6173 83.8975C94.2208 84.057 93.7764 84.1367 93.2843 84.1367C92.8923 84.1367 92.5277 84.0866 92.1905 83.9863C91.8578 83.8861 91.557 83.7288 91.2882 83.5146C91.0193 83.3005 90.7891 83.0247 90.5977 82.6875C90.4109 82.3457 90.2651 81.9378 90.1602 81.4639C90.06 80.9899 90.0098 80.4408 90.0098 79.8164V78.1895C90.0098 77.4056 90.0873 76.7448 90.2423 76.207C90.3972 75.6647 90.6182 75.2249 90.9054 74.8877C91.1925 74.5459 91.5343 74.2975 91.9307 74.1426C92.3318 73.9876 92.7784 73.9102 93.2706 73.9102C93.6671 73.9102 94.0317 73.9603 94.3643 74.0605C94.7016 74.1562 95.0024 74.3089 95.2667 74.5186C95.5356 74.7282 95.7634 75.0016 95.9503 75.3389C96.1417 75.6715 96.2875 76.0749 96.3878 76.5488C96.488 77.0182 96.5382 77.5651 96.5382 78.1895ZM94.8907 80.0488V77.9434C94.8907 77.5469 94.8679 77.1982 94.8223 76.8975C94.7768 76.5921 94.7084 76.3346 94.6173 76.125C94.5307 75.9108 94.4213 75.7376 94.2891 75.6055C94.157 75.4688 94.0066 75.3708 93.838 75.3115C93.6693 75.2477 93.4802 75.2158 93.2706 75.2158C93.0154 75.2158 92.7875 75.266 92.587 75.3662C92.3865 75.4619 92.2179 75.6169 92.0811 75.8311C91.9444 76.0452 91.8396 76.3278 91.7667 76.6787C91.6983 77.0251 91.6641 77.4466 91.6641 77.9434V80.0488C91.6641 80.4499 91.6869 80.8031 91.7325 81.1084C91.7781 81.4137 91.8464 81.6758 91.9376 81.8945C92.0287 82.1087 92.1381 82.2865 92.2657 82.4277C92.3979 82.5645 92.5483 82.6647 92.7169 82.7285C92.8901 82.7923 93.0792 82.8242 93.2843 82.8242C93.544 82.8242 93.7742 82.7741 93.9747 82.6738C94.1752 82.5736 94.3438 82.4141 94.4805 82.1953C94.6173 81.972 94.7198 81.6826 94.7882 81.3271C94.8565 80.9717 94.8907 80.5456 94.8907 80.0488Z" fill="#1D1B20"/>
<path opacity="0.1" d="M395.5 73.4166C392.1 73.4166 389.125 74.9041 387 77.2416L395.5 87.5833L404 77.2416C401.875 74.9041 398.9 73.4166 395.5 73.4166Z" fill="#1D1B20"/>
<path d="M418.583 73.4166L404.417 87.5833H418.583V73.4166Z" fill="#1D1B20"/>
<path opacity="0.3" d="M430.5 73H427.5V74.5H426C425.448 74.5 425 75.0037 425 75.625V86.875C425 87.4963 425.448 88 426 88H432C432.552 88 433 87.4963 433 86.875V75.625C433 75.0037 432.552 74.5 432 74.5H430.5V73Z" fill="#1D1B20"/>
<path d="M425 81C425 81.5833 425 86.3667 425 86.95C425 87.5299 425.448 88 426 88H432C432.552 88 433 87.5299 433 86.95C433 86.3667 433 81.5833 433 81H425Z" fill="#1D1B20"/>
<path fill-rule="evenodd" clip-rule="evenodd" d="M251 65C244.373 65 239 70.3731 239 77C239 83.6269 244.373 89 251 89C257.627 89 263 83.6269 263 77C263 70.3731 257.627 65 251 65Z" fill="#1D1B20"/>
<rect x="197" y="925" width="108" height="4" rx="2" fill="#1D1B20"/>
</g>
<rect x="41" y="43" width="420" height="900" rx="22" stroke="#CAC4D0" stroke-width="8"/>
<circle cx="427.5" cy="191.5" r="19.5" fill="#E7F6B4"/>
<path d="M368.38 180.51C374.137 180.51 379.199 186.946 382.12 196.678C382.983 196.561 383.864 196.5 384.76 196.5C395.529 196.5 404.26 205.231 404.26 216H352C352 196.4 359.334 180.51 368.38 180.51Z" fill="#9898AD"/>
<path d="M257.68 912.38C255.833 913.902 253.167 913.902 251.32 912.38L220.651 887.109C217.031 884.126 219.14 878.25 223.83 878.25H285.17C289.86 878.25 291.969 884.126 288.349 887.109L257.68 912.38Z" fill="#FAFAFF"/>
<path d="M186.512 274.094V277.592H172.924V274.094H186.512ZM174.014 263.406V289H169.602V263.406H174.014ZM189.904 263.406V289H185.51V263.406H189.904ZM203.483 289.352C202.077 289.352 200.805 289.123 199.669 288.666C198.544 288.197 197.583 287.547 196.786 286.715C196.001 285.883 195.397 284.904 194.975 283.779C194.553 282.654 194.342 281.441 194.342 280.141V279.438C194.342 277.949 194.559 276.602 194.993 275.395C195.426 274.188 196.03 273.156 196.803 272.301C197.577 271.434 198.491 270.771 199.546 270.314C200.6 269.857 201.743 269.629 202.973 269.629C204.333 269.629 205.522 269.857 206.542 270.314C207.561 270.771 208.405 271.416 209.073 272.248C209.753 273.068 210.256 274.047 210.585 275.184C210.924 276.32 211.094 277.574 211.094 278.945V280.756H196.399V277.715H206.911V277.381C206.887 276.619 206.735 275.904 206.454 275.236C206.184 274.568 205.768 274.029 205.206 273.619C204.643 273.209 203.893 273.004 202.956 273.004C202.253 273.004 201.626 273.156 201.075 273.461C200.536 273.754 200.085 274.182 199.721 274.744C199.358 275.307 199.077 275.986 198.878 276.783C198.69 277.568 198.596 278.453 198.596 279.438V280.141C198.596 280.973 198.708 281.746 198.93 282.461C199.165 283.164 199.505 283.779 199.95 284.307C200.395 284.834 200.934 285.25 201.567 285.555C202.2 285.848 202.921 285.994 203.729 285.994C204.749 285.994 205.657 285.789 206.454 285.379C207.251 284.969 207.942 284.389 208.528 283.639L210.76 285.801C210.35 286.398 209.817 286.973 209.161 287.523C208.505 288.062 207.702 288.502 206.753 288.842C205.815 289.182 204.725 289.352 203.483 289.352ZM220.033 286.926L225.2 269.98H229.736L222.107 291.9C221.931 292.369 221.702 292.879 221.421 293.43C221.14 293.98 220.771 294.502 220.314 294.994C219.868 295.498 219.312 295.902 218.644 296.207C217.976 296.523 217.167 296.682 216.218 296.682C215.843 296.682 215.48 296.646 215.128 296.576C214.788 296.518 214.466 296.453 214.161 296.383L214.144 293.148C214.261 293.16 214.402 293.172 214.566 293.184C214.741 293.195 214.882 293.201 214.988 293.201C215.691 293.201 216.277 293.113 216.745 292.938C217.214 292.773 217.595 292.504 217.888 292.129C218.193 291.754 218.45 291.25 218.661 290.617L220.033 286.926ZM217.115 269.98L221.632 284.219L222.388 288.684L219.452 289.439L212.544 269.98H217.115ZM250.565 269.98V273.074H239.842V269.98H250.565ZM242.936 265.322H247.172V283.744C247.172 284.33 247.254 284.781 247.419 285.098C247.594 285.402 247.835 285.607 248.139 285.713C248.444 285.818 248.801 285.871 249.211 285.871C249.504 285.871 249.786 285.854 250.055 285.818C250.325 285.783 250.542 285.748 250.706 285.713L250.723 288.947C250.372 289.053 249.961 289.146 249.493 289.229C249.036 289.311 248.508 289.352 247.911 289.352C246.938 289.352 246.077 289.182 245.327 288.842C244.577 288.49 243.991 287.922 243.569 287.137C243.147 286.352 242.936 285.309 242.936 284.008V265.322ZM258.378 262V289H254.159V262H258.378ZM257.64 278.787L256.269 278.77C256.28 277.457 256.462 276.244 256.814 275.131C257.177 274.018 257.681 273.051 258.325 272.23C258.982 271.398 259.767 270.76 260.681 270.314C261.595 269.857 262.609 269.629 263.722 269.629C264.659 269.629 265.503 269.758 266.253 270.016C267.015 270.273 267.671 270.689 268.222 271.264C268.773 271.826 269.189 272.564 269.47 273.479C269.763 274.381 269.909 275.482 269.909 276.783V289H265.655V276.748C265.655 275.834 265.521 275.107 265.251 274.568C264.993 274.029 264.613 273.643 264.109 273.408C263.605 273.162 262.989 273.039 262.263 273.039C261.501 273.039 260.827 273.191 260.241 273.496C259.667 273.801 259.187 274.217 258.8 274.744C258.413 275.271 258.12 275.881 257.921 276.572C257.734 277.264 257.64 278.002 257.64 278.787ZM282.943 289.352C281.537 289.352 280.265 289.123 279.129 288.666C278.004 288.197 277.043 287.547 276.246 286.715C275.461 285.883 274.857 284.904 274.435 283.779C274.014 282.654 273.803 281.441 273.803 280.141V279.438C273.803 277.949 274.019 276.602 274.453 275.395C274.887 274.188 275.49 273.156 276.264 272.301C277.037 271.434 277.951 270.771 279.006 270.314C280.06 269.857 281.203 269.629 282.433 269.629C283.793 269.629 284.982 269.857 286.002 270.314C287.021 270.771 287.865 271.416 288.533 272.248C289.213 273.068 289.717 274.047 290.045 275.184C290.385 276.32 290.555 277.574 290.555 278.945V280.756H275.859V277.715H286.371V277.381C286.348 276.619 286.195 275.904 285.914 275.236C285.644 274.568 285.228 274.029 284.666 273.619C284.103 273.209 283.353 273.004 282.416 273.004C281.713 273.004 281.086 273.156 280.535 273.461C279.996 273.754 279.545 274.182 279.181 274.744C278.818 275.307 278.537 275.986 278.338 276.783C278.15 277.568 278.056 278.453 278.056 279.438V280.141C278.056 280.973 278.168 281.746 278.39 282.461C278.625 283.164 278.965 283.779 279.41 284.307C279.855 284.834 280.394 285.25 281.027 285.555C281.66 285.848 282.381 285.994 283.189 285.994C284.209 285.994 285.117 285.789 285.914 285.379C286.711 284.969 287.402 284.389 287.988 283.639L290.221 285.801C289.81 286.398 289.277 286.973 288.621 287.523C287.965 288.062 287.162 288.502 286.213 288.842C285.275 289.182 284.185 289.352 282.943 289.352ZM298.473 273.602V289H294.237V269.98H298.28L298.473 273.602ZM304.291 269.857L304.256 273.795C303.999 273.748 303.717 273.713 303.413 273.689C303.12 273.666 302.827 273.654 302.534 273.654C301.807 273.654 301.168 273.76 300.618 273.971C300.067 274.17 299.604 274.463 299.229 274.85C298.866 275.225 298.584 275.682 298.385 276.221C298.186 276.76 298.069 277.363 298.034 278.031L297.067 278.102C297.067 276.906 297.184 275.799 297.418 274.779C297.653 273.76 298.004 272.863 298.473 272.09C298.954 271.316 299.551 270.713 300.266 270.279C300.993 269.846 301.831 269.629 302.78 269.629C303.038 269.629 303.313 269.652 303.606 269.699C303.911 269.746 304.139 269.799 304.291 269.857ZM315.339 289.352C313.933 289.352 312.661 289.123 311.525 288.666C310.4 288.197 309.439 287.547 308.642 286.715C307.857 285.883 307.253 284.904 306.831 283.779C306.409 282.654 306.198 281.441 306.198 280.141V279.438C306.198 277.949 306.415 276.602 306.849 275.395C307.282 274.188 307.886 273.156 308.659 272.301C309.433 271.434 310.347 270.771 311.401 270.314C312.456 269.857 313.599 269.629 314.829 269.629C316.189 269.629 317.378 269.857 318.398 270.314C319.417 270.771 320.261 271.416 320.929 272.248C321.609 273.068 322.112 274.047 322.441 275.184C322.78 276.32 322.95 277.574 322.95 278.945V280.756H308.255V277.715H318.767V277.381C318.743 276.619 318.591 275.904 318.31 275.236C318.04 274.568 317.624 274.029 317.062 273.619C316.499 273.209 315.749 273.004 314.812 273.004C314.109 273.004 313.482 273.156 312.931 273.461C312.392 273.754 311.941 274.182 311.577 274.744C311.214 275.307 310.933 275.986 310.734 276.783C310.546 277.568 310.452 278.453 310.452 279.438V280.141C310.452 280.973 310.564 281.746 310.786 282.461C311.021 283.164 311.36 283.779 311.806 284.307C312.251 284.834 312.79 285.25 313.423 285.555C314.056 285.848 314.776 285.994 315.585 285.994C316.605 285.994 317.513 285.789 318.31 285.379C319.107 284.969 319.798 284.389 320.384 283.639L322.616 285.801C322.206 286.398 321.673 286.973 321.017 287.523C320.36 288.062 319.558 288.502 318.609 288.842C317.671 289.182 316.581 289.352 315.339 289.352ZM331.502 263.406L331.08 281.459H327.459L327.019 263.406H331.502ZM326.896 286.996C326.896 286.352 327.107 285.812 327.529 285.379C327.963 284.934 328.56 284.711 329.322 284.711C330.072 284.711 330.664 284.934 331.097 285.379C331.531 285.812 331.748 286.352 331.748 286.996C331.748 287.617 331.531 288.15 331.097 288.596C330.664 289.029 330.072 289.246 329.322 289.246C328.56 289.246 327.963 289.029 327.529 288.596C327.107 288.15 326.896 287.617 326.896 286.996Z" fill="#020210"/>
<rect x="66.5" y="514.5" width="375" height="349" rx="22.5" fill="url(#paint1_linear_2004_502)" stroke="#34601D" stroke-width="5"/>
<path d="M199.646 562.502V566H186.796V562.502H199.646ZM188.026 540.406V566H183.614V540.406H188.026ZM211.379 566.352C209.972 566.352 208.701 566.123 207.564 565.666C206.439 565.197 205.478 564.547 204.681 563.715C203.896 562.883 203.293 561.904 202.871 560.779C202.449 559.654 202.238 558.441 202.238 557.141V556.438C202.238 554.949 202.455 553.602 202.888 552.395C203.322 551.188 203.926 550.156 204.699 549.301C205.472 548.434 206.386 547.771 207.441 547.314C208.496 546.857 209.638 546.629 210.869 546.629C212.228 546.629 213.418 546.857 214.437 547.314C215.457 547.771 216.301 548.416 216.969 549.248C217.648 550.068 218.152 551.047 218.48 552.184C218.82 553.32 218.99 554.574 218.99 555.945V557.756H204.295V554.715H214.806V554.381C214.783 553.619 214.631 552.904 214.349 552.236C214.08 551.568 213.664 551.029 213.101 550.619C212.539 550.209 211.789 550.004 210.851 550.004C210.148 550.004 209.521 550.156 208.97 550.461C208.431 550.754 207.98 551.182 207.617 551.744C207.254 552.307 206.972 552.986 206.773 553.783C206.586 554.568 206.492 555.453 206.492 556.438V557.141C206.492 557.973 206.603 558.746 206.826 559.461C207.06 560.164 207.4 560.779 207.845 561.307C208.291 561.834 208.83 562.25 209.463 562.555C210.095 562.848 210.816 562.994 211.625 562.994C212.644 562.994 213.552 562.789 214.349 562.379C215.146 561.969 215.838 561.389 216.424 560.639L218.656 562.801C218.246 563.398 217.713 563.973 217.056 564.523C216.4 565.062 215.597 565.502 214.648 565.842C213.711 566.182 212.621 566.352 211.379 566.352ZM231.373 546.98V550.074H220.651V546.98H231.373ZM223.745 542.322H227.981V560.744C227.981 561.33 228.063 561.781 228.227 562.098C228.403 562.402 228.643 562.607 228.948 562.713C229.252 562.818 229.61 562.871 230.02 562.871C230.313 562.871 230.594 562.854 230.864 562.818C231.133 562.783 231.35 562.748 231.514 562.713L231.532 565.947C231.18 566.053 230.77 566.146 230.301 566.229C229.844 566.311 229.317 566.352 228.719 566.352C227.746 566.352 226.885 566.182 226.135 565.842C225.385 565.49 224.799 564.922 224.377 564.137C223.955 563.352 223.745 562.309 223.745 561.008V542.322ZM239.169 539V541.479C239.169 542.217 239.034 542.984 238.765 543.781C238.507 544.566 238.144 545.322 237.675 546.049C237.206 546.764 236.667 547.385 236.058 547.912L233.931 546.576C234.411 545.85 234.798 545.082 235.091 544.273C235.396 543.453 235.548 542.533 235.548 541.514V539H239.169ZM251.201 560.85C251.201 560.428 251.095 560.047 250.884 559.707C250.674 559.355 250.269 559.039 249.672 558.758C249.086 558.477 248.218 558.219 247.07 557.984C246.062 557.762 245.136 557.498 244.293 557.193C243.461 556.877 242.746 556.496 242.148 556.051C241.55 555.605 241.088 555.078 240.759 554.469C240.431 553.859 240.267 553.156 240.267 552.359C240.267 551.586 240.437 550.854 240.777 550.162C241.117 549.471 241.603 548.861 242.236 548.334C242.869 547.807 243.636 547.391 244.539 547.086C245.453 546.781 246.472 546.629 247.597 546.629C249.191 546.629 250.556 546.898 251.693 547.438C252.841 547.965 253.72 548.686 254.33 549.6C254.939 550.502 255.244 551.521 255.244 552.658H251.007C251.007 552.154 250.879 551.686 250.621 551.252C250.375 550.807 250 550.449 249.496 550.18C248.992 549.898 248.359 549.758 247.597 549.758C246.871 549.758 246.267 549.875 245.787 550.109C245.318 550.332 244.966 550.625 244.732 550.988C244.509 551.352 244.398 551.75 244.398 552.184C244.398 552.5 244.457 552.787 244.574 553.045C244.703 553.291 244.914 553.52 245.207 553.73C245.5 553.93 245.898 554.117 246.402 554.293C246.918 554.469 247.562 554.639 248.336 554.803C249.789 555.107 251.037 555.5 252.08 555.98C253.134 556.449 253.943 557.059 254.506 557.809C255.068 558.547 255.349 559.484 255.349 560.621C255.349 561.465 255.168 562.238 254.804 562.941C254.453 563.633 253.937 564.236 253.257 564.752C252.578 565.256 251.763 565.648 250.814 565.93C249.877 566.211 248.822 566.352 247.65 566.352C245.927 566.352 244.468 566.047 243.273 565.438C242.078 564.816 241.17 564.025 240.549 563.064C239.939 562.092 239.634 561.084 239.634 560.041H243.73C243.777 560.826 243.994 561.453 244.381 561.922C244.779 562.379 245.271 562.713 245.857 562.924C246.455 563.123 247.07 563.223 247.703 563.223C248.465 563.223 249.103 563.123 249.619 562.924C250.134 562.713 250.527 562.432 250.797 562.08C251.066 561.717 251.201 561.307 251.201 560.85ZM277.462 546.98V550.074H266.739V546.98H277.462ZM269.833 542.322H274.069V560.744C274.069 561.33 274.151 561.781 274.315 562.098C274.491 562.402 274.731 562.607 275.036 562.713C275.341 562.818 275.698 562.871 276.108 562.871C276.401 562.871 276.683 562.854 276.952 562.818C277.222 562.783 277.438 562.748 277.603 562.713L277.62 565.947C277.269 566.053 276.858 566.146 276.39 566.229C275.933 566.311 275.405 566.352 274.808 566.352C273.835 566.352 272.974 566.182 272.224 565.842C271.474 565.49 270.888 564.922 270.466 564.137C270.044 563.352 269.833 562.309 269.833 561.008V542.322ZM291.814 562.186V553.115C291.814 552.436 291.691 551.85 291.445 551.357C291.199 550.865 290.824 550.484 290.32 550.215C289.828 549.945 289.207 549.811 288.457 549.811C287.765 549.811 287.168 549.928 286.664 550.162C286.16 550.396 285.767 550.713 285.486 551.111C285.205 551.51 285.064 551.961 285.064 552.465H280.845C280.845 551.715 281.027 550.988 281.39 550.285C281.754 549.582 282.281 548.955 282.972 548.404C283.664 547.854 284.49 547.42 285.451 547.104C286.412 546.787 287.49 546.629 288.685 546.629C290.115 546.629 291.38 546.869 292.482 547.35C293.595 547.83 294.468 548.557 295.101 549.529C295.746 550.49 296.068 551.697 296.068 553.15V561.605C296.068 562.473 296.127 563.252 296.244 563.943C296.373 564.623 296.554 565.215 296.789 565.719V566H292.447C292.248 565.543 292.089 564.963 291.972 564.26C291.867 563.545 291.814 562.854 291.814 562.186ZM292.429 554.434L292.464 557.053H289.423C288.638 557.053 287.947 557.129 287.349 557.281C286.752 557.422 286.254 557.633 285.855 557.914C285.457 558.195 285.158 558.535 284.959 558.934C284.759 559.332 284.66 559.783 284.66 560.287C284.66 560.791 284.777 561.254 285.011 561.676C285.246 562.086 285.586 562.408 286.031 562.643C286.488 562.877 287.039 562.994 287.683 562.994C288.55 562.994 289.306 562.818 289.951 562.467C290.607 562.104 291.123 561.664 291.498 561.148C291.873 560.621 292.072 560.123 292.095 559.654L293.466 561.535C293.326 562.016 293.086 562.531 292.746 563.082C292.406 563.633 291.961 564.16 291.41 564.664C290.871 565.156 290.22 565.561 289.459 565.877C288.709 566.193 287.841 566.352 286.857 566.352C285.615 566.352 284.507 566.105 283.535 565.613C282.562 565.109 281.8 564.436 281.25 563.592C280.699 562.736 280.423 561.77 280.423 560.691C280.423 559.684 280.611 558.793 280.986 558.02C281.373 557.234 281.935 556.578 282.673 556.051C283.423 555.523 284.337 555.125 285.416 554.855C286.494 554.574 287.724 554.434 289.107 554.434H292.429ZM305.393 539V566H301.139V539H305.393ZM314.665 539V566H310.411V539H314.665ZM326.477 546.98L318.198 556.156L313.663 560.797L312.556 557.211L315.983 552.975L321.362 546.98H326.477ZM322.276 566L316.106 557.07L318.778 554.1L327.181 566H322.276ZM201.574 602.977C202.266 602.977 202.887 602.842 203.438 602.572C204 602.291 204.451 601.904 204.791 601.412C205.143 600.92 205.336 600.352 205.371 599.707H209.361C209.338 600.938 208.975 602.057 208.272 603.064C207.568 604.072 206.637 604.875 205.477 605.473C204.316 606.059 203.033 606.352 201.627 606.352C200.174 606.352 198.908 606.105 197.83 605.613C196.752 605.109 195.856 604.418 195.141 603.539C194.426 602.66 193.887 601.646 193.524 600.498C193.172 599.35 192.996 598.119 192.996 596.807V596.191C192.996 594.879 193.172 593.648 193.524 592.5C193.887 591.34 194.426 590.32 195.141 589.441C195.856 588.562 196.752 587.877 197.83 587.385C198.908 586.881 200.168 586.629 201.609 586.629C203.133 586.629 204.469 586.934 205.617 587.543C206.766 588.141 207.668 588.979 208.324 590.057C208.992 591.123 209.338 592.365 209.361 593.783H205.371C205.336 593.08 205.16 592.447 204.844 591.885C204.539 591.311 204.106 590.854 203.543 590.514C202.992 590.174 202.33 590.004 201.557 590.004C200.701 590.004 199.992 590.18 199.43 590.531C198.867 590.871 198.428 591.34 198.111 591.938C197.795 592.523 197.566 593.186 197.426 593.924C197.297 594.65 197.232 595.406 197.232 596.191V596.807C197.232 597.592 197.297 598.354 197.426 599.092C197.555 599.83 197.777 600.492 198.094 601.078C198.422 601.652 198.867 602.115 199.43 602.467C199.992 602.807 200.707 602.977 201.574 602.977ZM212.165 596.701V596.297C212.165 594.926 212.364 593.654 212.762 592.482C213.161 591.299 213.735 590.273 214.485 589.406C215.247 588.527 216.173 587.848 217.262 587.367C218.364 586.875 219.606 586.629 220.989 586.629C222.384 586.629 223.626 586.875 224.716 587.367C225.817 587.848 226.749 588.527 227.51 589.406C228.272 590.273 228.852 591.299 229.251 592.482C229.649 593.654 229.848 594.926 229.848 596.297V596.701C229.848 598.072 229.649 599.344 229.251 600.516C228.852 601.688 228.272 602.713 227.51 603.592C226.749 604.459 225.823 605.139 224.733 605.631C223.643 606.111 222.407 606.352 221.024 606.352C219.63 606.352 218.382 606.111 217.28 605.631C216.19 605.139 215.264 604.459 214.503 603.592C213.741 602.713 213.161 601.688 212.762 600.516C212.364 599.344 212.165 598.072 212.165 596.701ZM216.401 596.297V596.701C216.401 597.557 216.489 598.365 216.665 599.127C216.841 599.889 217.116 600.557 217.491 601.131C217.866 601.705 218.346 602.156 218.932 602.484C219.518 602.812 220.216 602.977 221.024 602.977C221.809 602.977 222.489 602.812 223.063 602.484C223.649 602.156 224.13 601.705 224.505 601.131C224.88 600.557 225.155 599.889 225.331 599.127C225.518 598.365 225.612 597.557 225.612 596.701V596.297C225.612 595.453 225.518 594.656 225.331 593.906C225.155 593.145 224.874 592.471 224.487 591.885C224.112 591.299 223.632 590.842 223.046 590.514C222.471 590.174 221.786 590.004 220.989 590.004C220.192 590.004 219.501 590.174 218.915 590.514C218.341 590.842 217.866 591.299 217.491 591.885C217.116 592.471 216.841 593.145 216.665 593.906C216.489 594.656 216.401 595.453 216.401 596.297ZM237.96 591.041V606H233.724V586.98H237.714L237.96 591.041ZM237.204 595.787L235.833 595.77C235.845 594.422 236.033 593.186 236.396 592.061C236.771 590.936 237.286 589.969 237.943 589.16C238.611 588.352 239.408 587.73 240.333 587.297C241.259 586.852 242.29 586.629 243.427 586.629C244.341 586.629 245.167 586.758 245.906 587.016C246.656 587.262 247.294 587.666 247.822 588.229C248.361 588.791 248.771 589.523 249.052 590.426C249.333 591.316 249.474 592.412 249.474 593.713V606H245.22V593.695C245.22 592.781 245.085 592.061 244.816 591.533C244.558 590.994 244.177 590.613 243.673 590.391C243.181 590.156 242.566 590.039 241.827 590.039C241.101 590.039 240.451 590.191 239.876 590.496C239.302 590.801 238.816 591.217 238.417 591.744C238.031 592.271 237.732 592.881 237.521 593.572C237.31 594.264 237.204 595.002 237.204 595.787ZM262.877 586.98V590.074H252.154V586.98H262.877ZM255.248 582.322H259.484V600.744C259.484 601.33 259.566 601.781 259.73 602.098C259.906 602.402 260.146 602.607 260.451 602.713C260.756 602.818 261.113 602.871 261.523 602.871C261.816 602.871 262.098 602.854 262.367 602.818C262.637 602.783 262.854 602.748 263.018 602.713L263.035 605.947C262.684 606.053 262.273 606.146 261.805 606.229C261.348 606.311 260.82 606.352 260.223 606.352C259.25 606.352 258.389 606.182 257.639 605.842C256.889 605.49 256.303 604.922 255.881 604.137C255.459 603.352 255.248 602.309 255.248 601.008V582.322ZM274.891 606.352C273.485 606.352 272.214 606.123 271.077 605.666C269.952 605.197 268.991 604.547 268.194 603.715C267.409 602.883 266.805 601.904 266.383 600.779C265.962 599.654 265.751 598.441 265.751 597.141V596.438C265.751 594.949 265.967 593.602 266.401 592.395C266.835 591.188 267.438 590.156 268.212 589.301C268.985 588.434 269.899 587.771 270.954 587.314C272.008 586.857 273.151 586.629 274.381 586.629C275.741 586.629 276.93 586.857 277.95 587.314C278.969 587.771 279.813 588.416 280.481 589.248C281.161 590.068 281.665 591.047 281.993 592.184C282.333 593.32 282.503 594.574 282.503 595.945V597.756H267.807V594.715H278.319V594.381C278.296 593.619 278.143 592.904 277.862 592.236C277.592 591.568 277.176 591.029 276.614 590.619C276.051 590.209 275.301 590.004 274.364 590.004C273.661 590.004 273.034 590.156 272.483 590.461C271.944 590.754 271.493 591.182 271.13 591.744C270.766 592.307 270.485 592.986 270.286 593.783C270.098 594.568 270.005 595.453 270.005 596.438V597.141C270.005 597.973 270.116 598.746 270.339 599.461C270.573 600.164 270.913 600.779 271.358 601.307C271.803 601.834 272.342 602.25 272.975 602.555C273.608 602.848 274.329 602.994 275.137 602.994C276.157 602.994 277.065 602.789 277.862 602.379C278.659 601.969 279.35 601.389 279.936 600.639L282.169 602.801C281.758 603.398 281.225 603.973 280.569 604.523C279.913 605.062 279.11 605.502 278.161 605.842C277.223 606.182 276.133 606.352 274.891 606.352ZM290.368 591.041V606H286.132V586.98H290.122L290.368 591.041ZM289.613 595.787L288.241 595.77C288.253 594.422 288.441 593.186 288.804 592.061C289.179 590.936 289.695 589.969 290.351 589.16C291.019 588.352 291.816 587.73 292.741 587.297C293.667 586.852 294.699 586.629 295.835 586.629C296.749 586.629 297.575 586.758 298.314 587.016C299.064 587.262 299.702 587.666 300.23 588.229C300.769 588.791 301.179 589.523 301.46 590.426C301.741 591.316 301.882 592.412 301.882 593.713V606H297.628V593.695C297.628 592.781 297.493 592.061 297.224 591.533C296.966 590.994 296.585 590.613 296.081 590.391C295.589 590.156 294.974 590.039 294.236 590.039C293.509 590.039 292.859 590.191 292.284 590.496C291.71 590.801 291.224 591.217 290.825 591.744C290.439 592.271 290.14 592.881 289.929 593.572C289.718 594.264 289.613 595.002 289.613 595.787ZM315.285 586.98V590.074H304.562V586.98H315.285ZM307.656 582.322H311.893V600.744C311.893 601.33 311.975 601.781 312.139 602.098C312.314 602.402 312.555 602.607 312.859 602.713C313.164 602.818 313.521 602.871 313.932 602.871C314.225 602.871 314.506 602.854 314.775 602.818C315.045 602.783 315.262 602.748 315.426 602.713L315.443 605.947C315.092 606.053 314.682 606.146 314.213 606.229C313.756 606.311 313.228 606.352 312.631 606.352C311.658 606.352 310.797 606.182 310.047 605.842C309.297 605.49 308.711 604.922 308.289 604.137C307.867 603.352 307.656 602.309 307.656 601.008V582.322Z" fill="#020210"/>
<path d="M502 985H0V0H502V985ZM45 47V939H457V47H45Z" fill="#D9D9D9"/>
<rect x="45" y="159" width="412" height="780" fill="url(#paint2_linear_2004_502)"/>
<path d="M64 187H100M64 175H100M64 199H100" stroke="#E7F6B4" stroke-width="4" stroke-linecap="round" stroke-linejoin="round"/>
<path d="M70.5684 244.816L62.9219 267H58.2988L67.9316 241.406H70.8848L70.5684 244.816ZM76.9668 267L69.3027 244.816L68.9688 241.406H71.9395L81.6074 267H76.9668ZM76.5977 257.508V261.006H62.6758V257.508H76.5977ZM84.4284 240H88.6647V262.939L88.2604 267H84.4284V240ZM101.075 257.314V257.684C101.075 259.09 100.917 260.385 100.6 261.568C100.296 262.74 99.8268 263.76 99.194 264.627C98.5729 265.494 97.7995 266.168 96.8737 266.648C95.9596 267.117 94.8991 267.352 93.692 267.352C92.5084 267.352 91.4772 267.129 90.5983 266.684C89.7194 266.238 88.9811 265.605 88.3834 264.785C87.7975 263.965 87.3229 262.986 86.9596 261.85C86.5963 260.713 86.3385 259.459 86.1862 258.088V256.91C86.3385 255.527 86.5963 254.273 86.9596 253.148C87.3229 252.012 87.7975 251.033 88.3834 250.213C88.9811 249.381 89.7135 248.742 90.5807 248.297C91.4596 247.852 92.485 247.629 93.6569 247.629C94.8756 247.629 95.9479 247.863 96.8737 248.332C97.8112 248.801 98.5905 249.469 99.2116 250.336C99.8327 251.191 100.296 252.211 100.6 253.395C100.917 254.578 101.075 255.885 101.075 257.314ZM96.8385 257.684V257.314C96.8385 256.459 96.7682 255.656 96.6276 254.906C96.487 254.145 96.2526 253.477 95.9245 252.902C95.608 252.328 95.1745 251.877 94.6237 251.549C94.0846 251.209 93.4108 251.039 92.6022 251.039C91.8522 251.039 91.2077 251.168 90.6686 251.426C90.1295 251.684 89.6784 252.035 89.3151 252.48C88.9518 252.926 88.6647 253.441 88.4538 254.027C88.2545 254.613 88.1198 255.246 88.0495 255.926V259.107C88.1549 259.986 88.3776 260.795 88.7174 261.533C89.069 262.26 89.5612 262.846 90.194 263.291C90.8268 263.725 91.6413 263.941 92.6373 263.941C93.4225 263.941 94.0846 263.783 94.6237 263.467C95.1627 263.15 95.5905 262.711 95.9069 262.148C96.235 261.574 96.4694 260.906 96.61 260.145C96.7623 259.383 96.8385 258.562 96.8385 257.684ZM104.212 257.701V257.297C104.212 255.926 104.411 254.654 104.81 253.482C105.208 252.299 105.783 251.273 106.533 250.406C107.294 249.527 108.22 248.848 109.31 248.367C110.411 247.875 111.654 247.629 113.036 247.629C114.431 247.629 115.673 247.875 116.763 248.367C117.865 248.848 118.796 249.527 119.558 250.406C120.32 251.273 120.9 252.299 121.298 253.482C121.697 254.654 121.896 255.926 121.896 257.297V257.701C121.896 259.072 121.697 260.344 121.298 261.516C120.9 262.688 120.32 263.713 119.558 264.592C118.796 265.459 117.87 266.139 116.781 266.631C115.691 267.111 114.454 267.352 113.072 267.352C111.677 267.352 110.429 267.111 109.327 266.631C108.238 266.139 107.312 265.459 106.55 264.592C105.788 263.713 105.208 262.688 104.81 261.516C104.411 260.344 104.212 259.072 104.212 257.701ZM108.449 257.297V257.701C108.449 258.557 108.536 259.365 108.712 260.127C108.888 260.889 109.163 261.557 109.538 262.131C109.913 262.705 110.394 263.156 110.98 263.484C111.566 263.812 112.263 263.977 113.072 263.977C113.857 263.977 114.536 263.812 115.111 263.484C115.697 263.156 116.177 262.705 116.552 262.131C116.927 261.557 117.202 260.889 117.378 260.127C117.566 259.365 117.659 258.557 117.659 257.701V257.297C117.659 256.453 117.566 255.656 117.378 254.906C117.202 254.145 116.921 253.471 116.534 252.885C116.159 252.299 115.679 251.842 115.093 251.514C114.519 251.174 113.833 251.004 113.036 251.004C112.24 251.004 111.548 251.174 110.962 251.514C110.388 251.842 109.913 252.299 109.538 252.885C109.163 253.471 108.888 254.145 108.712 254.906C108.536 255.656 108.449 256.453 108.449 257.297ZM137.25 262.518V247.98H141.504V267H137.496L137.25 262.518ZM137.848 258.562L139.271 258.527C139.271 259.805 139.131 260.982 138.85 262.061C138.568 263.127 138.135 264.059 137.549 264.855C136.963 265.641 136.213 266.256 135.299 266.701C134.385 267.135 133.289 267.352 132.012 267.352C131.086 267.352 130.236 267.217 129.463 266.947C128.689 266.678 128.021 266.262 127.459 265.699C126.908 265.137 126.48 264.404 126.176 263.502C125.871 262.6 125.719 261.521 125.719 260.268V247.98H129.955V260.303C129.955 260.994 130.037 261.574 130.201 262.043C130.365 262.5 130.588 262.869 130.869 263.15C131.15 263.432 131.478 263.631 131.853 263.748C132.228 263.865 132.627 263.924 133.049 263.924C134.256 263.924 135.205 263.689 135.896 263.221C136.6 262.74 137.098 262.096 137.391 261.287C137.695 260.479 137.848 259.57 137.848 258.562ZM154.924 247.98V251.074H144.202V247.98H154.924ZM147.295 243.322H151.532V261.744C151.532 262.33 151.614 262.781 151.778 263.098C151.954 263.402 152.194 263.607 152.499 263.713C152.803 263.818 153.161 263.871 153.571 263.871C153.864 263.871 154.145 263.854 154.415 263.818C154.684 263.783 154.901 263.748 155.065 263.713L155.083 266.947C154.731 267.053 154.321 267.146 153.852 267.229C153.395 267.311 152.868 267.352 152.27 267.352C151.297 267.352 150.436 267.182 149.686 266.842C148.936 266.49 148.35 265.922 147.928 265.137C147.506 264.352 147.295 263.309 147.295 262.008V243.322ZM172.115 251.848V267H167.879V247.98H171.869L172.115 251.848ZM171.43 256.787L169.988 256.77C169.988 255.457 170.152 254.244 170.48 253.131C170.808 252.018 171.289 251.051 171.922 250.23C172.555 249.398 173.34 248.76 174.277 248.314C175.226 247.857 176.322 247.629 177.564 247.629C178.431 247.629 179.223 247.758 179.937 248.016C180.664 248.262 181.291 248.654 181.818 249.193C182.357 249.732 182.767 250.424 183.049 251.268C183.342 252.111 183.488 253.131 183.488 254.326V267H179.252V254.695C179.252 253.77 179.111 253.043 178.83 252.516C178.56 251.988 178.168 251.613 177.652 251.391C177.148 251.156 176.545 251.039 175.842 251.039C175.045 251.039 174.365 251.191 173.803 251.496C173.252 251.801 172.801 252.217 172.449 252.744C172.098 253.271 171.84 253.881 171.676 254.572C171.512 255.264 171.43 256.002 171.43 256.787ZM183.224 255.662L181.238 256.102C181.238 254.953 181.396 253.869 181.713 252.85C182.041 251.818 182.515 250.916 183.137 250.143C183.769 249.357 184.549 248.742 185.474 248.297C186.4 247.852 187.461 247.629 188.656 247.629C189.629 247.629 190.496 247.764 191.258 248.033C192.031 248.291 192.687 248.701 193.226 249.264C193.765 249.826 194.176 250.559 194.457 251.461C194.738 252.352 194.879 253.43 194.879 254.695V267H190.625V254.678C190.625 253.717 190.484 252.973 190.203 252.445C189.933 251.918 189.547 251.555 189.043 251.355C188.539 251.145 187.935 251.039 187.232 251.039C186.576 251.039 185.996 251.162 185.492 251.408C185 251.643 184.584 251.977 184.244 252.41C183.904 252.832 183.646 253.318 183.471 253.869C183.306 254.42 183.224 255.018 183.224 255.662ZM207.983 267.352C206.577 267.352 205.305 267.123 204.168 266.666C203.043 266.197 202.083 265.547 201.286 264.715C200.5 263.883 199.897 262.904 199.475 261.779C199.053 260.654 198.842 259.441 198.842 258.141V257.438C198.842 255.949 199.059 254.602 199.493 253.395C199.926 252.188 200.53 251.156 201.303 250.301C202.077 249.434 202.991 248.771 204.045 248.314C205.1 247.857 206.243 247.629 207.473 247.629C208.833 247.629 210.022 247.857 211.041 248.314C212.061 248.771 212.905 249.416 213.573 250.248C214.252 251.068 214.756 252.047 215.084 253.184C215.424 254.32 215.594 255.574 215.594 256.945V258.756H200.899V255.715H211.411V255.381C211.387 254.619 211.235 253.904 210.954 253.236C210.684 252.568 210.268 252.029 209.706 251.619C209.143 251.209 208.393 251.004 207.456 251.004C206.752 251.004 206.125 251.156 205.575 251.461C205.036 251.754 204.584 252.182 204.221 252.744C203.858 253.307 203.577 253.986 203.377 254.783C203.19 255.568 203.096 256.453 203.096 257.438V258.141C203.096 258.973 203.208 259.746 203.43 260.461C203.665 261.164 204.004 261.779 204.45 262.307C204.895 262.834 205.434 263.25 206.067 263.555C206.7 263.848 207.42 263.994 208.229 263.994C209.249 263.994 210.157 263.789 210.954 263.379C211.75 262.969 212.442 262.389 213.028 261.639L215.26 263.801C214.85 264.398 214.317 264.973 213.661 265.523C213.004 266.062 212.202 266.502 211.252 266.842C210.315 267.182 209.225 267.352 207.983 267.352Z" fill="#FAFAFF"/>
<path d="M67.3223 350.455H60.6602V346.957H67.3223C68.4824 346.957 69.4199 346.77 70.1348 346.395C70.8496 346.02 71.3711 345.504 71.6992 344.848C72.0391 344.18 72.209 343.418 72.209 342.562C72.209 341.754 72.0391 340.998 71.6992 340.295C71.3711 339.58 70.8496 339.006 70.1348 338.572C69.4199 338.139 68.4824 337.922 67.3223 337.922H62.0137V360H57.6016V334.406H67.3223C69.3027 334.406 70.9844 334.758 72.3672 335.461C73.7617 336.152 74.8223 337.113 75.5488 338.344C76.2754 339.562 76.6387 340.957 76.6387 342.527C76.6387 344.18 76.2754 345.598 75.5488 346.781C74.8223 347.965 73.7617 348.873 72.3672 349.506C70.9844 350.139 69.3027 350.455 67.3223 350.455ZM84.7858 344.602V360H80.5495V340.98H84.5924L84.7858 344.602ZM90.6041 340.857L90.569 344.795C90.3112 344.748 90.0299 344.713 89.7252 344.689C89.4323 344.666 89.1393 344.654 88.8463 344.654C88.1198 344.654 87.4811 344.76 86.9303 344.971C86.3795 345.17 85.9166 345.463 85.5416 345.85C85.1784 346.225 84.8971 346.682 84.6979 347.221C84.4987 347.76 84.3815 348.363 84.3463 349.031L83.3795 349.102C83.3795 347.906 83.4967 346.799 83.7311 345.779C83.9655 344.76 84.317 343.863 84.7858 343.09C85.2663 342.316 85.8639 341.713 86.5788 341.279C87.3053 340.846 88.1432 340.629 89.0924 340.629C89.3502 340.629 89.6256 340.652 89.9186 340.699C90.2233 340.746 90.4518 340.799 90.6041 340.857ZM92.3528 350.701V350.297C92.3528 348.926 92.552 347.654 92.9505 346.482C93.3489 345.299 93.9231 344.273 94.6731 343.406C95.4348 342.527 96.3606 341.848 97.4505 341.367C98.552 340.875 99.7942 340.629 101.177 340.629C102.572 340.629 103.814 340.875 104.904 341.367C106.005 341.848 106.937 342.527 107.699 343.406C108.46 344.273 109.04 345.299 109.439 346.482C109.837 347.654 110.036 348.926 110.036 350.297V350.701C110.036 352.072 109.837 353.344 109.439 354.516C109.04 355.688 108.46 356.713 107.699 357.592C106.937 358.459 106.011 359.139 104.921 359.631C103.831 360.111 102.595 360.352 101.212 360.352C99.8177 360.352 98.5696 360.111 97.468 359.631C96.3782 359.139 95.4524 358.459 94.6907 357.592C93.929 356.713 93.3489 355.688 92.9505 354.516C92.552 353.344 92.3528 352.072 92.3528 350.701ZM96.5891 350.297V350.701C96.5891 351.557 96.677 352.365 96.8528 353.127C97.0286 353.889 97.304 354.557 97.679 355.131C98.054 355.705 98.5345 356.156 99.1204 356.484C99.7063 356.812 100.404 356.977 101.212 356.977C101.997 356.977 102.677 356.812 103.251 356.484C103.837 356.156 104.318 355.705 104.693 355.131C105.068 354.557 105.343 353.889 105.519 353.127C105.706 352.365 105.8 351.557 105.8 350.701V350.297C105.8 349.453 105.706 348.656 105.519 347.906C105.343 347.145 105.062 346.471 104.675 345.885C104.3 345.299 103.82 344.842 103.234 344.514C102.659 344.174 101.974 344.004 101.177 344.004C100.38 344.004 99.6888 344.174 99.1028 344.514C98.5286 344.842 98.054 345.299 97.679 345.885C97.304 346.471 97.0286 347.145 96.8528 347.906C96.677 348.656 96.5891 349.453 96.5891 350.297ZM114.158 340.98H118.412V361.652C118.412 362.953 118.189 364.049 117.744 364.939C117.299 365.842 116.643 366.521 115.775 366.979C114.908 367.447 113.848 367.682 112.594 367.682C112.219 367.682 111.832 367.652 111.434 367.594C111.023 367.547 110.637 367.477 110.273 367.383L110.291 364.078C110.537 364.125 110.801 364.16 111.082 364.184C111.351 364.219 111.609 364.236 111.855 364.236C112.359 364.236 112.781 364.148 113.121 363.973C113.461 363.797 113.719 363.521 113.894 363.146C114.07 362.771 114.158 362.273 114.158 361.652V340.98ZM113.789 335.988C113.789 335.344 114.006 334.811 114.439 334.389C114.873 333.955 115.465 333.738 116.215 333.738C116.976 333.738 117.568 333.955 117.99 334.389C118.424 334.811 118.641 335.344 118.641 335.988C118.641 336.621 118.424 337.148 117.99 337.57C117.568 337.992 116.976 338.203 116.215 338.203C115.465 338.203 114.873 337.992 114.439 337.57C114.006 337.148 113.789 336.621 113.789 335.988ZM131.727 360.352C130.321 360.352 129.049 360.123 127.913 359.666C126.788 359.197 125.827 358.547 125.03 357.715C124.245 356.883 123.641 355.904 123.219 354.779C122.797 353.654 122.586 352.441 122.586 351.141V350.438C122.586 348.949 122.803 347.602 123.237 346.395C123.67 345.188 124.274 344.156 125.047 343.301C125.821 342.434 126.735 341.771 127.79 341.314C128.844 340.857 129.987 340.629 131.217 340.629C132.577 340.629 133.766 340.857 134.786 341.314C135.805 341.771 136.649 342.416 137.317 343.248C137.997 344.068 138.501 345.047 138.829 346.184C139.169 347.32 139.338 348.574 139.338 349.945V351.756H124.643V348.715H135.155V348.381C135.131 347.619 134.979 346.904 134.698 346.236C134.428 345.568 134.012 345.029 133.45 344.619C132.887 344.209 132.137 344.004 131.2 344.004C130.497 344.004 129.87 344.156 129.319 344.461C128.78 344.754 128.329 345.182 127.965 345.744C127.602 346.307 127.321 346.986 127.122 347.783C126.934 348.568 126.84 349.453 126.84 350.438V351.141C126.84 351.973 126.952 352.746 127.174 353.461C127.409 354.164 127.749 354.779 128.194 355.307C128.639 355.834 129.178 356.25 129.811 356.555C130.444 356.848 131.165 356.994 131.973 356.994C132.993 356.994 133.901 356.789 134.698 356.379C135.495 355.969 136.186 355.389 136.772 354.639L139.004 356.801C138.594 357.398 138.061 357.973 137.405 358.523C136.749 359.062 135.946 359.502 134.997 359.842C134.059 360.182 132.969 360.352 131.727 360.352ZM150.773 356.977C151.464 356.977 152.085 356.842 152.636 356.572C153.198 356.291 153.65 355.904 153.989 355.412C154.341 354.92 154.534 354.352 154.57 353.707H158.56C158.536 354.938 158.173 356.057 157.47 357.064C156.767 358.072 155.835 358.875 154.675 359.473C153.515 360.059 152.232 360.352 150.825 360.352C149.372 360.352 148.107 360.105 147.029 359.613C145.95 359.109 145.054 358.418 144.339 357.539C143.624 356.66 143.085 355.646 142.722 354.498C142.37 353.35 142.195 352.119 142.195 350.807V350.191C142.195 348.879 142.37 347.648 142.722 346.5C143.085 345.34 143.624 344.32 144.339 343.441C145.054 342.562 145.95 341.877 147.029 341.385C148.107 340.881 149.366 340.629 150.808 340.629C152.331 340.629 153.667 340.934 154.816 341.543C155.964 342.141 156.866 342.979 157.523 344.057C158.191 345.123 158.536 346.365 158.56 347.783H154.57C154.534 347.08 154.359 346.447 154.042 345.885C153.738 345.311 153.304 344.854 152.741 344.514C152.191 344.174 151.529 344.004 150.755 344.004C149.9 344.004 149.191 344.18 148.628 344.531C148.066 344.871 147.626 345.34 147.31 345.938C146.993 346.523 146.765 347.186 146.624 347.924C146.495 348.65 146.431 349.406 146.431 350.191V350.807C146.431 351.592 146.495 352.354 146.624 353.092C146.753 353.83 146.976 354.492 147.292 355.078C147.62 355.652 148.066 356.115 148.628 356.467C149.191 356.807 149.905 356.977 150.773 356.977ZM170.89 340.98V344.074H160.168V340.98H170.89ZM163.262 336.322H167.498V354.744C167.498 355.33 167.58 355.781 167.744 356.098C167.92 356.402 168.16 356.607 168.465 356.713C168.769 356.818 169.127 356.871 169.537 356.871C169.83 356.871 170.111 356.854 170.381 356.818C170.65 356.783 170.867 356.748 171.031 356.713L171.049 359.947C170.697 360.053 170.287 360.146 169.818 360.229C169.361 360.311 168.834 360.352 168.236 360.352C167.264 360.352 166.402 360.182 165.652 359.842C164.902 359.49 164.316 358.922 163.894 358.137C163.473 357.352 163.262 356.309 163.262 355.008V336.322ZM185.19 354.85C185.19 354.428 185.084 354.047 184.874 353.707C184.663 353.355 184.258 353.039 183.661 352.758C183.075 352.477 182.207 352.219 181.059 351.984C180.051 351.762 179.125 351.498 178.282 351.193C177.45 350.877 176.735 350.496 176.137 350.051C175.54 349.605 175.077 349.078 174.749 348.469C174.42 347.859 174.256 347.156 174.256 346.359C174.256 345.586 174.426 344.854 174.766 344.162C175.106 343.471 175.592 342.861 176.225 342.334C176.858 341.807 177.625 341.391 178.528 341.086C179.442 340.781 180.461 340.629 181.586 340.629C183.18 340.629 184.545 340.898 185.682 341.438C186.831 341.965 187.709 342.686 188.319 343.6C188.928 344.502 189.233 345.521 189.233 346.658H184.997C184.997 346.154 184.868 345.686 184.61 345.252C184.364 344.807 183.989 344.449 183.485 344.18C182.981 343.898 182.348 343.758 181.586 343.758C180.86 343.758 180.256 343.875 179.776 344.109C179.307 344.332 178.956 344.625 178.721 344.988C178.499 345.352 178.387 345.75 178.387 346.184C178.387 346.5 178.446 346.787 178.563 347.045C178.692 347.291 178.903 347.52 179.196 347.73C179.489 347.93 179.887 348.117 180.391 348.293C180.907 348.469 181.551 348.639 182.325 348.803C183.778 349.107 185.026 349.5 186.069 349.98C187.124 350.449 187.932 351.059 188.495 351.809C189.057 352.547 189.338 353.484 189.338 354.621C189.338 355.465 189.157 356.238 188.793 356.941C188.442 357.633 187.926 358.236 187.247 358.752C186.567 359.256 185.752 359.648 184.803 359.93C183.866 360.211 182.811 360.352 181.639 360.352C179.916 360.352 178.457 360.047 177.262 359.438C176.067 358.816 175.159 358.025 174.538 357.064C173.928 356.092 173.624 355.084 173.624 354.041H177.719C177.766 354.826 177.983 355.453 178.37 355.922C178.768 356.379 179.26 356.713 179.846 356.924C180.444 357.123 181.059 357.223 181.692 357.223C182.454 357.223 183.092 357.123 183.608 356.924C184.124 356.713 184.516 356.432 184.786 356.08C185.055 355.717 185.19 355.307 185.19 354.85Z" fill="#FAFAFF"/>
<path d="M126.322 464.455H119.66V460.957H126.322C127.482 460.957 128.42 460.77 129.135 460.395C129.85 460.02 130.371 459.504 130.699 458.848C131.039 458.18 131.209 457.418 131.209 456.562C131.209 455.754 131.039 454.998 130.699 454.295C130.371 453.58 129.85 453.006 129.135 452.572C128.42 452.139 127.482 451.922 126.322 451.922H121.014V474H116.602V448.406H126.322C128.303 448.406 129.984 448.758 131.367 449.461C132.762 450.152 133.822 451.113 134.549 452.344C135.275 453.562 135.639 454.957 135.639 456.527C135.639 458.18 135.275 459.598 134.549 460.781C133.822 461.965 132.762 462.873 131.367 463.506C129.984 464.139 128.303 464.455 126.322 464.455ZM150.044 470.186V461.115C150.044 460.436 149.921 459.85 149.674 459.357C149.428 458.865 149.053 458.484 148.549 458.215C148.057 457.945 147.436 457.811 146.686 457.811C145.995 457.811 145.397 457.928 144.893 458.162C144.389 458.396 143.997 458.713 143.715 459.111C143.434 459.51 143.294 459.961 143.294 460.465H139.075C139.075 459.715 139.256 458.988 139.62 458.285C139.983 457.582 140.51 456.955 141.202 456.404C141.893 455.854 142.719 455.42 143.68 455.104C144.641 454.787 145.719 454.629 146.915 454.629C148.344 454.629 149.61 454.869 150.712 455.35C151.825 455.83 152.698 456.557 153.331 457.529C153.975 458.49 154.298 459.697 154.298 461.15V469.605C154.298 470.473 154.356 471.252 154.473 471.943C154.602 472.623 154.784 473.215 155.018 473.719V474H150.676C150.477 473.543 150.319 472.963 150.202 472.26C150.096 471.545 150.044 470.854 150.044 470.186ZM150.659 462.434L150.694 465.053H147.653C146.868 465.053 146.176 465.129 145.579 465.281C144.981 465.422 144.483 465.633 144.085 465.914C143.686 466.195 143.387 466.535 143.188 466.934C142.989 467.332 142.889 467.783 142.889 468.287C142.889 468.791 143.006 469.254 143.241 469.676C143.475 470.086 143.815 470.408 144.26 470.643C144.717 470.877 145.268 470.994 145.913 470.994C146.78 470.994 147.536 470.818 148.18 470.467C148.837 470.104 149.352 469.664 149.727 469.148C150.102 468.621 150.301 468.123 150.325 467.654L151.696 469.535C151.555 470.016 151.315 470.531 150.975 471.082C150.635 471.633 150.19 472.16 149.639 472.664C149.1 473.156 148.45 473.561 147.688 473.877C146.938 474.193 146.071 474.352 145.087 474.352C143.844 474.352 142.737 474.105 141.764 473.613C140.792 473.109 140.03 472.436 139.479 471.592C138.928 470.736 138.653 469.77 138.653 468.691C138.653 467.684 138.84 466.793 139.215 466.02C139.602 465.234 140.165 464.578 140.903 464.051C141.653 463.523 142.567 463.125 143.645 462.855C144.723 462.574 145.954 462.434 147.337 462.434H150.659ZM171.269 454.98H175.118V473.473C175.118 475.184 174.755 476.637 174.029 477.832C173.302 479.027 172.288 479.936 170.988 480.557C169.687 481.189 168.181 481.506 166.47 481.506C165.743 481.506 164.935 481.4 164.044 481.189C163.165 480.979 162.31 480.639 161.478 480.17C160.658 479.713 159.972 479.109 159.421 478.359L161.408 475.863C162.087 476.672 162.837 477.264 163.658 477.639C164.478 478.014 165.339 478.201 166.241 478.201C167.214 478.201 168.04 478.02 168.72 477.656C169.411 477.305 169.945 476.783 170.32 476.092C170.695 475.4 170.882 474.557 170.882 473.561V459.287L171.269 454.98ZM158.349 464.701V464.332C158.349 462.891 158.525 461.578 158.876 460.395C159.228 459.199 159.732 458.174 160.388 457.318C161.044 456.451 161.841 455.789 162.779 455.332C163.716 454.863 164.777 454.629 165.96 454.629C167.191 454.629 168.24 454.852 169.107 455.297C169.986 455.742 170.718 456.381 171.304 457.213C171.89 458.033 172.347 459.018 172.675 460.166C173.015 461.303 173.267 462.568 173.431 463.963V465.141C173.279 466.5 173.021 467.742 172.658 468.867C172.294 469.992 171.814 470.965 171.216 471.785C170.618 472.605 169.88 473.238 169.001 473.684C168.134 474.129 167.109 474.352 165.925 474.352C164.765 474.352 163.716 474.111 162.779 473.631C161.853 473.15 161.056 472.477 160.388 471.609C159.732 470.742 159.228 469.723 158.876 468.551C158.525 467.367 158.349 466.084 158.349 464.701ZM162.585 464.332V464.701C162.585 465.568 162.667 466.377 162.831 467.127C163.007 467.877 163.271 468.539 163.622 469.113C163.986 469.676 164.443 470.121 164.993 470.449C165.556 470.766 166.218 470.924 166.98 470.924C167.976 470.924 168.79 470.713 169.423 470.291C170.068 469.869 170.56 469.301 170.9 468.586C171.251 467.859 171.497 467.051 171.638 466.16V462.979C171.568 462.287 171.421 461.643 171.199 461.045C170.988 460.447 170.7 459.926 170.337 459.48C169.974 459.023 169.517 458.672 168.966 458.426C168.415 458.168 167.765 458.039 167.015 458.039C166.253 458.039 165.591 458.203 165.029 458.531C164.466 458.859 164.003 459.311 163.64 459.885C163.288 460.459 163.025 461.127 162.849 461.889C162.673 462.65 162.585 463.465 162.585 464.332ZM188.258 474.352C186.851 474.352 185.58 474.123 184.443 473.666C183.318 473.197 182.357 472.547 181.56 471.715C180.775 470.883 180.172 469.904 179.75 468.779C179.328 467.654 179.117 466.441 179.117 465.141V464.438C179.117 462.949 179.334 461.602 179.768 460.395C180.201 459.188 180.805 458.156 181.578 457.301C182.351 456.434 183.266 455.771 184.32 455.314C185.375 454.857 186.518 454.629 187.748 454.629C189.107 454.629 190.297 454.857 191.316 455.314C192.336 455.771 193.18 456.416 193.848 457.248C194.527 458.068 195.031 459.047 195.359 460.184C195.699 461.32 195.869 462.574 195.869 463.945V465.756H181.174V462.715H191.685V462.381C191.662 461.619 191.51 460.904 191.228 460.236C190.959 459.568 190.543 459.029 189.98 458.619C189.418 458.209 188.668 458.004 187.73 458.004C187.027 458.004 186.4 458.156 185.85 458.461C185.31 458.754 184.859 459.182 184.496 459.744C184.133 460.307 183.851 460.986 183.652 461.783C183.465 462.568 183.371 463.453 183.371 464.438V465.141C183.371 465.973 183.482 466.746 183.705 467.461C183.939 468.164 184.279 468.779 184.725 469.307C185.17 469.834 185.709 470.25 186.342 470.555C186.975 470.848 187.695 470.994 188.504 470.994C189.523 470.994 190.432 470.789 191.228 470.379C192.025 469.969 192.717 469.389 193.303 468.639L195.535 470.801C195.125 471.398 194.592 471.973 193.935 472.523C193.279 473.062 192.476 473.502 191.527 473.842C190.59 474.182 189.5 474.352 188.258 474.352ZM213.06 459.041V474H208.823V454.98H212.814L213.06 459.041ZM212.304 463.787L210.933 463.77C210.945 462.422 211.132 461.186 211.495 460.061C211.87 458.936 212.386 457.969 213.042 457.16C213.71 456.352 214.507 455.73 215.433 455.297C216.359 454.852 217.39 454.629 218.527 454.629C219.441 454.629 220.267 454.758 221.005 455.016C221.755 455.262 222.394 455.666 222.921 456.229C223.46 456.791 223.87 457.523 224.152 458.426C224.433 459.316 224.573 460.412 224.573 461.713V474H220.32V461.695C220.32 460.781 220.185 460.061 219.915 459.533C219.657 458.994 219.277 458.613 218.773 458.391C218.28 458.156 217.665 458.039 216.927 458.039C216.2 458.039 215.55 458.191 214.976 458.496C214.402 458.801 213.915 459.217 213.517 459.744C213.13 460.271 212.831 460.881 212.62 461.572C212.409 462.264 212.304 463.002 212.304 463.787ZM239.98 470.186V461.115C239.98 460.436 239.857 459.85 239.611 459.357C239.365 458.865 238.99 458.484 238.486 458.215C237.994 457.945 237.373 457.811 236.623 457.811C235.931 457.811 235.334 457.928 234.83 458.162C234.326 458.396 233.933 458.713 233.652 459.111C233.371 459.51 233.23 459.961 233.23 460.465H229.012C229.012 459.715 229.193 458.988 229.556 458.285C229.92 457.582 230.447 456.955 231.139 456.404C231.83 455.854 232.656 455.42 233.617 455.104C234.578 454.787 235.656 454.629 236.851 454.629C238.281 454.629 239.547 454.869 240.648 455.35C241.762 455.83 242.635 456.557 243.267 457.529C243.912 458.49 244.234 459.697 244.234 461.15V469.605C244.234 470.473 244.293 471.252 244.41 471.943C244.539 472.623 244.721 473.215 244.955 473.719V474H240.613C240.414 473.543 240.256 472.963 240.139 472.26C240.033 471.545 239.98 470.854 239.98 470.186ZM240.596 462.434L240.631 465.053H237.59C236.805 465.053 236.113 465.129 235.515 465.281C234.918 465.422 234.42 465.633 234.021 465.914C233.623 466.195 233.324 466.535 233.125 466.934C232.926 467.332 232.826 467.783 232.826 468.287C232.826 468.791 232.943 469.254 233.178 469.676C233.412 470.086 233.752 470.408 234.197 470.643C234.654 470.877 235.205 470.994 235.849 470.994C236.717 470.994 237.473 470.818 238.117 470.467C238.773 470.104 239.289 469.664 239.664 469.148C240.039 468.621 240.238 468.123 240.262 467.654L241.633 469.535C241.492 470.016 241.252 470.531 240.912 471.082C240.572 471.633 240.127 472.16 239.576 472.664C239.037 473.156 238.387 473.561 237.625 473.877C236.875 474.193 236.008 474.352 235.023 474.352C233.781 474.352 232.674 474.105 231.701 473.613C230.728 473.109 229.967 472.436 229.416 471.592C228.865 470.736 228.59 469.77 228.59 468.691C228.59 467.684 228.777 466.793 229.152 466.02C229.539 465.234 230.101 464.578 230.84 464.051C231.59 463.523 232.504 463.125 233.582 462.855C234.66 462.574 235.89 462.434 237.273 462.434H240.596ZM253.26 458.848V474H249.024V454.98H253.014L253.26 458.848ZM252.575 463.787L251.133 463.77C251.133 462.457 251.297 461.244 251.625 460.131C251.954 459.018 252.434 458.051 253.067 457.23C253.7 456.398 254.485 455.76 255.422 455.314C256.372 454.857 257.467 454.629 258.709 454.629C259.577 454.629 260.368 454.758 261.083 455.016C261.809 455.262 262.436 455.654 262.963 456.193C263.502 456.732 263.913 457.424 264.194 458.268C264.487 459.111 264.633 460.131 264.633 461.326V474H260.397V461.695C260.397 460.77 260.256 460.043 259.975 459.516C259.706 458.988 259.313 458.613 258.797 458.391C258.293 458.156 257.69 458.039 256.987 458.039C256.19 458.039 255.51 458.191 254.948 458.496C254.397 458.801 253.946 459.217 253.594 459.744C253.243 460.271 252.985 460.881 252.821 461.572C252.657 462.264 252.575 463.002 252.575 463.787ZM264.37 462.662L262.383 463.102C262.383 461.953 262.541 460.869 262.858 459.85C263.186 458.818 263.661 457.916 264.282 457.143C264.915 456.357 265.694 455.742 266.62 455.297C267.545 454.852 268.606 454.629 269.801 454.629C270.774 454.629 271.641 454.764 272.403 455.033C273.176 455.291 273.833 455.701 274.372 456.264C274.911 456.826 275.321 457.559 275.602 458.461C275.883 459.352 276.024 460.43 276.024 461.695V474H271.77V461.678C271.77 460.717 271.629 459.973 271.348 459.445C271.079 458.918 270.692 458.555 270.188 458.355C269.684 458.145 269.081 458.039 268.377 458.039C267.721 458.039 267.141 458.162 266.637 458.408C266.145 458.643 265.729 458.977 265.389 459.41C265.049 459.832 264.791 460.318 264.616 460.869C264.452 461.42 264.37 462.018 264.37 462.662ZM289.128 474.352C287.722 474.352 286.45 474.123 285.314 473.666C284.189 473.197 283.228 472.547 282.431 471.715C281.646 470.883 281.042 469.904 280.62 468.779C280.198 467.654 279.987 466.441 279.987 465.141V464.438C279.987 462.949 280.204 461.602 280.638 460.395C281.071 459.188 281.675 458.156 282.448 457.301C283.222 456.434 284.136 455.771 285.191 455.314C286.245 454.857 287.388 454.629 288.618 454.629C289.978 454.629 291.167 454.857 292.187 455.314C293.206 455.771 294.05 456.416 294.718 457.248C295.398 458.068 295.901 459.047 296.23 460.184C296.569 461.32 296.739 462.574 296.739 463.945V465.756H282.044V462.715H292.556V462.381C292.532 461.619 292.38 460.904 292.099 460.236C291.829 459.568 291.413 459.029 290.851 458.619C290.288 458.209 289.538 458.004 288.601 458.004C287.898 458.004 287.271 458.156 286.72 458.461C286.181 458.754 285.73 459.182 285.366 459.744C285.003 460.307 284.722 460.986 284.523 461.783C284.335 462.568 284.241 463.453 284.241 464.438V465.141C284.241 465.973 284.353 466.746 284.575 467.461C284.81 468.164 285.15 468.779 285.595 469.307C286.04 469.834 286.579 470.25 287.212 470.555C287.845 470.848 288.566 470.994 289.374 470.994C290.394 470.994 291.302 470.789 292.099 470.379C292.896 469.969 293.587 469.389 294.173 468.639L296.405 470.801C295.995 471.398 295.462 471.973 294.806 472.523C294.15 473.062 293.347 473.502 292.398 473.842C291.46 474.182 290.37 474.352 289.128 474.352Z" fill="#FAFAFF"/>
<path d="M126.322 556.455H119.66V552.957H126.322C127.482 552.957 128.42 552.77 129.135 552.395C129.85 552.02 130.371 551.504 130.699 550.848C131.039 550.18 131.209 549.418 131.209 548.562C131.209 547.754 131.039 546.998 130.699 546.295C130.371 545.58 129.85 545.006 129.135 544.572C128.42 544.139 127.482 543.922 126.322 543.922H121.014V566H116.602V540.406H126.322C128.303 540.406 129.984 540.758 131.367 541.461C132.762 542.152 133.822 543.113 134.549 544.344C135.275 545.562 135.639 546.957 135.639 548.527C135.639 550.18 135.275 551.598 134.549 552.781C133.822 553.965 132.762 554.873 131.367 555.506C129.984 556.139 128.303 556.455 126.322 556.455ZM150.044 562.186V553.115C150.044 552.436 149.921 551.85 149.674 551.357C149.428 550.865 149.053 550.484 148.549 550.215C148.057 549.945 147.436 549.811 146.686 549.811C145.995 549.811 145.397 549.928 144.893 550.162C144.389 550.396 143.997 550.713 143.715 551.111C143.434 551.51 143.294 551.961 143.294 552.465H139.075C139.075 551.715 139.256 550.988 139.62 550.285C139.983 549.582 140.51 548.955 141.202 548.404C141.893 547.854 142.719 547.42 143.68 547.104C144.641 546.787 145.719 546.629 146.915 546.629C148.344 546.629 149.61 546.869 150.712 547.35C151.825 547.83 152.698 548.557 153.331 549.529C153.975 550.49 154.298 551.697 154.298 553.15V561.605C154.298 562.473 154.356 563.252 154.473 563.943C154.602 564.623 154.784 565.215 155.018 565.719V566H150.676C150.477 565.543 150.319 564.963 150.202 564.26C150.096 563.545 150.044 562.854 150.044 562.186ZM150.659 554.434L150.694 557.053H147.653C146.868 557.053 146.176 557.129 145.579 557.281C144.981 557.422 144.483 557.633 144.085 557.914C143.686 558.195 143.387 558.535 143.188 558.934C142.989 559.332 142.889 559.783 142.889 560.287C142.889 560.791 143.006 561.254 143.241 561.676C143.475 562.086 143.815 562.408 144.26 562.643C144.717 562.877 145.268 562.994 145.913 562.994C146.78 562.994 147.536 562.818 148.18 562.467C148.837 562.104 149.352 561.664 149.727 561.148C150.102 560.621 150.301 560.123 150.325 559.654L151.696 561.535C151.555 562.016 151.315 562.531 150.975 563.082C150.635 563.633 150.19 564.16 149.639 564.664C149.1 565.156 148.45 565.561 147.688 565.877C146.938 566.193 146.071 566.352 145.087 566.352C143.844 566.352 142.737 566.105 141.764 565.613C140.792 565.109 140.03 564.436 139.479 563.592C138.928 562.736 138.653 561.77 138.653 560.691C138.653 559.684 138.84 558.793 139.215 558.02C139.602 557.234 140.165 556.578 140.903 556.051C141.653 555.523 142.567 555.125 143.645 554.855C144.723 554.574 145.954 554.434 147.337 554.434H150.659ZM171.269 546.98H175.118V565.473C175.118 567.184 174.755 568.637 174.029 569.832C173.302 571.027 172.288 571.936 170.988 572.557C169.687 573.189 168.181 573.506 166.47 573.506C165.743 573.506 164.935 573.4 164.044 573.189C163.165 572.979 162.31 572.639 161.478 572.17C160.658 571.713 159.972 571.109 159.421 570.359L161.408 567.863C162.087 568.672 162.837 569.264 163.658 569.639C164.478 570.014 165.339 570.201 166.241 570.201C167.214 570.201 168.04 570.02 168.72 569.656C169.411 569.305 169.945 568.783 170.32 568.092C170.695 567.4 170.882 566.557 170.882 565.561V551.287L171.269 546.98ZM158.349 556.701V556.332C158.349 554.891 158.525 553.578 158.876 552.395C159.228 551.199 159.732 550.174 160.388 549.318C161.044 548.451 161.841 547.789 162.779 547.332C163.716 546.863 164.777 546.629 165.96 546.629C167.191 546.629 168.24 546.852 169.107 547.297C169.986 547.742 170.718 548.381 171.304 549.213C171.89 550.033 172.347 551.018 172.675 552.166C173.015 553.303 173.267 554.568 173.431 555.963V557.141C173.279 558.5 173.021 559.742 172.658 560.867C172.294 561.992 171.814 562.965 171.216 563.785C170.618 564.605 169.88 565.238 169.001 565.684C168.134 566.129 167.109 566.352 165.925 566.352C164.765 566.352 163.716 566.111 162.779 565.631C161.853 565.15 161.056 564.477 160.388 563.609C159.732 562.742 159.228 561.723 158.876 560.551C158.525 559.367 158.349 558.084 158.349 556.701ZM162.585 556.332V556.701C162.585 557.568 162.667 558.377 162.831 559.127C163.007 559.877 163.271 560.539 163.622 561.113C163.986 561.676 164.443 562.121 164.993 562.449C165.556 562.766 166.218 562.924 166.98 562.924C167.976 562.924 168.79 562.713 169.423 562.291C170.068 561.869 170.56 561.301 170.9 560.586C171.251 559.859 171.497 559.051 171.638 558.16V554.979C171.568 554.287 171.421 553.643 171.199 553.045C170.988 552.447 170.7 551.926 170.337 551.48C169.974 551.023 169.517 550.672 168.966 550.426C168.415 550.168 167.765 550.039 167.015 550.039C166.253 550.039 165.591 550.203 165.029 550.531C164.466 550.859 164.003 551.311 163.64 551.885C163.288 552.459 163.025 553.127 162.849 553.889C162.673 554.65 162.585 555.465 162.585 556.332ZM188.258 566.352C186.851 566.352 185.58 566.123 184.443 565.666C183.318 565.197 182.357 564.547 181.56 563.715C180.775 562.883 180.172 561.904 179.75 560.779C179.328 559.654 179.117 558.441 179.117 557.141V556.438C179.117 554.949 179.334 553.602 179.768 552.395C180.201 551.188 180.805 550.156 181.578 549.301C182.351 548.434 183.266 547.771 184.32 547.314C185.375 546.857 186.518 546.629 187.748 546.629C189.107 546.629 190.297 546.857 191.316 547.314C192.336 547.771 193.18 548.416 193.848 549.248C194.527 550.068 195.031 551.047 195.359 552.184C195.699 553.32 195.869 554.574 195.869 555.945V557.756H181.174V554.715H191.685V554.381C191.662 553.619 191.51 552.904 191.228 552.236C190.959 551.568 190.543 551.029 189.98 550.619C189.418 550.209 188.668 550.004 187.73 550.004C187.027 550.004 186.4 550.156 185.85 550.461C185.31 550.754 184.859 551.182 184.496 551.744C184.133 552.307 183.851 552.986 183.652 553.783C183.465 554.568 183.371 555.453 183.371 556.438V557.141C183.371 557.973 183.482 558.746 183.705 559.461C183.939 560.164 184.279 560.779 184.725 561.307C185.17 561.834 185.709 562.25 186.342 562.555C186.975 562.848 187.695 562.994 188.504 562.994C189.523 562.994 190.432 562.789 191.228 562.379C192.025 561.969 192.717 561.389 193.303 560.639L195.535 562.801C195.125 563.398 194.592 563.973 193.935 564.523C193.279 565.062 192.476 565.502 191.527 565.842C190.59 566.182 189.5 566.352 188.258 566.352ZM213.06 551.041V566H208.823V546.98H212.814L213.06 551.041ZM212.304 555.787L210.933 555.77C210.945 554.422 211.132 553.186 211.495 552.061C211.87 550.936 212.386 549.969 213.042 549.16C213.71 548.352 214.507 547.73 215.433 547.297C216.359 546.852 217.39 546.629 218.527 546.629C219.441 546.629 220.267 546.758 221.005 547.016C221.755 547.262 222.394 547.666 222.921 548.229C223.46 548.791 223.87 549.523 224.152 550.426C224.433 551.316 224.573 552.412 224.573 553.713V566H220.32V553.695C220.32 552.781 220.185 552.061 219.915 551.533C219.657 550.994 219.277 550.613 218.773 550.391C218.28 550.156 217.665 550.039 216.927 550.039C216.2 550.039 215.55 550.191 214.976 550.496C214.402 550.801 213.915 551.217 213.517 551.744C213.13 552.271 212.831 552.881 212.62 553.572C212.409 554.264 212.304 555.002 212.304 555.787ZM239.98 562.186V553.115C239.98 552.436 239.857 551.85 239.611 551.357C239.365 550.865 238.99 550.484 238.486 550.215C237.994 549.945 237.373 549.811 236.623 549.811C235.931 549.811 235.334 549.928 234.83 550.162C234.326 550.396 233.933 550.713 233.652 551.111C233.371 551.51 233.23 551.961 233.23 552.465H229.012C229.012 551.715 229.193 550.988 229.556 550.285C229.92 549.582 230.447 548.955 231.139 548.404C231.83 547.854 232.656 547.42 233.617 547.104C234.578 546.787 235.656 546.629 236.851 546.629C238.281 546.629 239.547 546.869 240.648 547.35C241.762 547.83 242.635 548.557 243.267 549.529C243.912 550.49 244.234 551.697 244.234 553.15V561.605C244.234 562.473 244.293 563.252 244.41 563.943C244.539 564.623 244.721 565.215 244.955 565.719V566H240.613C240.414 565.543 240.256 564.963 240.139 564.26C240.033 563.545 239.98 562.854 239.98 562.186ZM240.596 554.434L240.631 557.053H237.59C236.805 557.053 236.113 557.129 235.515 557.281C234.918 557.422 234.42 557.633 234.021 557.914C233.623 558.195 233.324 558.535 233.125 558.934C232.926 559.332 232.826 559.783 232.826 560.287C232.826 560.791 232.943 561.254 233.178 561.676C233.412 562.086 233.752 562.408 234.197 562.643C234.654 562.877 235.205 562.994 235.849 562.994C236.717 562.994 237.473 562.818 238.117 562.467C238.773 562.104 239.289 561.664 239.664 561.148C240.039 560.621 240.238 560.123 240.262 559.654L241.633 561.535C241.492 562.016 241.252 562.531 240.912 563.082C240.572 563.633 240.127 564.16 239.576 564.664C239.037 565.156 238.387 565.561 237.625 565.877C236.875 566.193 236.008 566.352 235.023 566.352C233.781 566.352 232.674 566.105 231.701 565.613C230.728 565.109 229.967 564.436 229.416 563.592C228.865 562.736 228.59 561.77 228.59 560.691C228.59 559.684 228.777 558.793 229.152 558.02C229.539 557.234 230.101 556.578 230.84 556.051C231.59 555.523 232.504 555.125 233.582 554.855C234.66 554.574 235.89 554.434 237.273 554.434H240.596ZM253.26 550.848V566H249.024V546.98H253.014L253.26 550.848ZM252.575 555.787L251.133 555.77C251.133 554.457 251.297 553.244 251.625 552.131C251.954 551.018 252.434 550.051 253.067 549.23C253.7 548.398 254.485 547.76 255.422 547.314C256.372 546.857 257.467 546.629 258.709 546.629C259.577 546.629 260.368 546.758 261.083 547.016C261.809 547.262 262.436 547.654 262.963 548.193C263.502 548.732 263.913 549.424 264.194 550.268C264.487 551.111 264.633 552.131 264.633 553.326V566H260.397V553.695C260.397 552.77 260.256 552.043 259.975 551.516C259.706 550.988 259.313 550.613 258.797 550.391C258.293 550.156 257.69 550.039 256.987 550.039C256.19 550.039 255.51 550.191 254.948 550.496C254.397 550.801 253.946 551.217 253.594 551.744C253.243 552.271 252.985 552.881 252.821 553.572C252.657 554.264 252.575 555.002 252.575 555.787ZM264.37 554.662L262.383 555.102C262.383 553.953 262.541 552.869 262.858 551.85C263.186 550.818 263.661 549.916 264.282 549.143C264.915 548.357 265.694 547.742 266.62 547.297C267.545 546.852 268.606 546.629 269.801 546.629C270.774 546.629 271.641 546.764 272.403 547.033C273.176 547.291 273.833 547.701 274.372 548.264C274.911 548.826 275.321 549.559 275.602 550.461C275.883 551.352 276.024 552.43 276.024 553.695V566H271.77V553.678C271.77 552.717 271.629 551.973 271.348 551.445C271.079 550.918 270.692 550.555 270.188 550.355C269.684 550.145 269.081 550.039 268.377 550.039C267.721 550.039 267.141 550.162 266.637 550.408C266.145 550.643 265.729 550.977 265.389 551.41C265.049 551.832 264.791 552.318 264.616 552.869C264.452 553.42 264.37 554.018 264.37 554.662ZM289.128 566.352C287.722 566.352 286.45 566.123 285.314 565.666C284.189 565.197 283.228 564.547 282.431 563.715C281.646 562.883 281.042 561.904 280.62 560.779C280.198 559.654 279.987 558.441 279.987 557.141V556.438C279.987 554.949 280.204 553.602 280.638 552.395C281.071 551.188 281.675 550.156 282.448 549.301C283.222 548.434 284.136 547.771 285.191 547.314C286.245 546.857 287.388 546.629 288.618 546.629C289.978 546.629 291.167 546.857 292.187 547.314C293.206 547.771 294.05 548.416 294.718 549.248C295.398 550.068 295.901 551.047 296.23 552.184C296.569 553.32 296.739 554.574 296.739 555.945V557.756H282.044V554.715H292.556V554.381C292.532 553.619 292.38 552.904 292.099 552.236C291.829 551.568 291.413 551.029 290.851 550.619C290.288 550.209 289.538 550.004 288.601 550.004C287.898 550.004 287.271 550.156 286.72 550.461C286.181 550.754 285.73 551.182 285.366 551.744C285.003 552.307 284.722 552.986 284.523 553.783C284.335 554.568 284.241 555.453 284.241 556.438V557.141C284.241 557.973 284.353 558.746 284.575 559.461C284.81 560.164 285.15 560.779 285.595 561.307C286.04 561.834 286.579 562.25 287.212 562.555C287.845 562.848 288.566 562.994 289.374 562.994C290.394 562.994 291.302 562.789 292.099 562.379C292.896 561.969 293.587 561.389 294.173 560.639L296.405 562.801C295.995 563.398 295.462 563.973 294.806 564.523C294.15 565.062 293.347 565.502 292.398 565.842C291.46 566.182 290.37 566.352 289.128 566.352Z" fill="#FAFAFF"/>
<path d="M76.3223 667.455H69.6602V663.957H76.3223C77.4824 663.957 78.4199 663.77 79.1348 663.395C79.8496 663.02 80.3711 662.504 80.6992 661.848C81.0391 661.18 81.209 660.418 81.209 659.562C81.209 658.754 81.0391 657.998 80.6992 657.295C80.3711 656.58 79.8496 656.006 79.1348 655.572C78.4199 655.139 77.4824 654.922 76.3223 654.922H71.0137V677H66.6016V651.406H76.3223C78.3027 651.406 79.9844 651.758 81.3672 652.461C82.7617 653.152 83.8223 654.113 84.5488 655.344C85.2754 656.562 85.6387 657.957 85.6387 659.527C85.6387 661.18 85.2754 662.598 84.5488 663.781C83.8223 664.965 82.7617 665.873 81.3672 666.506C79.9844 667.139 78.3027 667.455 76.3223 667.455ZM100.044 673.186V664.115C100.044 663.436 99.9205 662.85 99.6745 662.357C99.4284 661.865 99.0534 661.484 98.5495 661.215C98.0573 660.945 97.4362 660.811 96.6862 660.811C95.9948 660.811 95.3971 660.928 94.8932 661.162C94.3893 661.396 93.9967 661.713 93.7155 662.111C93.4342 662.51 93.2936 662.961 93.2936 663.465H89.0748C89.0748 662.715 89.2565 661.988 89.6198 661.285C89.983 660.582 90.5104 659.955 91.2018 659.404C91.8932 658.854 92.7194 658.42 93.6803 658.104C94.6413 657.787 95.7194 657.629 96.9147 657.629C98.3444 657.629 99.61 657.869 100.712 658.35C101.825 658.83 102.698 659.557 103.331 660.529C103.975 661.49 104.298 662.697 104.298 664.15V672.605C104.298 673.473 104.356 674.252 104.473 674.943C104.602 675.623 104.784 676.215 105.018 676.719V677H100.676C100.477 676.543 100.319 675.963 100.202 675.26C100.096 674.545 100.044 673.854 100.044 673.186ZM100.659 665.434L100.694 668.053H97.653C96.8678 668.053 96.1764 668.129 95.5788 668.281C94.9811 668.422 94.483 668.633 94.0846 668.914C93.6862 669.195 93.3873 669.535 93.1881 669.934C92.9889 670.332 92.8893 670.783 92.8893 671.287C92.8893 671.791 93.0065 672.254 93.2409 672.676C93.4752 673.086 93.8151 673.408 94.2604 673.643C94.7174 673.877 95.2682 673.994 95.9127 673.994C96.7799 673.994 97.5358 673.818 98.1803 673.467C98.8366 673.104 99.3522 672.664 99.7272 672.148C100.102 671.621 100.301 671.123 100.325 670.654L101.696 672.535C101.555 673.016 101.315 673.531 100.975 674.082C100.635 674.633 100.19 675.16 99.6393 675.664C99.1002 676.156 98.4498 676.561 97.6881 676.877C96.9381 677.193 96.0709 677.352 95.0866 677.352C93.8444 677.352 92.737 677.105 91.7643 676.613C90.7916 676.109 90.0299 675.436 89.4791 674.592C88.9284 673.736 88.653 672.77 88.653 671.691C88.653 670.684 88.8405 669.793 89.2155 669.02C89.6022 668.234 90.1647 667.578 90.903 667.051C91.653 666.523 92.567 666.125 93.6452 665.855C94.7233 665.574 95.9538 665.434 97.3366 665.434H100.659ZM121.269 657.98H125.118V676.473C125.118 678.184 124.755 679.637 124.029 680.832C123.302 682.027 122.288 682.936 120.988 683.557C119.687 684.189 118.181 684.506 116.47 684.506C115.743 684.506 114.935 684.4 114.044 684.189C113.165 683.979 112.31 683.639 111.478 683.17C110.658 682.713 109.972 682.109 109.421 681.359L111.408 678.863C112.087 679.672 112.837 680.264 113.658 680.639C114.478 681.014 115.339 681.201 116.241 681.201C117.214 681.201 118.04 681.02 118.72 680.656C119.411 680.305 119.945 679.783 120.32 679.092C120.695 678.4 120.882 677.557 120.882 676.561V662.287L121.269 657.98ZM108.349 667.701V667.332C108.349 665.891 108.525 664.578 108.876 663.395C109.228 662.199 109.732 661.174 110.388 660.318C111.044 659.451 111.841 658.789 112.779 658.332C113.716 657.863 114.777 657.629 115.96 657.629C117.191 657.629 118.24 657.852 119.107 658.297C119.986 658.742 120.718 659.381 121.304 660.213C121.89 661.033 122.347 662.018 122.675 663.166C123.015 664.303 123.267 665.568 123.431 666.963V668.141C123.279 669.5 123.021 670.742 122.658 671.867C122.294 672.992 121.814 673.965 121.216 674.785C120.618 675.605 119.88 676.238 119.001 676.684C118.134 677.129 117.109 677.352 115.925 677.352C114.765 677.352 113.716 677.111 112.779 676.631C111.853 676.15 111.056 675.477 110.388 674.609C109.732 673.742 109.228 672.723 108.876 671.551C108.525 670.367 108.349 669.084 108.349 667.701ZM112.585 667.332V667.701C112.585 668.568 112.667 669.377 112.831 670.127C113.007 670.877 113.271 671.539 113.622 672.113C113.986 672.676 114.443 673.121 114.993 673.449C115.556 673.766 116.218 673.924 116.98 673.924C117.976 673.924 118.79 673.713 119.423 673.291C120.068 672.869 120.56 672.301 120.9 671.586C121.251 670.859 121.497 670.051 121.638 669.16V665.979C121.568 665.287 121.421 664.643 121.199 664.045C120.988 663.447 120.7 662.926 120.337 662.48C119.974 662.023 119.517 661.672 118.966 661.426C118.415 661.168 117.765 661.039 117.015 661.039C116.253 661.039 115.591 661.203 115.029 661.531C114.466 661.859 114.003 662.311 113.64 662.885C113.288 663.459 113.025 664.127 112.849 664.889C112.673 665.65 112.585 666.465 112.585 667.332ZM138.258 677.352C136.851 677.352 135.58 677.123 134.443 676.666C133.318 676.197 132.357 675.547 131.56 674.715C130.775 673.883 130.172 672.904 129.75 671.779C129.328 670.654 129.117 669.441 129.117 668.141V667.438C129.117 665.949 129.334 664.602 129.768 663.395C130.201 662.188 130.805 661.156 131.578 660.301C132.351 659.434 133.266 658.771 134.32 658.314C135.375 657.857 136.518 657.629 137.748 657.629C139.107 657.629 140.297 657.857 141.316 658.314C142.336 658.771 143.18 659.416 143.848 660.248C144.527 661.068 145.031 662.047 145.359 663.184C145.699 664.32 145.869 665.574 145.869 666.945V668.756H131.174V665.715H141.685V665.381C141.662 664.619 141.51 663.904 141.228 663.236C140.959 662.568 140.543 662.029 139.98 661.619C139.418 661.209 138.668 661.004 137.73 661.004C137.027 661.004 136.4 661.156 135.85 661.461C135.31 661.754 134.859 662.182 134.496 662.744C134.133 663.307 133.851 663.986 133.652 664.783C133.465 665.568 133.371 666.453 133.371 667.438V668.141C133.371 668.973 133.482 669.746 133.705 670.461C133.939 671.164 134.279 671.779 134.725 672.307C135.17 672.834 135.709 673.25 136.342 673.555C136.975 673.848 137.695 673.994 138.504 673.994C139.523 673.994 140.432 673.789 141.228 673.379C142.025 672.969 142.717 672.389 143.303 671.639L145.535 673.801C145.125 674.398 144.592 674.973 143.935 675.523C143.279 676.062 142.476 676.502 141.527 676.842C140.59 677.182 139.5 677.352 138.258 677.352ZM163.06 662.041V677H158.823V657.98H162.814L163.06 662.041ZM162.304 666.787L160.933 666.77C160.945 665.422 161.132 664.186 161.495 663.061C161.87 661.936 162.386 660.969 163.042 660.16C163.71 659.352 164.507 658.73 165.433 658.297C166.359 657.852 167.39 657.629 168.527 657.629C169.441 657.629 170.267 657.758 171.005 658.016C171.755 658.262 172.394 658.666 172.921 659.229C173.46 659.791 173.87 660.523 174.152 661.426C174.433 662.316 174.573 663.412 174.573 664.713V677H170.32V664.695C170.32 663.781 170.185 663.061 169.915 662.533C169.657 661.994 169.277 661.613 168.773 661.391C168.28 661.156 167.665 661.039 166.927 661.039C166.2 661.039 165.55 661.191 164.976 661.496C164.402 661.801 163.915 662.217 163.517 662.744C163.13 663.271 162.831 663.881 162.62 664.572C162.409 665.264 162.304 666.002 162.304 666.787ZM189.98 673.186V664.115C189.98 663.436 189.857 662.85 189.611 662.357C189.365 661.865 188.99 661.484 188.486 661.215C187.994 660.945 187.373 660.811 186.623 660.811C185.931 660.811 185.334 660.928 184.83 661.162C184.326 661.396 183.933 661.713 183.652 662.111C183.371 662.51 183.23 662.961 183.23 663.465H179.012C179.012 662.715 179.193 661.988 179.556 661.285C179.92 660.582 180.447 659.955 181.139 659.404C181.83 658.854 182.656 658.42 183.617 658.104C184.578 657.787 185.656 657.629 186.851 657.629C188.281 657.629 189.547 657.869 190.648 658.35C191.762 658.83 192.635 659.557 193.267 660.529C193.912 661.49 194.234 662.697 194.234 664.15V672.605C194.234 673.473 194.293 674.252 194.41 674.943C194.539 675.623 194.721 676.215 194.955 676.719V677H190.613C190.414 676.543 190.256 675.963 190.139 675.26C190.033 674.545 189.98 673.854 189.98 673.186ZM190.596 665.434L190.631 668.053H187.59C186.805 668.053 186.113 668.129 185.515 668.281C184.918 668.422 184.42 668.633 184.021 668.914C183.623 669.195 183.324 669.535 183.125 669.934C182.926 670.332 182.826 670.783 182.826 671.287C182.826 671.791 182.943 672.254 183.178 672.676C183.412 673.086 183.752 673.408 184.197 673.643C184.654 673.877 185.205 673.994 185.849 673.994C186.717 673.994 187.473 673.818 188.117 673.467C188.773 673.104 189.289 672.664 189.664 672.148C190.039 671.621 190.238 671.123 190.262 670.654L191.633 672.535C191.492 673.016 191.252 673.531 190.912 674.082C190.572 674.633 190.127 675.16 189.576 675.664C189.037 676.156 188.387 676.561 187.625 676.877C186.875 677.193 186.008 677.352 185.023 677.352C183.781 677.352 182.674 677.105 181.701 676.613C180.728 676.109 179.967 675.436 179.416 674.592C178.865 673.736 178.59 672.77 178.59 671.691C178.59 670.684 178.777 669.793 179.152 669.02C179.539 668.234 180.101 667.578 180.84 667.051C181.59 666.523 182.504 666.125 183.582 665.855C184.66 665.574 185.89 665.434 187.273 665.434H190.596ZM203.26 661.848V677H199.024V657.98H203.014L203.26 661.848ZM202.575 666.787L201.133 666.77C201.133 665.457 201.297 664.244 201.625 663.131C201.954 662.018 202.434 661.051 203.067 660.23C203.7 659.398 204.485 658.76 205.422 658.314C206.372 657.857 207.467 657.629 208.709 657.629C209.577 657.629 210.368 657.758 211.083 658.016C211.809 658.262 212.436 658.654 212.963 659.193C213.502 659.732 213.913 660.424 214.194 661.268C214.487 662.111 214.633 663.131 214.633 664.326V677H210.397V664.695C210.397 663.77 210.256 663.043 209.975 662.516C209.706 661.988 209.313 661.613 208.797 661.391C208.293 661.156 207.69 661.039 206.987 661.039C206.19 661.039 205.51 661.191 204.948 661.496C204.397 661.801 203.946 662.217 203.594 662.744C203.243 663.271 202.985 663.881 202.821 664.572C202.657 665.264 202.575 666.002 202.575 666.787ZM214.37 665.662L212.383 666.102C212.383 664.953 212.541 663.869 212.858 662.85C213.186 661.818 213.661 660.916 214.282 660.143C214.915 659.357 215.694 658.742 216.62 658.297C217.545 657.852 218.606 657.629 219.801 657.629C220.774 657.629 221.641 657.764 222.403 658.033C223.176 658.291 223.833 658.701 224.372 659.264C224.911 659.826 225.321 660.559 225.602 661.461C225.883 662.352 226.024 663.43 226.024 664.695V677H221.77V664.678C221.77 663.717 221.629 662.973 221.348 662.445C221.079 661.918 220.692 661.555 220.188 661.355C219.684 661.145 219.081 661.039 218.377 661.039C217.721 661.039 217.141 661.162 216.637 661.408C216.145 661.643 215.729 661.977 215.389 662.41C215.049 662.832 214.791 663.318 214.616 663.869C214.452 664.42 214.37 665.018 214.37 665.662ZM239.128 677.352C237.722 677.352 236.45 677.123 235.314 676.666C234.189 676.197 233.228 675.547 232.431 674.715C231.646 673.883 231.042 672.904 230.62 671.779C230.198 670.654 229.987 669.441 229.987 668.141V667.438C229.987 665.949 230.204 664.602 230.638 663.395C231.071 662.188 231.675 661.156 232.448 660.301C233.222 659.434 234.136 658.771 235.191 658.314C236.245 657.857 237.388 657.629 238.618 657.629C239.978 657.629 241.167 657.857 242.187 658.314C243.206 658.771 244.05 659.416 244.718 660.248C245.398 661.068 245.901 662.047 246.23 663.184C246.569 664.32 246.739 665.574 246.739 666.945V668.756H232.044V665.715H242.556V665.381C242.532 664.619 242.38 663.904 242.099 663.236C241.829 662.568 241.413 662.029 240.851 661.619C240.288 661.209 239.538 661.004 238.601 661.004C237.898 661.004 237.271 661.156 236.72 661.461C236.181 661.754 235.73 662.182 235.366 662.744C235.003 663.307 234.722 663.986 234.523 664.783C234.335 665.568 234.241 666.453 234.241 667.438V668.141C234.241 668.973 234.353 669.746 234.575 670.461C234.81 671.164 235.15 671.779 235.595 672.307C236.04 672.834 236.579 673.25 237.212 673.555C237.845 673.848 238.566 673.994 239.374 673.994C240.394 673.994 241.302 673.789 242.099 673.379C242.896 672.969 243.587 672.389 244.173 671.639L246.405 673.801C245.995 674.398 245.462 674.973 244.806 675.523C244.15 676.062 243.347 676.502 242.398 676.842C241.46 677.182 240.37 677.352 239.128 677.352Z" fill="#FAFAFF"/>
<defs>
<linearGradient id="paint0_linear_2004_502" x1="251" y1="216" x2="251" y2="985" gradientUnits="userSpaceOnUse">
<stop stop-color="#FAFAFF"/>
<stop offset="1" stop-color="#9898AD"/>
</linearGradient>
<linearGradient id="paint1_linear_2004_502" x1="254" y1="512" x2="254" y2="866" gradientUnits="userSpaceOnUse">
<stop stop-color="#E7F6B4"/>
<stop offset="1" stop-color="#96AA4D"/>
</linearGradient>
<linearGradient id="paint2_linear_2004_502" x1="45" y1="549" x2="457" y2="549" gradientUnits="userSpaceOnUse">
<stop stop-color="#34601D"/>
<stop offset="0.5" stop-color="#34601D"/>
<stop offset="1" stop-color="#34601D" stop-opacity="0.5"/>
</linearGradient>
<clipPath id="clip0_2004_502">
<rect x="45" y="47" width="412" height="892" rx="18" fill="white"/>
</clipPath>
</defs>
</svg>
